<?xml version="1.0" encoding="UTF-8"?>
<svg id="Layer_2" data-name="Layer 2" xmlns="http://www.w3.org/2000/svg" viewBox="0 0 67.35 45.54">
  <g id="Layer_1-2" data-name="Layer 1">
    <g>
      <path d="M53.23,23.93c-2.57-3.61-4.87-7.31-7.6-10.86-1.27-1.65-1.91-5.47-4.89-5.47-3.02,0-5.11,6.55-6.51,6.54-.95,0-5.44-6.88-7.48-6.45-3.38,4.33-7.14,8.62-10.43,12.98-1.38,1.82-2.87,4.49-4.34,6.51C10.28,29.51.26,41.99.05,42.96c-.29,1.29.78,2.01,1.76,2.58l65.54-.99c-3.81-7.48-9.29-13.85-14.11-20.62Z" fill="#171a14"/>
      <path d="M42.55,8.19c.13,1.64-6.77,4.69-7.45,6.12-1.05,2.21,0,1.02-2.84.53-.36-.06-4.18-4.41-5.51-7.15-.59-1.23,2.88-3.53,3.09-3.73,3.63-3.57,3.34-5.07,5.74-3.07,2.2,1.83,7.23,7.02,6.97,7.3Z" fill="#ff4e50"/>
    </g>
  </g>
</svg>