<?xml version="1.0" encoding="UTF-8"?>
<svg id="Layer_2" data-name="Layer 2" xmlns="http://www.w3.org/2000/svg" viewBox="0 0 194.86 107.72">
  <g id="Layer_1-2" data-name="Layer 1">
    <g>
      <polygon points="30.38 106.92 185.96 107.46 174.92 90.58 142.62 55.16 131.14 33.91 128.45 22.58 102.57 22.58 47.99 81.09 30.38 106.92" fill="#fff1d4"/>
      <g>
        <path d="M110.17,8.14c-.16-1.21-2.11-7.45-3.06-7.72-3.19-.9-11.59-.45-14.04,2.02-3.51,3.54-1.56,8.68-1.9,13.3-.36.93-1.44,3.38-1.9,3.8h10.59c.92.51,2.12.6,3.59,0h6.71c-.33-3.67.48-7.86,0-11.4Z" fill="#ff4e50"/>
        <path d="M104.47,17.64c-5.27.88-4.68-1.76-1.9-5.7,2.04,1.95,2.39,2.89,1.9,5.7Z" fill="#0e0e0d"/>
        <g>
          <path d="M188.05,97.42c-1.55-2.01-2.6-4.16-3.8-5.7-10.85-14-26.94-24.12-35.08-34.26-6.64-8.29-11.25-32.02-18.11-36.03-6.58-3.85-12.11-.96-19-1.9-.68-.09-1.49.19-1.9,0h-20.9c-5.68.64-12.67-1.96-17.1,1.9-5.02,4.38-13.49,42.15-15.21,43.7-1.05.95-7.59-2.01-10.34-1.86-11.12.61-33.76,35.84-46.63,40.8l18.99,2.84c3.63-.4,7.68.27,11.4,0,.33-.02,2.13-1.84,4.6-1.98,16.65-.93,33.8.84,50.49.08,23.49-9.38,30.28-51.19-1.31-21.55-2.14.17-4.22.58-6.22,1.24,7.65-4.32,15.12-9.08,22.41-14.27l15.89-2.58c10.79-5.72,3.51-19.17-7.83-16.41,3.46-10.47,2.78-18.56-2.04-24.3v-1.9c2.53-.02,5.07,0,7.6,0,1.02,4.73,9.53,5.54,12.39,2.13-1.7,6.79,4.13,19.18,7.26,25.32,2.07,4.06,3.92,7.59,6.8,11.18,14.74,10.21,25.69,23.01,32.84,38.4.28.25,4.85,2.45,6.26,3.12,11.97,5.7,22.86.14,8.54-7.97ZM64.58,93.62v-1.9c1.49-.73,2.98-1.47,4.46-2.23-1.54,1.2-3.03,2.58-4.46,4.13Z" fill="#171a14"/>
          <path d="M136.85,84.98c-1.08-1.22-9.54-24.38-13.38-19.85-3.97,24.01,15.05,34.48,34.16,41.78,4.97-6.36-18.4-19.23-20.79-21.93Z" fill="#171a14"/>
          <path d="M122.51,91.76c-8.39-.33,5.74,15.02,7.6,15.12,7.31.41-5.5-15.04-7.6-15.12Z" fill="#171a14"/>
          <path d="M125.34,51.83l-5.71-20.89c-4.6-.63-4.25.32-3.4,4.35,1.07,5.06,4.49,13.78,9.1,16.54Z" fill="#171a14"/>
          <path d="M159.57,91.73c-.73,4.29,1.7,7.95,5.66,9.49,1.11-1.32-4.83-11.23-5.66-9.49Z" fill="#171a14"/>
        </g>
      </g>
    </g>
  </g>
</svg>