<?xml version="1.0" encoding="UTF-8"?>
<svg id="Layer_2" data-name="Layer 2" xmlns="http://www.w3.org/2000/svg" viewBox="0 0 538.83 324.01">
  <g id="Layer_1-2" data-name="Layer 1">
    <g>
      <polygon points="96.08 218.1 446.88 218.1 424.39 198.96 404.85 189.88 378.88 155.52 337.03 153.6 324.98 133.6 315.21 88.12 276.49 79.8 246.84 79.8 226.66 123.59 210.38 143.85 155.23 182.58 107.55 209.04 96.08 218.1" fill="#fff1d4"/>
      <path d="M234.85,200.2l-5.12-.8c3.27-7.17,1.58-16.73-7.69-14.57-4.35-2.33-5.93-.89-2.56,2.56-11.49,9.77-22.59,19.16-33.3,28.18-4.33-.83-9.77,1.64-12.81,5.12-3.24.12-3.73-1-1.48-3.37-7.71-9.27-7.66-19.49.15-30.68l-3.79-4.37c18.46-10.87,5.92-29.39-12.81-15.37h-6.9s-19.54,23.69-19.54,23.69c-18.08,3.34-34.29,13.49-37.6,30.1-1.54,1.33-2.76,3.23-5.12,5.12-6.04,5.13-12.31,7.58-18.81,7.35-2.22,4.17-5.25,5.38-9.1,3.62-1.77,3.65-5.27,6.82-10.52,9.51.23,1.63-.44,4.15,0,5.12h20.49c1.7-.07,3.43.1,5.12,0l1.4,1.06c5.63-.09,11.25-.13,16.87.11.27-.11.56-.2.83-.31-.09.11-.14.22-.21.33,2.17.1,4.33.23,6.49.43.89.08,1.77.21,2.66.3,7.06-.28,14.09-.3,21,.44,18.71-.39,37.42-.88,56.14-1.49,6.67-2.77,12.09-5.01,21.82-8.1,24.32-7.73,19.76-16.24,34.51-27.21,7.37-5.48,17.3-6.1,24.25-11.61,8.22-6.52,11.21-19.56,16.59-28.21-15.78,3.3-23.14,22.13-40.98,23.03ZM109.34,246.31c-2.25-.22-4.62.01-6.88.55,1.48-1,2.93-2.03,4.32-3.11,6.83-1.96,7.68-1.11,2.56,2.56Z" fill="#171a14"/>
      <path d="M288.64,41.4c7.26,9.27-3.28,28.28,7.8,34.46,11.22,6.25,14.66-.75,22.93,14.21,2.13,7.04-3.72,8.61-7.68,2.56-8.83.12-28.64-.4-33.3-7.68-4.62-.48-7.18.38-7.68,2.56,11.87-.36,11.91,28.83,0,28.18-6.74-16.2-11.31-20.78-12.19-3.11,6.26,7.67,3.16,14.12-9.3,19.36,14.12-1.49,20.43,2.49,18.94,11.93-4.93,26.03-13.8,39.06-33.3,56.35-4.24,3.76-6.7,8.84-12.78,10.24-.11-10.59,9.21-15.91-.02-25.61-5.89,3.61-15.08-.59-15.37-7.68-1.17-.96-3.73.75-7.68,5.12,3.03,3.89,1.7,5.22-2.56,2.56-3.73,2.09-5.43,4.65-5.12,7.68.88,18-23.02,1.35-23.05-10.25,1.98-6.31,4.76-12,2.55-17.91l-15.36,2.55c-2.6-16.59,19.26-14.86,31.14-10.99,7.41-7.43,14.96-14.86,22.65-22.31.65-.91,1.85-1.61,2.56-2.56,2.08-5.86,4.64-10.98,7.68-15.37,1.81-4.37,3.42-8.36,5.12-12.81-.6-3.84-1.25-9.01,2.56-10.25.74-2.01,2.36-7.33,2.56-7.68,4.22-7.51,12.21-10.06,20.49-10.25,6.07-3.44,16.34-5.43,23.05-5.12,5.03.33,8.44,2.04,10.25,5.12.38-9.72.91-19.88,1.58-30.49l3.54-2.8Z" fill="#171a14"/>
      <path d="M251.49,249.79c38.23-1.3,76.47-2.4,114.67-2.59-6.1-3.6-12.79-7.07-14.76-8.57-10.83-8.26-24.95-32.67-36.49-35.49-8.2-2-16.21,15.19-25.01,17.54-1.45.39-2.7-9.5-8.93-7.67-4.3-2.48-5.75-1.13-2.56,2.56-6.24,16.67-15.43,26.91-26.9,34.22Z" fill="#0c0c0b"/>
      <path d="M380.85,151.54c2.74,3.37,9.42,15.77,4.76,17-.34.09-6.63-1.3-6.79-1.61-.22-.42,8.44-3.45,4.59,2.54-8.44-.87-3.68,1.4-2.56,7.68-2.15,1.05-1.3,1.9,2.56,2.56,3.31,6.09,3.22,16.95,10.24,23.03-3.68.33-6.87-1.52-10.24-2.54-13.97,1.25-20.8-2.17-20.49-10.25-.76-.52-3.34-.03-4.99-1.41-3.77-12.18-36.46-31.61-38.56-39.58-.28-1.08.27-2.51.03-3.82l2.54-1.31c5.73-3.27,10-4.97,12.81-5.12,9.71,25.33,21.19,5.19,34.63,5.39,7.47.11,8.13,5.08,11.47,7.42Z" fill="#171a14"/>
      <path d="M396.22,164.35c5.99,6.98,14.73,24.74,19.1,28.28,5.15,4.18,14.92,4.59,21.76,8.97,9.08,5.82,14.36,17.54,21.9,24.21,8.3,7.33,21.93,13.07,32.01,17.94,2.21.78,2.19,1.64,0,2.56-8.51-.17-17.11.24-25.61,0-4.99-5.48-12.55-6.21-18.05-11.4-5.35-5.04-6.38-12.73-11.69-16.48-7.56-5.34-20.4-3.82-27.97-10.45-6.63-5.81-14.52-27.57-24.25-38.51-1.11-1.25-3.31-2.63-5.1-2.6l5.09-2.55c1.07-4.31-4.34-1.08-5.1-4.14-.21-.84.67-7.81,2.54-8.64,6.52,4.56,9.25,5.68,15.37,12.81Z" fill="#171a14"/>
      <path d="M402.44,247.31c12.84.16,25.68.44,38.51.88-11.46-5.92-29.57-10.34-39.41-16.17-9.31-5.52-15.57-17.66-30.93-26.7,0-8.68-10.24-12.5-17.93-10.25-1.89-1.08-12.01-5.9-12.79-5.11.06,4.75,2.42,10.26,5.11,14.08,8.14,11.58,36.2,34.05,57.45,43.26Z" fill="#171a14"/>
      <path d="M291.2,28.59c-4.14,2.17-2.43,8.7-2.56,12.81-.4,12.14-2.6,23.74-2.59,35.86-2.07.65-2.32-2.52-2.53-2.56-3.56-1.15-6.97-2.86-10.25-5.12-6.5,6.79-8.89,7.26-18.91,7.62-1.9.07-3.7-2.5-4.14-2.49,9.18-6.81,5.65-27.56,7.68-38.42,1.43-4.39,1.27-8.31-.46-11.76.46-1.84,36.47-4.66,33.76,4.07Z" fill="#171a14"/>
      <path d="M242.53,23.47c3.49-3.71,4.39-22.12,5.23-22.93,1.74-1.68,44.9.95,48.13,2.88,1.22.73,9.48,18.99,5.55,22.61-4.7,3.1-14.03.59-10.25-5.12-9.59-2.84-20.84-2.18-30.74,0-1.47,4.61-12.55,3.83-17.93,2.56Z" fill="#171a14"/>
      <path d="M268.15,143.85c-6.3-13.09-21.45-.29-28.15-12.76l17.88-10.33c1.07-4.41-3.83-1.62-4.82-2.73-.67-.75,2.16-19.03,2.66-19.89.47-.8,9.06-3.83,9.86-2.97l2.55,7.7,2.56-7.66c.07,6.81,0,13.67.03,20.48.02,6.54.66,14.23,0,20.49-.17,1.58-2.04,4.91-2.56,7.68Z" fill="#171a14"/>
      <path d="M145.2,79.82c1.05.08,19.75,4.39,20.49,5.15,3.04,3.1-.41,4.58-3.18,5.76-9.34,3.99-57.77,2.59-71.1,1.9-2.55-.13-5.14.12-7.68-.03.53-4.6,4.77-4,7.68-5.1l15.37-2.56c8.2-1.1,33.07-5.51,38.42-5.12Z" fill="#ff4e50"/>
      <path d="M319.37,90.07c8.95,16.18,9.6,33.61,15.37,48.67l-.02,5.13c-7.34-5.3-2.42,6-12.78,0-2.46-13.89-5.07-39.03-10.25-51.23l7.68-2.56Z" fill="#171a14"/>
      <path d="M426.97,102.44c6.38-.86,16.24-.25,23.05,0,4.6.17,14.23,1.98,20.49,2.56,5.84.59,8.4,2.3,7.68,5.12-18.84,4.34-29.38,2.99-47.27,2.43-6.29-.2-14.98,7.57-16.76-3.68,3.31-3.99,7.82-5.76,12.8-6.44Z" fill="#ff4e50"/>
      <path d="M398.82,110.73c7.65,8.41-34.35,12.54-43.57,3.85-8.79-8.28,2.8-12.18,11.27-11.5,8.96.72,21.96,8.3,32.3,7.65Z" fill="#ff4e50"/>
      <path d="M211.8,54.21c-1.46,14.5-18.8,5.12-26.66,5.34-8.14.23-17.85,6.95-27.12,4.89-1.33-6.66,1.48-4.46,4.99-6.41,2.45-1.36,11.11-5.89,12.92-6.38,12.87-3.47,24.46-5.28,35.86,2.56Z" fill="#ff4e50"/>
      <path d="M316.81,148.98c1.45,5.62,1.64,14.42,2.54,20.49-11.22-6.56-16.55-25.84-20.47-38.42-2.04-6.55-8.43-18.06-.04-20.49,5.03,13.04,14.44,24.72,17.97,38.42Z" fill="#171a14"/>
      <path d="M434.69,151.69c-7.47.36-21.95,2.66-25.61-5.1,17.72,2.76,30.92-8.2,48.24-3.32,4.5,1.27,6.65-.84,5.53,5.84-6.3.58-13.25-.83-19.42-.1-3.31.39-5.84,2.66-6.18,2.68-.85.05-1.71-.04-2.56,0Z" fill="#ff4e50"/>
      <path d="M260.46,20.91c9.81-2.2,21.57-3.02,30.74,0,.59.17,4.54,7.69,10.25,5.12-3.67,3.38-5.67,3.01-10.25,2.56-.55-.05-2.82-2.52-6.2-2.67-7.66-.34-15.4.51-23.07-.08-.55.11-3.8,9.17-4.03,10.43v-10.26s-14.08,0-14.08,0l-1.29-2.54c5.88-.6,12.13-2.28,17.93-2.56Z" fill="#ff4e50"/>
      <path d="M278.39,215.57c-.66.58-4.21.53-6.42,2.45-4.94,4.29-11.8,13.72-17.97,15.45-4.49,1.26-5.27-1.94-2.57-5.14,1.48-1.75,24.43-22.05,26.06-22.61,1.95-.67,4.01-.43,6-.37.54,3.07-.76,5.37-2.55,7.67-.8,1.03-1.59,1.72-2.56,2.56Z" fill="#1f1e1d"/>
      <path d="M453.86,123.91c.46.06,8.82,2.74,7.66,5.09l-29.4,5.19,1.24-10.28c6.56.25,14.33-.83,20.49,0Z" fill="#ff4e50"/>
      <path d="M398.83,133.76c38.48-1.16,20.09,14.27-2.56,10.25-.8-.14-1.72-2.19-2.56-2.56.02-1.96-1.69-3.67-5.12-5.12,1.78-3.86,6.88-2.46,10.25-2.56Z" fill="#ff4e50"/>
      <path d="M437.17,241.19c-3.63-.67-29.82-16.47-25.58-20.48,6.05-1.78,29.71,16.2,25.58,20.48Z" fill="#2a2726"/>
      <path d="M388.58,136.33c6.81-1.58,18.07,1.11,25.61.03l-20.49,5.1c-2.5-1.1-5.82-.21-7.63-3.86.42-1.57,1.47-1.03,2.51-1.27Z" fill="#ff4e50"/>
      <path d="M291.2,169.47c-.39-5.55-1.04-12.7-2.56-17.93,8.12,3.2,14.48,19.63,2.56,17.93Z" fill="#3e3a37"/>
      <path d="M374.84,247.17c2.66,0,5.32,0,7.99,0-2.35-4.69-9.6-7.39-9.61-2.14,0,.35.65,1.18,1.62,2.14Z" fill="#323130"/>
      <path d="M464.6,105.01c5.57.52,13.33-1.88,15.37,5.1-2.43.38-5.51-.47-7.68.03l-7.68-5.12Z" fill="#ff4e50"/>
      <path d="M352.43,220.93c.6.98,1.29,7.24-1.02,7.43l-8.98-10.21c1.77-.47,9.62,2.16,10,2.77Z" fill="#373534"/>
      <path d="M380.85,177.15c.93.78,1.96,1.46,2.56,2.56-7.92,6.39-11.7-10.24-2.56-2.56Z" fill="#171a14"/>
      <path d="M196.43,102.87c-4.88-.03-8.86,3.92-12.81,5.12-12.38-1.89-31.68,5.86-38.42-7.66,14.82,4.76,32.74-8.45,44.82-7.96,11.71.47,6.96,4.26,6.41,10.5Z" fill="#ff4e50"/>
      <path d="M101.66,138.73c9.73.9,14.69,3.97,23.05,7.68-7.76,9.74-22.24.65-32.33.27-4.44-.16-9.07,1.85-13.78,2.29-4.2.39-8.58-.27-12.81,0,.66-.64-.61-4.73,4.27-7.16,6.73-3.35,23.83-3.8,31.59-3.08Z" fill="#ff4e50"/>
      <path d="M165.69,125.92c.38.94.22,7.32-.04,7.6-.79.85-20.14,3.14-23.02,2.65-1.58-.27-15.28-7.42-18-9-3.36-1.95-6.43.43-5.04-6.36,15.62,1.6,30.04,7.37,46.09,5.11Z" fill="#ff4e50"/>
      <path d="M222.04,184.84c-.69.92-1.52,2.08-2.56,2.56-10.64,11.39-22.59,19.92-35.86,25.61-1.97,2.39-5.38,4.95-10.25,7.68-1.2.47-2.86,8.52-6.46,2.55-.38-.62,1.1-3.08.26-4.38-12.63-19.35-5.28-16.37,1.08-36.6,9.9.63,11.4,20.39,23.05,10.25-2.13-2.11-.43-4.67,5.12-7.68,1.04-.66,1.85-2.22,2.56-2.56,2.49-2.81,5.05-4.52,7.68-5.12,2.26-.69,13.36,5.57,15.37,7.68Z" fill="#171a14"/>
      <path d="M219.48,187.4c-4.4,12.54-22.05,21.81-33.3,28.18-3.61,1.27-4.42,1-2.56-2.56,12.42-8.71,21.01-18.82,35.86-25.61Z" fill="#dfdedc"/>
      <path d="M183.62,213.01l2.56,2.56c-5.9,3.34-7.82,3.15-12.81,5.12,1.28-6.33,7.66-5.87,10.25-7.68Z" fill="#ecece8"/>
      <path d="M106.78,243.75c1.87-.61,9.42-6.01,10.22-5.12,4.12,4.63-4.88,6.17-7.66,7.68l-2.56-2.56Z" fill="#ece9e9"/>
      <path d="M283.52,74.7c-5.93-1.04-11.89,3.26-10.25-5.12,4.5-4.7,9.02-4.09-2.55-7.73-1.11-4.22,4.46-1.45,5.18-3.77,2.51-8.13-5.29-5.61-5.22-7.71.08-2.5,5.32-.07,5.31-2.7,0-2.08-6.79-19.06,1.13-19.02,7.36.04,1.11,39.35,6.4,46.05Z" fill="#fff1d4"/>
      <path d="M278.39,84.94c-4.38.06-7.05,2.51-7.68,2.56-4.8.36-18,2.74-15.36-5.11l23.04,2.55Z" fill="#fff1d4"/>
      <path d="M291.19,110.54l-1.26,17.93c-5.3-4.56-7.06-11.15-6.4-17.9l7.66-.03Z" fill="#2e2b29"/>
      <path d="M260.46,20.91c8.8-5.73,22.08-1.17,32.06-2.57l-1.32,2.57c-4.48-1.32-24.27-.31-30.74,0Z" fill="#171a14"/>
      <path d="M532.32,308.54c-4.58-9.97-15.21-26.32-17.9-35.8h0c-1.9-6.68,5.9-12.81,7.16-19.1h0s17.25-29.42,17.25-29.42c-35.69-10.48-72.63-15.46-109.43-21.25-37.84-5.95-77.46-5.45-115.66-4.91-40.81.58-81.48-.42-122.26,1.83-31.64,1.74-63.28,5.62-94.94,7.51,0,0,0,0,0,0-8.07.48-16.14.8-24.21.94-1.63.26-3.26.51-4.9.76.07-.03.14-.05.21-.08-2.4.36-4.8.77-7.21,1.1-1.43.19-2.85.32-4.28.5l-.03.02s.08,0,.12,0c-8.87,1.11-17.71,1.95-26.65,2.5-6.83.43-13.07,2.33-19.54,4.06-2.26.85-4.7,1.44-7.41,1.68-.9.14-1.78.23-2.65.31-.02,1.47,6.28,9.07,7.39,10.94,7.33,12.37,13.71,27.2,21.38,39.25.87,1.37,2.21.85,2.28.96.19.31-3.42,4.43-4.2,5.91-4.1,7.79-6.55,16.41-10.28,24.33-3.59,7.62-8.17,14.65-11.76,22.24,9.61.31,19.23.7,28.84,1.15,9.32-1.29,18.68-2.46,28.05-3.56,10.16-2.64,20.82-3.72,31.36-4.63,18.23-1.58,36.43-3.5,54.66-5.14,26.62-2.4,53.32-3.78,80.04-4.55,5.65-.16,11.3-.3,16.96-.41,7.34-.15,14.68-.26,22.02-.33,2.83-.03,5.67-.05,8.51-.08.12-.19.27-.36.39-.56.06.19.15.37.22.55,11.12-.1,22.28-.18,33.47-.2,3.41,0,6.83,0,10.25.01,34.86.1,69.87,1.05,104.52,4.49,10.37,1.03,20.7,2.29,30.99,3.82,16.84,2.49,33.56,5.66,50.09,9.8.24.06.45.14.68.21,10.16-.37,20.36-.51,30.49-.74,1.12-.5,1.82-.72,1.45-2.26-.43-1.78-4.26-9.28-5.46-11.89ZM96.1,209.35s0,.03,0,.05c-.2,0-.39.02-.59.07l.59-.12Z" fill="#171a14"/>
      <rect x="49.53" y="230.51" width="20.21" height="20.21" fill="#171a14"/>
      <rect x="86" y="215.73" width="58.15" height="27.6" fill="#171a14"/>
      <rect x="76.63" y="232.97" width="201.06" height="53.07" fill="#171a14"/>
      <rect x="119.51" y="210.31" width="161.64" height="37.45" fill="#171a14"/>
      <rect x="330.92" y="205.87" width="78.36" height="63.57" fill="#171a14"/>
      <rect x="380.69" y="222.63" width="119.26" height="44.35" fill="#171a14"/>
      <rect x="404.35" y="211.29" width="27.1" height="32.53" fill="#171a14"/>
      <rect x="376.26" y="254.66" width="98.56" height="32.03" fill="#171a14"/>
      <rect x="417.65" y="232.97" width="80.82" height="61.6" fill="#171a14"/>
      <g>
        <path d="M50.65,287.37c-1.38-14.83-2.75-29.66-4.12-44.5,4.32-.48,6.48-.71,10.8-1.16,3.08,10.13,4.61,15.19,7.65,25.33,1.08-10.56,1.63-15.83,2.76-26.39,4.16-.41,6.25-.62,10.41-1.01,1.66,14.8,3.32,29.6,4.97,44.41-2.8.26-4.2.4-6.99.67-1.24-9.84-2.48-19.67-3.72-29.51-.79,10.03-1.55,20.07-2.28,30.1-2.49.25-3.73.38-6.22.64-2.86-9.74-5.75-19.48-8.67-29.2.83,9.95,1.67,19.9,2.51,29.85-2.84.3-4.26.46-7.1.77Z" fill="#fff1d4"/>
        <path d="M87.42,283.65c1.46-15.09,2.97-30.18,4.53-45.26,4.6-.4,6.89-.6,11.49-.97,4.04,14.61,8.03,29.23,11.97,43.86-3.64.28-5.46.43-9.1.73-.9-3.71-1.36-5.57-2.27-9.28-2.64.22-3.95.33-6.59.56-.3,3.81-.44,5.72-.73,9.53-3.72.32-5.59.49-9.31.83ZM97.85,267.33c1.91-.16,2.87-.25,4.78-.4-1.54-6.87-2.31-10.3-3.86-17.17-.37,7.03-.56,10.54-.92,17.57Z" fill="#fff1d4"/>
        <path d="M132.07,280.72c-3.38.24-6.1-.19-8.16-1.27-2.06-1.08-3.58-2.7-4.56-4.86-.98-2.16-1.58-4.74-1.81-7.75-.49-6.42-.73-9.64-1.22-16.06-.23-3.08-.03-5.76.63-8.04.66-2.28,1.94-4.1,3.86-5.46,1.92-1.36,4.61-2.16,8.07-2.4,3.38-.24,6.06.13,8.03,1.09,1.97.96,3.41,2.39,4.32,4.28.91,1.9,1.44,4.11,1.6,6.64.1,1.54.15,2.31.24,3.85-3.92.25-5.88.38-9.79.64-.12-1.78-.18-2.67-.3-4.46-.06-.88-.16-1.72-.31-2.52-.15-.8-.47-1.45-.95-1.95-.49-.5-1.27-.71-2.36-.64-1.05.07-1.81.4-2.27.99-.47.59-.74,1.3-.81,2.13-.07.83-.08,1.71-.01,2.63.6,8.39.9,12.58,1.49,20.96.07.99.22,1.89.44,2.71.22.81.6,1.45,1.14,1.91.53.46,1.28.66,2.24.59,1.03-.07,1.75-.39,2.16-.95.41-.56.64-1.27.69-2.12.05-.85.05-1.72,0-2.6-.13-1.87-.19-2.81-.32-4.68,3.89-.26,5.84-.39,9.73-.64.1,1.54.15,2.31.24,3.85.16,2.53-.08,4.82-.71,6.87-.63,2.05-1.84,3.71-3.62,4.99-1.78,1.28-4.34,2.03-7.69,2.26Z" fill="#fff1d4"/>
        <path d="M150.28,278.87c-.9-14.87-1.79-29.73-2.69-44.6,4.04-.24,6.06-.36,10.1-.58.7,12.65,1.4,25.3,2.1,37.95,4.12-.23,6.18-.34,10.3-.54.13,2.67.2,4,.34,6.67-8.06.41-12.09.63-20.15,1.11Z" fill="#fff1d4"/>
        <path d="M174.74,277.54c-.72-14.88-1.43-29.75-2.15-44.63,8.22-.4,12.33-.57,20.55-.89.1,2.69.15,4.03.26,6.72-4.16.16-6.25.24-10.41.42.19,4.43.29,6.65.48,11.08,3.16-.14,4.73-.2,7.89-.33.11,2.73.16,4.1.27,6.83-3.15.12-4.72.19-7.86.32.23,5.33.35,8,.58,13.34,4.14-.18,6.22-.26,10.36-.42.1,2.67.15,4,.25,6.67-8.09.31-12.13.48-20.21.87Z" fill="#fff1d4"/>
        <path d="M197.27,276.58c2.28-14.99,4.61-29.97,6.99-44.95,4.61-.15,6.91-.22,11.52-.34,3.23,14.81,6.41,29.63,9.55,44.45-3.65.08-5.47.13-9.12.23-.7-3.76-1.05-5.63-1.76-9.39-2.64.07-3.96.11-6.6.2-.5,3.79-.75,5.69-1.25,9.48-3.73.12-5.6.19-9.33.32ZM208.56,260.86c1.91-.06,2.87-.09,4.79-.14-1.16-6.94-1.74-10.41-2.91-17.35-.76,7-1.13,10.5-1.87,17.5Z" fill="#fff1d4"/>
        <path d="M229.86,275.64c-.31-14.89-.62-29.78-.93-44.67,5.04-.1,7.56-.15,12.59-.22,3.09-.05,5.77.25,8.03.89,2.27.64,4.03,1.81,5.31,3.51,1.27,1.7,1.92,4.11,1.94,7.24.01,1.84-.12,3.48-.41,4.91-.29,1.44-.83,2.68-1.62,3.74-.79,1.05-1.93,1.94-3.41,2.65,2.57,8.62,3.84,12.94,6.35,21.57-4.09.03-6.13.05-10.22.1-2.06-7.98-3.1-11.98-5.21-19.96-1.14.02-1.71.03-2.85.04.13,8.01.19,12.01.32,20.02-3.96.06-5.93.1-9.89.18ZM239.34,249.76c1.12-.02,1.68-.03,2.8-.04,1.42-.02,2.51-.28,3.29-.79.78-.51,1.32-1.23,1.63-2.17.31-.94.45-2.07.44-3.4-.02-1.91-.4-3.4-1.12-4.45-.73-1.06-2.05-1.57-3.96-1.55-1.31.02-1.96.03-3.27.05.08,4.94.12,7.41.2,12.35Z" fill="#fff1d4"/>
        <path d="M264.12,246.21c-.27-1.12-.41-1.69-.68-2.81,1.46-.04,2.39-.52,2.8-1.44.41-.92.61-2.1.61-3.53-1.55,0-2.33,0-3.88.01-.01-3.16-.02-4.73-.03-7.89,3.23-.01,4.85-.02,8.08-.02,0,1.1,0,2.17-.03,3.2-.02,1.03-.05,2.01-.08,2.92-.12,3.16-.63,5.53-1.54,7.12-.92,1.58-2.66,2.39-5.24,2.44Z" fill="#fff1d4"/>
        <path d="M287.49,275.94c-2.8-.02-5.13-.53-7.01-1.53-1.87-1-3.29-2.54-4.25-4.62-.96-2.08-1.49-4.77-1.59-8.08,3.41-.5,5.11-.75,8.52-1.24.03,1.91.19,3.46.5,4.64.31,1.18.75,2.03,1.32,2.55.57.52,1.26.78,2.07.79,1.03,0,1.71-.33,2.03-1.03.32-.7.48-1.43.49-2.2.02-1.84-.41-3.4-1.29-4.67-.88-1.28-2.08-2.56-3.59-3.86-1.55-1.36-2.33-2.03-3.89-3.39-1.71-1.44-3.15-3.07-4.32-4.9-1.17-1.82-1.76-4.08-1.75-6.76,0-3.79,1.15-6.68,3.45-8.68,2.3-2,5.43-2.99,9.39-2.96,2.45.02,4.41.44,5.89,1.27,1.48.82,2.59,1.9,3.35,3.21.75,1.31,1.26,2.7,1.52,4.16.26,1.46.4,2.85.42,4.17-3.46.37-5.2.56-8.66.95-.03-1.32-.1-2.47-.22-3.45-.12-.97-.39-1.73-.8-2.27-.41-.54-1.04-.81-1.91-.82-.94,0-1.63.38-2.06,1.14-.44.77-.66,1.54-.66,2.31-.01,1.65.38,3.01,1.18,4.06.8,1.05,1.84,2.16,3.14,3.31,1.49,1.31,2.23,1.97,3.72,3.29,1.96,1.67,3.6,3.57,4.93,5.68,1.33,2.11,1.97,4.71,1.93,7.8-.03,2.1-.54,3.99-1.52,5.69-.98,1.7-2.35,3.03-4.12,4.01-1.76.97-3.84,1.45-6.23,1.43Z" fill="#fff1d4"/>
        <path d="M318.16,275.75c.34-14.89.69-29.78,1.03-44.67,4.77.11,7.15.17,11.92.31,1.96.06,3.81.26,5.55.61,1.74.35,3.27.96,4.6,1.83,1.33.87,2.35,2.09,3.06,3.64.72,1.55,1.03,3.58.94,6.08-.06,1.8-.39,3.31-.98,4.52-.59,1.21-1.38,2.17-2.4,2.87-1.01.7-2.21,1.16-3.6,1.37,1.74.28,3.2.89,4.36,1.83,1.16.94,2.02,2.18,2.58,3.71.56,1.53.8,3.36.72,5.49-.08,2.32-.46,4.3-1.13,5.95-.67,1.65-1.6,2.99-2.78,4.01-1.18,1.03-2.62,1.77-4.31,2.23-1.69.46-3.63.66-5.8.59-5.5-.16-8.25-.24-13.76-.37ZM328.8,249.21c.78.02,1.18.03,1.96.06,1.53.04,2.69-.15,3.49-.59.8-.44,1.35-1.09,1.66-1.96.31-.87.48-1.93.52-3.18.04-1.18-.15-2.17-.55-2.97-.41-.8-1.03-1.42-1.86-1.85-.83-.43-1.89-.66-3.16-.7-.7-.02-1.05-.03-1.74-.05-.13,4.5-.19,6.75-.32,11.25ZM328.24,269.11c.84.02,1.26.04,2.11.06,2.18.06,3.7-.44,4.57-1.52.87-1.08,1.34-2.68,1.4-4.81.05-1.69-.09-3.04-.43-4.04-.34-1-.93-1.75-1.77-2.24-.84-.49-1.99-.75-3.44-.79-.83-.02-1.24-.04-2.06-.06-.15,5.36-.23,8.04-.38,13.4Z" fill="#fff1d4"/>
        <path d="M350.64,276.76c.58-14.88,1.17-29.76,1.75-44.64,8.22.32,12.33.5,20.55.91-.13,2.69-.2,4.03-.33,6.72-4.16-.21-6.24-.3-10.41-.49-.2,4.43-.29,6.65-.49,11.08,3.16.14,4.73.21,7.89.36-.13,2.73-.2,4.1-.33,6.83-3.14-.15-4.72-.22-7.86-.36-.24,5.33-.35,8-.59,13.34,4.14.18,6.22.28,10.36.48-.13,2.67-.2,4-.33,6.67-8.08-.4-12.12-.58-20.21-.9Z" fill="#fff1d4"/>
        <path d="M373.17,277.77c3.58-14.73,7.21-29.46,10.89-44.17,4.6.25,6.91.38,11.51.66,1.93,15.03,3.81,30.07,5.64,45.12-3.64-.23-5.46-.35-9.1-.57-.37-3.8-.56-5.7-.93-9.5-2.64-.16-3.96-.23-6.6-.38-.83,3.73-1.25,5.6-2.07,9.33-3.73-.21-5.6-.3-9.33-.49ZM385.79,263.09c1.91.11,2.87.16,4.78.28-.55-7.02-.83-10.52-1.39-17.54-1.37,6.91-2.04,10.36-3.39,17.27Z" fill="#fff1d4"/>
        <path d="M417.76,281.19c-3.38-.25-6.01-1.05-7.9-2.41-1.88-1.36-3.16-3.18-3.82-5.46-.66-2.27-.9-4.91-.7-7.92.42-6.43.64-9.64,1.06-16.07.2-3.08.79-5.71,1.76-7.87.97-2.16,2.51-3.79,4.6-4.86,2.09-1.07,4.87-1.49,8.33-1.24,3.38.25,5.98.99,7.8,2.21,1.81,1.23,3.04,2.84,3.67,4.85.63,2.01.85,4.27.65,6.8-.12,1.54-.18,2.31-.3,3.85-3.91-.31-5.87-.46-9.79-.75.13-1.78.2-2.67.33-4.46.07-.88.08-1.73.05-2.54-.03-.81-.26-1.5-.67-2.07-.41-.56-1.16-.89-2.25-.97-1.05-.08-1.85.14-2.39.66-.55.51-.91,1.18-1.1,1.99-.19.82-.32,1.68-.38,2.6-.6,8.39-.89,12.58-1.49,20.96-.07.99-.05,1.9.06,2.74.11.84.39,1.52.86,2.05.46.53,1.17.83,2.13.9,1.03.08,1.79-.14,2.27-.64.48-.5.81-1.17.98-2,.17-.84.29-1.69.36-2.57.14-1.87.21-2.81.35-4.68,3.89.29,5.84.44,9.73.75-.12,1.54-.18,2.31-.3,3.85-.2,2.53-.76,4.76-1.67,6.7-.91,1.94-2.34,3.41-4.29,4.42-1.95,1.01-4.59,1.39-7.93,1.15Z" fill="#fff1d4"/>
        <path d="M448.79,283.69c-3.34-.3-5.93-1.11-7.78-2.44-1.85-1.34-3.11-3.14-3.77-5.41-.67-2.27-.88-4.92-.63-7.97.54-6.62.81-9.93,1.35-16.55.25-3.08.89-5.66,1.93-7.76,1.04-2.09,2.6-3.63,4.69-4.62,2.09-.99,4.84-1.33,8.26-1.03,3.46.31,6.14,1.13,8.04,2.47,1.9,1.34,3.18,3.13,3.84,5.37.66,2.24.84,4.9.54,7.97-.63,6.61-.94,9.92-1.57,16.53-.29,3.04-.96,5.62-2.02,7.73-1.06,2.12-2.62,3.67-4.69,4.66-2.07.99-4.8,1.33-8.18,1.03ZM449.4,276.71c1.03.09,1.81-.1,2.34-.57.52-.47.9-1.1,1.12-1.89.22-.79.37-1.61.44-2.45.77-8.57,1.16-12.85,1.93-21.42.08-.88.08-1.72,0-2.52-.08-.8-.34-1.48-.78-2.04s-1.19-.88-2.23-.97c-.97-.09-1.73.11-2.26.58-.53.47-.91,1.09-1.12,1.87-.22.78-.36,1.6-.44,2.48-.74,8.57-1.11,12.86-1.86,21.43-.07.84-.08,1.67-.02,2.49.06.82.3,1.5.71,2.06.42.55,1.14.87,2.17.97Z" fill="#fff1d4"/>
        <path d="M468.34,284.85c1.46-14.82,2.91-29.64,4.37-44.46,2.84.28,4.25.42,7.09.71,2.87,8.94,4.28,13.41,7.07,22.36.91-8.56,1.36-12.83,2.27-21.39,3.33.35,4.99.53,8.32.9-1.63,14.8-3.27,29.61-4.9,44.41-2.66-.29-3.99-.44-6.66-.72-2.67-9.61-4.02-14.41-6.78-24-.94,9.22-1.42,13.83-2.36,23.05-3.37-.35-5.05-.51-8.42-.84Z" fill="#fff1d4"/>
      </g>
    </g>
  </g>
</svg>