<?xml version="1.0" encoding="UTF-8"?>
<svg id="Layer_2" data-name="Layer 2" xmlns="http://www.w3.org/2000/svg" viewBox="0 0 894.95 868.31">
  <g id="Layer_1-2" data-name="Layer 1">
    <g>
      <g>
        <polygon points="699.61 360.13 635.5 304.61 594.44 259.31 455.18 231.51 385.89 248.01 325.64 268.92 273.56 328.08 73.59 405.35 26.53 451.57 64.25 523.8 59.13 604.32 141.93 595.09 213.46 616.5 363.33 707.04 547.39 694.6 695.56 600.22 752.66 593 834.82 595.13 847.03 559.47 839.57 508.94 870.42 436.23 773.06 384.14 699.61 360.13" fill="#fff1d4"/>
        <g>
          <path d="M880.59,614.23c-3.73-7.05-23.44-40.12-23.06-44.81l18.2-12.68,18.24-16.16c-1.89-4.3-38.9-16.67-45.91-18.22,8.66-20.59,17.51-41.37,27.71-61.26,2.32-4.53,15.89-24.58,16.12-26.1.41-2.69-1.23-2.99-2.95-4.22-4.07-2.92-14.88-9-19.82-11.75-2.32-1.29-7.04-1.53-9.57-3.83-5.39-1.54-13.48,9.06-9.57,13.4-1.64,1.78-5.14,2.89-7.3,4.17-.39.57,1.04,2.8,1.56,3.49-1.87-.28-2.65,1.11-3.83,1.91-5.43,3.7-6.04,6.95-9.57,11.48,4.33.01,9.14,2.68,13.4,1.91-1.25,7.63-3.31,15.02-6.18,22.18l2.35,4.62-11.48-1.89c1.23,3.87,5.95,5.1,9.57,5.72-2.69-.21-4.65-.01-5.9,2.12-17.54-5.97-18.3,6.18-2.55,12.29l-1.11,4.73-19.12-5.73c-4.84,3.97,12.07,7.03,13.38,7.65-1.1,2.79.15,5.2,3.76,7.22-3.15,10.12-3.77,19.19-1.85,27.22l-15.31-1.89c1.75,4.87,10.45,5.32,13.4,7.64-2.82,2.34-1.1,3.06,1.91,3.83l-13.39.02v1.87c2.46-.82,6.5,1.99,7.65,1.93l-1.73,4.03c3.34,2.79,7.88,32.35,6.3,32.96-34.5-9.83-70.03-18.8-105.88-23.89-1.51-.21-3.1.1-4.74.48-1.69.39-3.33,1.02-4.95,1.73-1-.35-1.9-.57-2.71-.68-3.41-1.01-7.7-2.68-10.68-3.15l-2.45-4.26c-19.12-3.55-38.36-5.96-57.73-7.22l-2.97,3.82c-1.75-3.7-3.99-3.7-5.74,0-2.91-3.11-10.88-2.26-15.31-1.91.11-1.4-.7-1.69-1.91-1.91-3.12.53-3.23,1.12-7.56,1.07-8.52-.08-23.51-1.11-31.71-2.96-4.71-1.06-2.79-1.59-2.85-5.76l-1.91,5.75c-21.04-3.2-43.48-3.47-65.05-3.85-2.72-3.96-8.23-5.24-16.53-3.83-24-.71-51.64-1.18-75.47,0-1.07.05-1.6,2.32-1.76,3.83h-53.58l-5.74,1.91c-6.06-4.02-11.57-4.92-19.26-3.82-52.98,4.79-107.78,11.17-160.97,23.3-2.62.6-5.12,1.77-7.64,3-2.54,1.24-4.95,2.73-7.32,4.31-2.21-4.3-6.93-5.07-14.16-2.3-7.57,1.45-23.76,5.15-26.02,11.87-3.99-4.01-6.02-3.51-7.65,1.91-4.5,1.18-9.03,2.71-13.4,3.83-3.65-3.44-9.38-3.62-17.21-.51,1.86-11.38,3.13-22.69,3.81-33.93.3.04,4.54-1.52,5.74-1.91,1.43-.46,7.86-2.83,5.73-3.81-3.06.14-8.01-1.25-9.56,1.89-1.88-.19-3.85.13-5.74,0l6.89-3.86c16.47-2.52,8.97-16.96-4.83-8.62l-5.31-23.96-4.41.08c5.33-1.15,5.53-5.9,0-5.74,1.62-1.2,23.28-9.64,19.13-13.39l-21.04,5.73c1.52-1.55,2.13-3.36,1.83-5.43,18.24-3.27,12.95-18.56-3.32-10.77l-2.34-2.94,7.65-5.72-11.48,1.89c3.6-4.26,1.15-14.11-3.58-17.94,21.2-9.99,44.81-16.26,67.9-20.26.39-1.48,1.28-2.79,2.66-3.91,1.65-.73,1.67-1.37,0-1.91,4.36.1,7.59-1.85,9.57-1.91,2.91,4.51,4.05,5.34,5.74,0,2.82-.57,5.34.16,7.62,2.04,25.44-5.52,51.04-10.81,76.79-15.86l5.53-3.4c.62-.09,1.29.09,1.91,0,3.96-.56,8.18-1.48,11.48-1.91,1.84-.24,3.89.23,5.74,0,.21,0,.42,0,.62,0,3.07.04,7.42.99,8.94-1.91,1.25-.14,2.58.13,3.83,0,16.26-1.75,33.46-3.4,49.75-3.83,2.04.81,3.97,1.53,5.74,0,4.53-3.76,13.01-1.52,19.14-1.91,6.88-.82,12.79.1,17.74,2.77,8.47-.07,16.59-1.63,24.36-4.68v-1.91c9.54.13,19.17-.26,28.7,0,6.36.17,12.78-.1,19.14,0,3.05,1.51,6.42-1.75,7.65-1.91,4.71,1.38,12.75,1.83,17.22,0,9.99,2.71,21.47,3.35,34.45,1.91,9.39-.41,22.3-1.3,30.62,1.91,5.02,1.74,10.19,1.02,15.31,0,6.62.03,16-1.61,21.05,1.91,1.77,1.58,3.71,1.06,5.74,0,5.4.04,13.44-1.55,17.22,1.91,1.73,1.67,3.68,3.42,6.12,3.87,12.38,2.28,25.69,1.07,37.89-.05,1.22,2.05,7.13,3.33,10.41,3.93,19.58,3.58,45.75,7.3,65.44,9.33l19.83.13c13.59-.02,37.89,5.37,52.11,8.17,16.58,3.27,33.57,6.81,49.31,12.88,11.17-11.82,22.62-19.91,34.45-34.44,3.01-4.07,3.43-4.71-1.91-3.83-3.82-3.36-11.88-5.98-16.26-9.57-11.52-9.45-20.28-29.42-38.29-28.85-5.83.18-10.76,2.93-17.07,2.02-13.31-1.91-18.05-20.02-29.81-28.66-1.05-6.03-6.5-9.55-16.34-10.56-7.88-20.12-24.46-41.6-43.62-48.69l-3.19-.07c-7.7,1-13.74,4.17-21.05,5.74-4.7,0-8.86-.82-13.4-1.91-2.69-1.4-4.97-3.66-5.28-3.77-1.92-.72-4.39.22-6.21-.06h-7.65c-3.14.11-2.55-.9-3.83-1.91-4.6-3.65-8.09-12.31-12.41-17.25-15.73-17.96-35.86-36.99-52.65-55.47-4.15-4.57-4.67-6.91-11.48-11.48-.53-.35-.72-2.72-3.15-3.44-15.71-4.67-28.92,11.01-42.77-.38-4.28-10.34-1.13-50.49-10.95-55.07-5.47-2.56-15.3-2.3-21.4-4.43-1.21-1.48-1.49-26.06-2.1-30.44,2.73-8.21,3.99-17.74-3.83-22.96,1.26-5.53-.67-8.97-1.91-13.4,14.26-10.73-21.01-13.37-28.7-5.74-3.79.12-7.62-.29-11.39.1l-7.98,70.46c-7.76,3.66-22.12,2.43-26.07,11.25-3.54,7.91-5.84,31.43-7.9,41.91-.68,3.44.33,7.4-.23,10.23-.4,1.19-.69,2.27-.91,3.24-3.26,8.63-11.26,7.45-20.94,6.17-10.27-1.37-29.34-16.47-34.31-14.99-4.07,1.22-48.2,56.76-54.84,64.9-8.49,8.66-17.42,16.95-26.79,24.88-8.12.11-15.73-11-28.8-6.81-6.6,2.12-24.25,22.3-24.78,29.77-4.66,5.68-11.38,4.57-17.29,10.46-5.9,5.87-8.89,16.23-17.3,20.96-6.19,3.49-10.2,1.79-15.16,3.02-5.27,1.31-11.74,1.92-16.03,4.06-8.02,4.01-19.52,22.81-24.67,26.03-2.06,1.29-6.45.82-9.78,2.65-22.56,12.38-43.57,33.94-66.24,49.54-1.9,1.31-3.82,2.47-5.74,3.83-3.62,2.55-16.58,8.85-17.15,9.65-2.47,3.49,7.25,12.98,9.49,17.14.49,1.11.95,1.47,1.35,1.07-.53,1.68.5,3.26,2.47,2.75.95,1.4,1.36,3.06,1.91,3.83,10.26,14.41,15.34,26.31,22.96,42.1,2.74,5.68,4.85,11.94,7.65,17.22.27.5-.27,1.44,0,1.91,1.01,4.91-2.35,3.93-5.24,5.19-12.75,5.58-26.17,9.9-38.77,15.89-1.43,5.53,3.39,3.05,6.72,5.62,10.4,8.02,19.86,18.37,31.68,24.18L.32,644.83c35.21-9.07,69.35-23.01,105.25-30.6,6.27-1.33,12.66-2.43,19.14-1.91,6.81,4.93,13.6,10.24,20.43,15.68-10.62,6.14-22.46,13.75-32.15,20.19-7.12,4.73-30.23,19.64-34.77,24.6-1.3,1.42-1.92,2.03-1.54,4.17,1.45,1.38,27.61-7.11,32.01-8.08,4.42-.97,17.57.48,15.91-8.06-.18-.91-2.75-.14-3.18-.98.81-.9,1.5-1.84,2.08-2.81,9.9-7.37,19.25-15.43,28.55-23.53,8.52,6.81,17.16,13.68,26.08,20.11,8.12,5.87,32.38,27.55,39.87,29.25,3.92.89,5.73-3.36,8.24-2.78,1.06.24,18.13,10.09,18.69,11.01,1.17,1.92-.45,6.27,2.1,10.34,1.05,1.68,11.62,9.15,13.39,9.53,3.34.71,7.48-4.3,9.55-2.87.41.28,1.06,4.25,2.91,5.77,3.67,3.02,17.73-2.48,13.51-11.6-.96-2.08-3.14-4.1-6.04-6.05,2.26-2.68,4.7-5.73,5.15-6.77.64-1.46.1-2.88-1.08-3.12-1.23-.25-4.91,3.51-7.92,7.56-10.16-5.63-25.04-10.64-31.84-14.98-.3-.19-.62-.4-.96-.62,1.5.84,3.86-.88,6.43-3.41,5.09,3.15,9.38,5.37,10.42,4.38-1.18-3.85-3.08-7.02-5.39-9.78,2.69-2.98,5.15-5.63,6.62-5.91.34-.07.71-.05,1.08.04,1.6,1.01,3.2,2.01,4.8,3.01,2.07,1.7,4.11,3.48,5.63,3.52,13.16,8.2,26.45,16.26,39.84,24.17-5.8.82-9.4,15.03-11.5,18.6-.56.95-1.22,1.86-1.95,2.75-6.18-1.54-11.37.7-10.01,8.37.11.62.64,1.32,1.5,2.09-1.02,2.08-1.51,4.38-1.03,7.08l5.28-1.48c.35-.7.74-1.38,1.15-2.04,7.07,3.91,18.45,8.64,28.78,13.07-8.31,19.02-24.26,48.26-34.58,61.4-1.95,2.48-13.11,13.87-13.37,14.84-.49,1.87.41,3.69,1.01,5.39,3.52,2.41,14.16-8.54,15.51-7.18-3.18,7.15-7.96,13.55-10.92,20.84-3.44,8.49-5.09,18.52-9.73,26.79-.74,4.88,4.31,4.1,7.13.8,8.67-10.13,15.01-25.23,21.68-36.64,2.7-4.62,22.06-32.6,18.92-35.75l-8.32,2.08c2.32-17.51,8.03-4.01,16.4-3.31,2.6.22,3.88-1.58,6.07-1.89,6.24-.86,8.47,5.52,14.61,6.17,4.75.51,12.33-2.68,15.31-2.09,1.05.21,4.65,9.74,11.55,5.17,1.59-1.05,5.94-11.22,5.63-12.78-1.2-6.12-15.31-2.35-20-2.85-7.54-.81-16.46-6.55-23-7.21-5.9-.59-11.35,2.34-17.2,2.12,2.61-11.03,7.16-21.73,10.66-32.71,7.01,3.11,12.74,5.89,14.99,7.88,8.65-1.12-5.47-9.28-8.1-11.1-1.56-1.08-3.57-1.35-5.37-1.85.74-2.64,1.4-5.3,1.93-8,.49-2.5,2.71-12.73-.07-13.59-4.61-1.43-6.35,11.84-7.63,15.81-.6-.71-1.3-1.39-2.17-1.98-4.66-3.16-10.7-3.05-13.99-5.16-2.23-1.43-4.24-6.25-6.98-9.24.3-.4.6-.8.87-1.22,1.97-2.99,2.72-6.33,4.35-9.19,1.09-1.92,6.94-8.22,6.59-11.62,38.03,22.34,76.81,43.45,115.62,62.95,4.36,2.19,13.88,10.78,18.18,10.76,3.67-.02,20.77-10.61,22-14.59,8.1.24,15.95-4.89,23-8.57,11.61-6.05,25.94-14.16,37.13-21.85,1.49,6.48,6.99,13.59,10.73,18.12,2,2.42,10.65,12.39,13.97,9.45-.99-8.13-10.84-12.29-14.42-18.37-2.04-3.47-2.47-9.63-5.51-12.47.92-.64,1.72-1.37,2.08-2.67.62,0,1.31.09,1.91,0,3.54-.51,11.6-7.37,15.31-9.57.19-.11.39-.23.58-.35.04.95.19,1.89.6,2.8.65,1.44,10.03,10.83,15.05,15.97-.88,2.62-.91,6-.92,8.36h1.91c1.49-.66,3-1.3,4.51-1.93,2.98,4.16,6.07,8.87,11.18,10.51,2.53.81,5.27-.69,5.26-3.23-.01-1.93-5.4-6.44-9.64-10.03,7.13-2.82,14.33-5.55,21.22-8.75,1.95-2.68-5.59-8.85-8.6-8.86-.98,0-13.4,5.92-19.76,9.21-.28-.48-.59-.94-.96-1.35-1.89-2.08-9.85-11.92-15.32-15.41,9.64-5.75,19.32-11.59,28.89-17.51-.04.73.24,1.66.96,2.77,5.42,4.24,9.49,10.3,14.09,15.06,1.08,1.12,1.83,2.43,3.66,2.06,2.27-2.56-10.73-19.71-13.81-21.07-.74-.33-1.43-.52-2.05-.59,2.39-1.49,4.79-2.97,7.17-4.47,2.84-1.78,5.22-4.19,7.65-5.74,11.8-7.53,23.48-15.16,35.11-22.84.25.25.5.47.76.63,4.21,2.6,6.42,1.16,3.24-3.24,0,0,0-.01-.01-.02,22.72-15.04,45.27-30.27,68.07-45.34v1.91c-12.05,11.08-21.94,18.79-34.87,28.79-2.16,1.67-4.85,5.75-7.23,7.57-13.36,10.24-18.75,10.11-32.53,24.88-.18.15-.33.3-.48.44-1.73,1.41-4.92,2.54-5.26,5.28,3.19,1.05,5.01-.67,7-1.61.21-.08.43-.17.65-.28,8.13-2.94,13.92-7.53,20.88-10.7,2.89-1.32,5.53-.96,3.99,2.07-.88,1.74-16.72,13-19.77,14.69-3.16,1.76-9.44,4.01-15.97,6.59-6.35-6.48-13.85-11.59-16.28-9.22-3.33,3.25,6.53,9.05,10.54,11.57-7.89,3.39-14.88,7.19-15.62,11.11-.74,3.97,3.25,6.22,5.44,8.34,1.92,1.85,5.53,1.78,6.71,5.8,3.01.86,4.1-3.58,4.77-3.89,6.55-2.98,13.28-4.45,19.21-10.45,4.03-4.08,7.14-13.46,11.44-15.54,3.83-1.85,4.99,3.52,9.57,2.33,2.21-.58,4.04-2.51,5.83-4.38,11.74,11.81,29.19,23.93,40.66,34.9,1.15,1.1,5.2,1.96,2.55,3.64-3.64,2.31-17.56,2.46-17.05,8.82.29,3.61,9.54,8.3,12.66,9.97.89.48.84,2.04,1.37,2.02,2.1-.06,4.66-4.13,7.79-3.16-.41,2.08-5.29,3.8-3.68,6.26,7.51,4.13,48.97,35.69,54.09,34.3.95-.26,1.71-1.47,1.7-2.57-.02-3.46-16.03-15.08-19.33-18.19-3.53-3.32-20.38-19.47-21.32-22.43,3.79-2.12,21.93-7.26,18.28-13.02-.73-1.15-11.41-6.39-13.84-8.08-18.05-12.56-36.11-27.65-55.61-38.24,12.16-6.56,24.55-12.79,35.62-21.68l7.65-1.9-1.89,9.54c2.94.72,1.11-2.67,3.29-3.73,1.6-.78,4.03-1.69,6.12-1.96-2.32,1.68-6.31,3.09-7.43,5.67-1.05,2.43.07,5.41-1.03,7.3-1.25,2.14-14.43,4-11.92,11.35,8,.49,10.98,13.61,17.45,3.5,2.95,6.6,13.52,9.82,16.57,15.09,2.48,4.27,1.04,9.07,4.49,12.74,14.58,7.63,35.13,12.56,48.99,20.86,5.07-2.35-.67-4.77-2.44-6.17-9.67-7.64-20.3-14.08-30.08-21.59,4.85-.6,7.41-1.66,8.37-2.98,9.61,5.01,19.45,5.23,29.23,8.34,7.31,2.33,14.9,7.75,22.71,8.61,4.49.49,6.37-2.55,2.63-4.79-8.16-1.81-15.23-6.54-22.95-9.33-6.82-2.47-13.82-3.36-20.35-5.69-7.37-2.63-13.76-9.01-22-8.15-3.46-1.82-6.93-3.34-9.13-4.18-2.96-1.13-18.33-5.36-24.4-5.91,1.6-3.94,2.27-8.37,5.38-11.58,1.55,3.74,5.11,6.61,10.62,2.33,3.95-3.07-.11-7.97,8.41-3.99-5.23-6.78,11.6-5.92,11.51-13.37h1.87s.31,3.6.31,3.6c1.01.22,1.52-1.74,1.63-1.71,4.24,1.35,8.86,5.49,13.4,7.65,22.17,10.57,6.64-7.38-6.24-10.95-.24-1.28-.93-2.84-1.99-4.52,3.56,2.39,6.69,5.24,10.66,7.04,3.09,1.4,16.86,6.21,19.67,6.44,1.95.16,3.33.26,4.57-1.54.33-1.64-2.65-3.59-3.82-4.49-12.47-9.62-30.27-20.8-47.23-30.73,5.71-3.52,11.15-7.61,16.34-12.26,16.29,5.74,32.98,10.16,50.07,13.25l5.82-2.41c.21.06.44.12.66.18.27.07.54.15.8.2-.1-.03-.2-.05-.3-.08.15.03.3.07.45.1-.05,0-.1-.01-.15-.02,4.64,1.22,9.4,2.12,13.85,3.45-1.32,5.3,1.17,7.18,5.74,3.83,12.54,3.93,20.38,6.04,32.53,11.48,2.6,1.17,6.44,1,8.63,3.81-.27-9.89-9.18-22.71-14.37-32.52ZM208.91,371.2c1.67.74,3.13.72,4.21.16-.47.83-.62,2.07-.38,3.66-3.44-1.81-4.63-.67-1.91,1.91-1.98-.98-4.42-.47-6.82.74,1.75-1.25,3.54-2.47,5.44-3.64l-.53-2.84ZM239.06,368.84c3.58-1.83,8.25-4.47,12.89-7.26-1.61,1.87-2.67,3.83-2.85,5.79-3.18-.27-6.53.23-10.03,1.47ZM267.21,351.59c1.5-1.15,2.54-2.07,2.88-2.64.39-.65.3-1.6.06-2.63.98.58,2.83.06,5-1.06-1.11.82-2.2,1.63-3.33,2.46l.24,2.44c-1.36.24-3.03.74-4.85,1.44ZM304.59,367.38c-5.5-.71-9.78-.1-15.35,2.58,5.06-3,7.64-6.41,7.69-10.23,8.15-1.88,22.31-6.01,30.48-12.41,2.32-1.82,3.97-3.47,3.96-6.72,1.69.69,3,.95,3.86.8-1.7,1.84-2.98,4.57-3.86,6.86-4.35.16-8.54,2.39-12.59,6.71-7.63,2.98-12.36,7.13-14.2,12.43ZM340.95,267.87c6.68,2.04,14.11-4.53,13.4-11.48,2.69,1.36,5.21.02,7.09-2.02-.16,1.27.57,2.51,2.47,3.93-5.64-1.92-6.58.71-3.83,5.74-5.23-.56-6.51,1.22-1.91,3.83-5.55-3.25-10.85-.71-11.48,5.74-1.77.02-3.31-.55-4.61-1.7-3.99,3.67-8.18,6.88-12.55,9.69,5.58-3.97,10.14-8.77,11.42-13.74ZM423.23,218.11c3.5-3.87,2.84-.81,1.19.99.16-.39-.22-.72-1.19-.99ZM423.54,219.86c-.1.06-.2.12-.31.17.12-.06.21-.11.31-.17ZM337.12,292.74c-1.11.45-2.14.92-3.11,1.42.4-.45.8-.92,1.2-1.42h1.91ZM387.58,378.95c.33-.05.72-.08,1.21-.09-.2.15-.66.14-1.21.09ZM391.01,387.67c-.11.2-.21.44-.31.76-.24-.61-.1-.83.31-.76ZM599.44,377.94c.03-.78-.2-1.53-.62-2.19.3.13.61.25.94.38l-.32,1.81ZM608.09,390.45c.95.57,2.47.54,4.59-.11.42.95,1.2,1.61,2.05,1.91-3.66,1.22-8.83,1.83-9.7-1.91,1.86.82,2.99.8,3.06.11ZM779.16,403.73c.85,1.49-.43,2.12-3.83,1.91-.38-1.19-1.2-2.18-2.27-2.99,2.18.85,4.37,1.27,6.1,1.08ZM769.26,400.74c-3.76-1.24-8.34-1.41-11.14-.83,1.44-4.12-1.63-7.5-5.74-5.74-.88-3.18-5.27-3.17-7.65-1.91-1.42-3.77-4.01-6.57-7.15-8.72,2.1.35,3.84.07,5.23-.85l3.11,4.42c5.72-.01,11.06,1.06,16.02,3.24.6,1.36,1.14,1.59,1.62.7-1.21,3.52,1.76,7.2,5.7,9.7ZM562.93,227.68c.43,10.74,8.9,23.33,19.14,26.79.85,7.65,8.53,15.86,15.31,17.22-.51,3.81.12,5.09,1.91,3.83-.8,4.97.71,8.58,5.74,9.57-.87,1.15-1.49,2.21-1.21,2.9,3.37,8.39,13.82,18.1,21.89,24.31-2.38-1.56-4.74-2.18-7.41.03-12.23,10.16,32.48,34.01,40.56,36.55l3.58-2.55c-.3.41.29,1.45,0,1.91,2.61,1.15,5.06,2.65,7.65,3.83.39,5.62,2.48,6.46,5.74,1.91-.57,3.14,1.57,5.97,6.41,8.48,2.36,9.1,8.51,15.84,18.47,20.22,3.92,2.34,7.75,3.62,11.48,3.83-1.13,5.34,9.13,13.71,13.4,9.57.36,3.26,2.91,5.17,7.65,5.74-.64,1.71-2.55,2.99-5.74,3.83-6.32-7.34-18.15-15.14-28.7-15.31-1.47-6.28-10.88-10.5-17.22-11.48,1.88-8.08-14.21-15.16-19.37-9.46-2.57,2.84.07,9.48,4.06,7.54-.55,3.31,4.26,6.67,7.65,5.74,1.89,3.91,7.57,9.18,13.4,9.57-.28,4.21-3.72,1.9-5.74,0-1.29-3.63-3.16-3.85-3.83,0-2.44-3.16-11.44-8.33-15.31-5.74-1.32-2.95-4.4-4.62-7.65-3.83-2.06-5.45-12.81-11.04-19.14-11.48,1.74-6.85-14.11-24.19-21.05-19.14-1.3-1.84-3.86-2.47-7.65-1.91-.64-1.65-1.28-1.65-1.91,0-.67-.12-1.45-1.82-1.91-1.91-7.47-1.56-12.92-1.28-19.19-6.64-8.4-7.19-7.82-20.83-22.29-31.29-10.29-7.45-16-5.46-25-9.45-4.5-1.99-10.32-11.34-15.81-10.02-.93,3.14-2.67,4.51-5.74,5.74-.72-.52-3.03-.53-4.78-1.84-4.84-3.62-13.71-13.73-19.17-15.35-2.77-.82-3.31.23-2.86,2.86.4,2.35,22.05,24.38,25.9,27.69,19.38,16.65,43.29,37.97,64.06,51.71,1.67,2.16,5.28,4.96,7.65,3.83.86,3.74,4.26,6.09,7.65,3.83-.32,1.36.03,2.6,1.02,3.72-1.92-.37-3.89.13-4.85,2.02-6.53-7.05-12.9-10.24-19.14-9.57-6.21-2.88-28.54-11.25-32.99-15.27-8.6-7.79-5.74-16.08-18.68-24.91-5.83-3.97-11.04-5.02-15.31-7.65-6.32-3.9-7.97-11.96-14.35-17.22-5.1-4.2-17.76-11.8-23.92-15.31-2.36-1.35-16.16-8.75-17.21-7.65l5.72,15.29-9.55-1.9c-2.67,2.67,13.04,15.31,15.3,17.21,3.58,2.57,2.3,3.21-3.83,1.91-6.61-2.22-36.58-23.22-32.17-3.34,3.88,17.5,33.91,16.78,36.75,28.15,2.64,10.55-1.58,8.46,8.81,19.21,1.05,2.69,3.03,4.91,5.74,5.74,1.95,5.3,11.53,12.25,17.22,9.57,1.35,5.99.1,7.63-5.74,5.74-1.53-7.57-16.27-11.87-22.96-13.4l-.54-4.85c-6.82-1.8-13.02-4.65-18.6-8.54-.61-.17-1.37.19-1.91,0,.56-3.78-2.74-5.58-3.83-7.65-.66-1.26-1.06-2.41-1.91-3.83-2.49-4.13-1.98-11.49-9.57-9.55l5.74,11.46c-.65-.01-1.39.13-1.91,0-4.82-1.19-12.99-10.45-21.05-13.4-6.12-2-8.84,6.1-5.78,10.59-7.2-1.39-17.77,1.01-20.31,6.56l-.25,8.55c-9.36,4.84-18.54,9.44-27.55,13.79l.32,2.61c-2.31.27-4.69-.17-7.15-1.32-9.39,6.37-16.57,8.09-21.55,5.15,4.07-.59,7.74-2.29,11.48-3.83l3.83-5.74,22.95-18.19c-2.69-2.42-9.22,1.22-11.47,2.88-3.08,2.27-8.27,10.73-11.48,13.4-1.72,1.43-3.91,2.5-5.74,3.83-2.26,1.64-9.41,6.48-11.48,7.65-2.14.22-2.78-1.7-1.91-5.74,3.36,0,4.67-3.38,5.72-6.18,7.84,1.97,26.73-19.17,13.42-18.69-2.53-1.88-4.68-1.59-6.46-.26.14-.78-.23-1.97-1.19-3.56-1.58-1.56-2.85-3.47-3.83-5.74,3.1.89,8.04-.56,5.74-3.83,11.13-1.37,22.19-8.8,28.65-18.04,9.46.13,17.06-2.74,22.81-8.61l17.28-17.68c13.92,6.96,54.39-15,23.67-21.95-2.23-13.46-18.48-10.09-24.16-1.28l.66-1.29-5.75-1.94c8.34.43,14.89-4.1,19.67-13.58l3.75-1.85c14.35,14.32,25.07,15.18,44.43,15.14,3.51,1.86,6.41,2.59,8.69,2.2-3.58,10.22,9.39,17.84,19.25,13.77,6.93,6.21,14.66,10.38,23.2,12.5l3.47-3.31c.99-2.32.1-3.27-1.91-1.91l1.91-1.91c1.78,2.58,4.97,4.49,9.57,5.74-2.38,5.66,10.73,14.08,13.4,7.65l1.17,1.49,6.48-1.49c-.66,5.82,13.99,17.18,19.14,13.4,2.63,1.65.59,3.41,7.65,3.83l-3.83-7.65c.65-1.46,1.09-3.06.57-4.64-1.04-3.17-15.36-11.36-19.71-12.59.63,0,1.28-.04,1.91,0,1.4-2.94-1.23-5.8-1.81-7.32-.03-.11-.06-.22-.1-.34,1.63-.8,1.67-1.44,0-1.91-.02-1.26-.65-1.9-1.91-1.91,1.15-5.3-.27-7.77-5.74-5.74-1.13-1.4-1.6-3.26-3.83-3.83,5.78-.13,6.73-7.1,1.91-9.57-1.06-4.11-2.84-8.54-7.65-7.65l.86-4.48c-14.11-11.16-2.56-7.19,4.32,1.06l4.39-.41c-3.48,4.69.03,8.51,3.83,3.83,4.6-1.82,5.99-6.47,1.91-9.57,3.7.41,4.34-.22,1.91-1.91,1.23-1.88,1.98-3.82,1.94-5.48,1.03.8,2.35.93,3.8-.26ZM555.27,283.18c-6.98-2.82-6.98-4.73,0-5.74-.29,1.76.2,3.9,0,5.74ZM557.18,221.94c-.17.86-.13,1.79.06,2.67-.53-.33-1.18-.59-1.98-.76-.14-1.77-.43-3.39-.84-4.9.74.63,1.67,1.04,2.75,1.08-1.68.78-1.72,1.42,0,1.91ZM543.79,197.06c-.46,5.23,7.13,11.14,11.48,13.4-1.75.74-2.6,2.21-2.74,3.79-.83-1.43-1.82-2.7-3.01-3.79,0-5.58-5.36-6.78-10.01-7.73-.46-.09-3.13-.03-6.76.11,4.44-1.18,8.35-3.04,11.03-5.77ZM510.76,204.04c-1.94.14-3.35.25-3.87.33-.47.07-.89.21-1.28.41l1.42-1.31c1.17.22,2.43.41,3.73.57ZM389.64,192.06c1.89-13.61,3.52-27.25,4.89-40.92l3.97-6.86c7.07-.4,12.76-1.94,17.08-4.62,24.73.92,49.37,2.97,73.9,6.15l-1.41,3.64c4.38,31.4,8.35,62.65,11.93,93.75l-4.05-.21c-2.14,0-3.42,2.56-3.83,7.65-1.36-3.68-3.27-6.23-5.74-7.65-2.43,3.48-4.98,4.76-7.65,3.83,4.11-9.99-7.62-11.75-14.88-5.83-7.61-2.26-14.13-2.86-19.57-1.83.52-6.08-8.99-12.12-11.48-5.74-3.94-10.04,1.5-19.79,0-30.62,6.24-18.9,5.79-39.52,5.74-59.32-6.3,1.63-12.78,2.38-19.14,3.83-2.27-1.14-4.47-.74-3.83,1.91-2.5,3.08-2.83,9.46-1.91,13.4-3.79,5.15-6.87,17.09-1.91,21.05-.72,4.6-.08,6.51,1.91,5.74.81-.39,1.48-1.06,2.02-1.9-.63,2.45-.58,5.17-.11,7.64-2.6.31-3.89,3.99-1.91,5.74.7.99,1.34,1.02,1.91,0,3.76,2.34,4.31.07,3.83-3.83,1.91-1.12,2.55.79,1.91,5.74-5.66,1.01-9.2,12.84-3.83,15.31-4.16,1.98-7.35,2.62-9.57,1.91.69-3.24.41-4.33-1.91-1.91-.73-1.65-1.37-1.67-1.91,0-4.43.05-7.81,9.68-6.48,14.53-1.88-1.03-3.84-.39-5.01,2.7-.27-3.91-.94-5.03-3.83-1.91-2.13-1-3.07-.07-1.91,1.91l-3.51-.61c.53-4.97.42-9.87-.32-14.7,5.05-3.06,2.97-8.75,0-11.48,5.13-2.72,6.44-7.34,1.91-11.48l4.68-5.01ZM417.49,177.93c1.48-1.82,2.12-.54,1.91,3.83-1,.71-1.79,1.59-2.4,2.59.57-2.17.7-4.57.49-6.41ZM331.38,204.72c-6.52-2.45,1.49-3.86,5.74-3.83.31,6.25,14.53,10.57,20.56,11.63,4.26.75,12.31,1.59,17.36-.27-.1.61-.14,1.27-.12,1.98-5.69-.51-16.51.56-14.84,7.71-2.39-4.96-8.06-3.74-7.65,1.91-1.39-1.41-2.2-5.08-3.83-5.74-1.74-5.39-4.87-5.6-5.74,0-2.52.51-3.96,2.31-5.74,3.83-5.31-3.39-10.41,5.69-7.65,9.57-1.05-.67-2.07-.76-2.87-.48.4-1.04.21-2.26-.95-3.34,5.86-2.06,20.64-27.9,5.74-22.96ZM324.98,232.85c-.15.75.02,1.62.65,2.49l-2.43-.23c-.8,1.26-1.64,2.48-2.49,3.7.9-1.89,1.38-3.74,1.09-5.38,1.16.21,2.28-.05,3.17-.58ZM310.82,251.04c-4.9,5.25-10.33,10.03-16.29,14.35,4.97-5.2,10.39-9.96,16.29-14.35ZM280.87,281.78c.24-.5-.34-1.41-1.16-2.43l2.64.89c1.11-1.6,2.26-3.15,3.43-4.68-1.76,2.8-2.88,5.57-2.25,7.62l-3.16-.18c-5.58,6.08-12.18,10.61-19.8,13.57,5.3-2.49,17.91-9.9,20.29-14.8ZM243.35,300.4c.5-1.62.29-2.96-.56-4.05.65.18,1.26.17,1.72-.16.19.13.43.26.76.38-.2,1.38-.05,2.55.36,3.4-.61-.07-1.37.04-2.27.43ZM159.33,389.36l-.18-2.85c4.91,3.17,11.28-2.25,9.57-7.65,11.39-3.29,22.32-7.85,31.59-15.36l.94-5.69c6,2.29,10.29-4.41,11.48-9.57,3.59-1.18,3.61-2.9,0-3.83,7.2-6.27,15.06-10.73,23.59-13.38l1.28-3.85c3.76,2.9,7.53,1.09,5.74-3.83,2.18-1.39,5.98-4.02,7.65-5.74,5.5-1.94,10.09-4.84,5.74-9.57-1.34-4.45-5.67-4.98-5.74,0-.8-.88-1.75-1.32-2.64-1.4-.02-1.24-1.03-2.35-3.1-2.42,1.35-.95,1.91-1.99,1.88-2.82,1.02.37,2.37.1,3.86-1.01,3.95,5.3,10.97,7.85,21.05,7.65.64,1.64,1.28,1.64,1.91,0-.11,8.35,3.08,10.9,9.57,7.65.98,1.28,2.21,2.14,3.79,2.47,1.56.32,25.88-13.71,24.91-17.78,2.58-.62,6.67.43,9.57,0,1.74.07,3.44-.23,5.12-.9-1.69,1.98-2.76,4.2-3.2,6.64-5.22,1.11-16.9,9.31-15.31,15.31-2.84.17-5.18.77-7.65,1.91-4.38-1.85-5.66.07-3.83,5.74-3.77,2.81-7.63,5.68-11.57,8.6,2.65-2.52,4.51-4.88,4.34-5.94-.33-2.01-2.92-5.16-4.25-2.66-8.23-.42-16.61,3.01-25.13,10.29-4.86,1.03-7.83,2.45-9.32,6.93-1.37-1.36-2.9-1.87-4.57-1.12-6.26,2.82-17.14,12.27-22.11,17.38-.5.51-.39,1.61-.11,2.88-3.92-2.38-7.65,1.4-5.74,5.74-1.68-1.02-3.1-1.29-4.12-.92.78-1.14.97-2.86.3-4.82,1.83-3.01.94-3.63-1.91-1.91-7.55,4.61-15.44,8.7-22.96,13.4-3.01,1.88-6.35,6.85-7.65,7.65-6.9-3.93-20,5.87-22.96,11.48-4.08-2.16-4.28-5.17.18-6.72ZM115.14,422.87c1.07,1.57,2.34,2.85,3.83,3.83-4.06-2.11-5.34-3.39-3.83-3.83ZM136.19,422.87c-.91.29-1.81.65-2.71,1.05,1.1-.85,2.07-1.82,2.71-2.96.53-.2.88-.41,1.07-.61.22.77-.16,1.62-1.07,2.53ZM109.99,657.19c.3.98-.92,2.71-2.38,4.13-.48.39-.93.78-1.35,1.17-1.13.85-2.16,1.33-2.51.94-1.62-2.82,5.45-7.01,6.24-6.24ZM289.81,840.11c-1.23-1.34,3.8-8.91,5.2-7.28,1.67,2.5-3.81,8.79-5.2,7.28ZM700.74,568.28s0,0,0,.01h-.03s.03-.01.03-.01ZM248.55,663.14c-2.05-1.65-4.19-3.22-6.33-4.8,2.88-.16,5.83-.41,8.38-.12-.21.88-1.02,2.7-2.05,4.91ZM232.2,588.41l12.77,13.72c1.58.4,2.94-.08,4.12-1.29-.03,1.11.01,2.21.31,3.22.16.53.66.93,1.42,1.22-1.98.8-1.94,2.05-1.73,5.12-3.82.5-7.73,3.52-11.73,9.06-4.68-7.07-12.64-11.24-23.9-12.5,13.11-1.81,19.35-7.99,18.74-18.55ZM208.91,631.45c-.5-.35-.96-.68-1.42-1,.46.3.93.63,1.42,1l1.91-1.91c10.52,7.14,21.17,14.2,31.93,21.18-2.96.42-6.2.89-7.91,1.93-8.89-7.12-17.47-14.82-25.93-21.2ZM243.31,678.01c.09.09.2.16.3.23-3.45-2.29-8.33-5.91-10.87-8.42-1.61-1.59-5.42-5.22-2.78-7.75,2.16.82,8.47,5.22,14.82,9.4-1.32,3.19-2.15,5.85-1.47,6.54ZM254.76,661.34c-.13-.12.41-.97,1.24-2.09.45.29.9.57,1.35.86-1.05.92-2.14,1.65-2.59,1.23ZM448.11,757.75c.82-1.61,1.01-2.72.73-3.18.3-.21.58-.44.85-.69.22.8.93,1.51,2.25,1.95-1.23,2.05-2.51,2.69-3.83,1.91ZM509.34,698.43c-2.9-1.64-9.04-.03-11.48,1.91-4.7.22-10.33,2.1-7.65,7.65-4.54-2.2-9.59.23-9.57,5.74-2.48-2.49-7.32.81-7.65,3.83-5.88-3.72-8.44-3.08-7.65,1.91-1.89-.81-3.17.47-3.83,3.83-2.73-3.15-10.07-2.68-11.48,1.91-3.09-4-7.55-6.55-13.4-7.65-.88-5.62-4.3-6.64-7.65-1.91-.15-7.29-12.31-12.89-19.14-11.48-1.58-3.13-4.29-5.53-8.11-7.21,6.72.86,13.61-1.15,20.67-6.06,6.9.39,12.92-.29,18.06-2.04.86,7.59,15.97,6.81,21.05,5.74-.18,5.24.22,5.53,5.74,3.83,4.31-.75,9.52-6.85,15.31-5.74v-1.91c1.67,7.16,13.84,2.46,13.4-3.83,1.95,4.56,8.27,5.47,11.48,1.91l2.13,4.2c1.78-.62,2.91.45,3.37,3.18-.55-.77-1.72-.07-3.58,2.19ZM582.02,673.52s.02.02.04.03c-.01,0-.03-.01-.04-.03ZM595.46,660.16c-.72-1.6-1.36-1.63-1.91,0-1.11-8.54-1.54-17.2-1.31-25.99-8.31-7.75-11.32,19.85-6.51,23.71l-4.1-1.4c-11.42.24-22.76,1.46-34.01,3.68-1.2-1.39-2.56-1.42-3.83,0v-1.91c-7.64.04-15.33-.03-22.96,0-1.15-1.09-2.35-2.11-3.68-2.91-7.24-4.35-93.97-7.4-101.51-3.56-1.39.7-2.66,1.64-3.89,2.65-3.31-5.01-6.73-5.72-9.57,0-5.26-1.75-9.64-1.76-13.14-.05-1.5-1.52-3.01-2.72-4.59-2.81-15.67-.85-38.53,1.84-53.08,6.68-6.01-2.9-12.55-3.72-19.63-2.48-1.51-5.49-3.9-8.49-7.16-9v-24.88c5.49-1.3,5.74-11.35,0-11.48-1.08-3.66-2.75-3.66-3.83,0-4.05.33-7-.89-8.85-3.65-1.21-.3-15.65-1.12-26.86-1.58,4.45-.63,8.61-1.53,10.53-2.2,8.54,1.3,14.38-.05,17.52-4.05,6.37,6.48,13.7,1.72,14.72-7.33-4.32-11.41-8.61-27.42,10.16-25.2,3.32,4.2,10.33,3.41,11.48-1.91h3.83l21.05-1.91c2.72,2.36,6.56,1.71,9.57,0l11.48-1.91c.91,1.64,1.56,1.71,1.91,0,3.18,1.54,6.44,1.54,9.57,0,3.12,2.82,6.76,4.33,10.92,3.63,13.29,1.14,34.88-.28,46.49-5.54h3.83c2.41,3.72,5.24,3.72,7.65,0,1.33,0,8.58,1.88,11.48,1.91,1.26,3.02,8.31,3.02,9.57,0,1.91.04,3.83-.05,5.74,0,3.26.01,5.9,1.4,7.97,4,29.04-.49,57.71,1.09,86.01,4.74-.01,4.37,1.83,6.56,5.52,6.57,2.79.41,5.25-1.49,7.37-5.7,6.22,1.85,10.78,1.2,13.68-1.95l-2.81,3.49c-.34,2.29,1.15,28.15,2.17,29.23,1.24,1.31,2.92,1.94,4.67,2.19,9.97-2.54,16.92-1.42,20.85,3.36-7.37.43-14.84.98-22.44,1.65l-2.44,4.09c-2.54,1.58-3.5,3.93,0,3.83.73,1.65,1.37,1.67,1.91,0-5.24,14.31-5.24,27.71,0,40.19-.35.2-.62.38-.83.55-1.03-1.13-2.03-.05-3,3.28-2.36-4.68-4.07-5.13-5.74,0ZM655.28,616.5l-4.56-1.35c-6.35-8.6-12.01-11.46-16.99-8.57,5.54-4.93,12.81-10.43,21.8-16.52,1.61,6.61,8.23,16.6,14.56,8.86,2.78.91,4.35,1.86,7.65,1.91-.46,2.08-.26,3.53.29,4.19-8.36-.67-19.21,4.56-22.76,11.47ZM683.48,606.58c-1.18-.67-2.52-1.11-3.95-1.36.63-.35,1.34-1.14,2.04-2.47,1.07.59,2.07,1.2,3.01,1.82-.56.26-1,.92-1.1,2.01ZM756.18,640.06c0,.3,0,.62.02.96h-1.91c-1.4-4.45-4.27-6.34-8.58-6.14,1.48-.26,2.78-.61,3.91-1.04l6.56,6.21ZM752,656.03c-.3.48-.7.92-1.17,1.33-.05-1.89-.86-4.26-2.75-7.35-1.16-1.89-2.21-3.17-3.17-3.98.07-1.12.17-1.94,3.62-1.18-2.13,5.32,6.52,6.21,3.47,11.18Z" fill="#171a14"/>
          <path d="M209.03,726.97c2.74.54,5.87.4,6.91,1.12,1.18.82.76,3.45,1,3.68,2.3,2.17,13.71-9.02,13.42-10.76-1.12-2.27-16.97-10.06-17.99-9.87-1.91.36-5.59,5.4-7.15,9.23-8.03,3.02-18.78,12.26-17.35,17.23,2.44,8.47,15.97-1.73,21.16-10.63Z" fill="#171a14"/>
          <path d="M688.9,720.94c.66-.69,1.13-1.26,1.32-1.66,1.76-3.58-2.46-6.86-5.67-7.89-7.27-2.32-14.69,9.99-19.9,13.57-1.85,1.27-9.89,4.31-10.21,4.88-1.56,2.74,7.04,9.6,10.28,8.82,2.35-.57,10.65-6.38,17.17-11.59,4.51,4.59,12.22,11.39,14.1,11.6,13.03,1.45,2.21-11.38-7.09-17.73Z" fill="#171a14"/>
          <path d="M176.38,717.56h3.81c.59-2.64-1.03-5.09-3.8-5.73v5.73Z" fill="#171a14"/>
          <path d="M93.13,233.31c1.37,2.98-5.43,15.96-2.56,20.93,1.12.81,2.55.02,3.53.23,8.69-9.65,16.33-10.99,22.9-4.03l1.97-1.71c20.23,12.69,3.02-11.65,4.19-17.95.55-2.93,4.13-3.6,5.38-5.02,5.92-1.04,8.47-3.6,7.65-7.65.19-1,2.66-3.34,1.91-3.81-5.91-1.05-18.29,1.87-22.99-.95-3.03-1.81-2.62-6.43-3.8-8.64-5.25-9.86-7.5-18.15-11.48-3.83-3.04,10.94,2,14.05-11.48,15.31-.87-.87-1.54-.97-1.91,0l-11.47,4.76c3.09,4.44,16.44,8.59,18.16,12.35Z" fill="#171a14"/>
          <path d="M658.75,204.06c1.05,4.57-2.91,10.98-2.03,15.96,4.59-1.34,9.57-7.52,14.33-7.54,5.2-.02,7.46,5.87,12.43,5.62-3.37-13.3-1.32-15.59,7.66-24.85-21.98,4.96-15.59-9.84-19.15-13.42-3.57-3.59-6.83,10.76-10.69,13.21-3.75,2.37-8.04,2.24-12.24,2.11-1.62,6.19,9.11,6.33,9.7,8.9Z" fill="#171a14"/>
          <path d="M10.06,167.23c6.33,4.64,20.28,13.31,27.18,16.82,4.97,2.53,8.92,4.3,14.75,3.44-1-1.4-1.3-4.91-3.13-7.14-3.79-4.61-34.47-16.18-42.8-19.65-3.9,1.16,3.18,5.93,4,6.53Z" fill="#171a14"/>
          <path d="M182.12,66.94c-6.25-2.06-6.94-11.47-13.39-11.47,1.75,7.66-1.84,6.96-5.75,11.45l11.48,5.76c3.97-1.91,4.85-.57,7.65-5.74Z" fill="#171a14"/>
          <path d="M214.65,145.4c1.97,2.63,3.54,5.07,5.74,7.65l3.83-5.74c-1.29-1.42-2.55-2.51-3.83-3.83-4.36-4.51-9.02-7.43-13.4-11.48-1.48-1.37-2.58-4.48-4.79-5.73l-.97.97,5.76,6.68c.18,5.56,5.15,8.15,7.65,11.48Z" fill="#171a14"/>
          <path d="M140,294.68l-11.47-1.92c1.14,4.45,9.78,7.44,11.47,1.92Z" fill="#171a14"/>
          <path d="M73.04,292.74l-1.88.95c.9,1.48,2.37,2.09,3.79,2.87l7.64-.95c-1.7-3.92-8.2-2.08-9.56-2.88Z" fill="#171a14"/>
          <path d="M67.3,195.15c2.35,1.26,5.46,3.97,7.65,5.74,8.59-4.02-6.74-5.09-7.65-5.74Z" fill="#171a14"/>
          <path d="M109.4,285.09c1.72,2.7,7.26,5.48,9.56,2.88l-3.82-2.88c-1.9-.11-3.83.08-5.74,0Z" fill="#171a14"/>
          <path d="M67.3,195.15c-.87-.62,2.52-2.87-3.83-3.83-1.63-3.1-6.5-1.8-9.57-1.91,2.86,2.19,3.25,1.29,5.74,1.91,1.71,3.22,5.62,2.74,7.65,3.83Z" fill="#171a14"/>
          <path d="M92.18,281.26c.64.01,1.28,0,1.91,0l-1.91-3.83c-.63-.08-1.29.08-1.91,0-8.27-1.02-20.94-10.65-28.67-14.39l-40.22-8.55c5.15,8.7,18.52,9.24,26.66,12.55,3.84,1.56,7.32,6.13,11.55,7.58,7.46,2.55,20.56,3.52,28.77,4.72v1.91c1.11,1.39,2.38.91,3.83,0Z" fill="#171a14"/>
          <path d="M761.94,248.73c2.54.09,5.12-.14,7.65,0,2.99-.07,8.28-1.49,9.57-3.83,1.01-.46,3.11-1.45,3.83-1.91,2.98.66,6.28-.95,5.23-2.68.31.19.63.35.96.43,2.02.48,31.91-19.74,34-22.62,1.17-1.28,2.88-2.41,3.83-3.83-1.4-3.65-3.3-3.76-3.83,0-6.02.53-11.51,3.58-17.22,5.74-3.84-1.02-8.95.97-11.48,3.83-1.81.68-3.77,2.5-7.65,3.83-.92.41-1.31.78-1.21,1.13-1.88-.6-4.15.82-2.62,2.69-.58.67-.36,3.63-2.73,5.79-3.67,3.34-8.3,4.01-12.57,5.69-3.3.2-8.95,3.14-5.74,5.74Z" fill="#171a14"/>
          <path d="M840.4,290.83c-.41-2.41,3.03-1.57,3.83-1.91,3.16,1.27,4.24.49,1.91-1.91.2-1.2-.3-2.84,0-3.83-.18-2.58-4.31-3.96-5.74-1.91-4.58,1.05-6.34,3.84-7.65,7.65.78,2.6,5.89,3.64,7.65,1.91Z" fill="#171a14"/>
          <path d="M763.85,273.63l-7.65-.02c-.41.92-2.71,1.58-3.83,1.91,3.7.83,9.64,3.94,11.47-1.89Z" fill="#171a14"/>
          <path d="M733.24,265.95c2.74-1.14,3.72-2.48,5.74-3.83.21-.09.39-.18.55-.27,2.28-.92,7.8-1.4,4.25-5.45-1.61.92-3.4,3.1-4.8,3.81-2.73,1.4-4.47,1.97-7.65,3.83-1.55.91-5.52.21-5.74,3.81,3.06.62,5.1-.84,7.65-1.89Z" fill="#171a14"/>
          <path d="M561.01,264.04c.04.13.7-.38,1.91,1.91,4.19,7.91,12.44,16.36,19.14,22.96.25.24,2.33-.42,3.26.5,3.57,3.51,6.15,10.59,12.05,12.9,4.09,6.74,4.84,10.41,15.3,9.56.75-4.26-3.4-5.19-5.73-7.64.69-2.86.3-3.92-1.91-1.91,3.37-3.81-.29-7.15-3.83-3.83,3.38-3.64.57-7.25-3.83-5.74.72-4.12-1.22-5.69-3.19-2.95l1.58-2.56c-3.02-3-5.68-6.27-7.96-9.79,1.66-.74,1.69-1.38,0-1.91-.49-1.75-1.65-2.97-1.91-3.83,2.11-.3,2.11-1.57,0-3.83-1.73-1.29-3.62-2.08-5.74-3.83-3.59-2.96-12.59-8.36-15.31-13.4.18,2-.65,2.63-1.91,3.83-3.6,3.41-4.5,2.01-1.91,9.57Z" fill="#171a14"/>
          <path d="M599.29,326.22c5.76,9.38,13.82,14.46,22.95,20.1,4.54,1.44,1.47,2.01,7.65,1.91-1.99-7.26-21.57-21.72-27.73-22.99-1.06-.22-3.16-.47-2.88.98Z" fill="#171a14"/>
          <path d="M237.19,748.45c7.27-8.24,17.94-17.03,24.46-25.53,3.07-4,6.21-10.46-1.17-6.38-22.74,12.58-54.77,46.28-74.81,64.74-2.4,2.22-10.38,6.04-9.38,9.34.9,2.94,19.33,1.93,22.9,4.18-12.16,12.82-24.13,26.17-34.93,40.06l-.47,4.2c3.64.6,5.89-1.49,8.67-3.3,17.27-11.22,33.25-24.46,49.15-37.29,3.17-2.56,14.27-8.76,15.66-11.48.75-1.48.35-1.54-.51-2.65-3.37-4.34-19.02-2.58-24.02-7.24,5.19-5.63,11.22-11.4,16.15-17.18,3.03-3.55,5.34-8.12,8.31-11.48ZM208.56,795.33c-1.66.7-5.18-4.33-5.18-4.68,0-.64,2.29-2.11,3.08-1.55.27.19,2.41,5.17,2.1,6.24Z" fill="#171a14"/>
          <path d="M617.52,753.91c-12.62,3.95-23.08,7.63-31.43,18.51-.9.36-.22-1.45-.73-1.78-1.24-.81-8.5-.42-10.47-.05-5.66,1.05-11.99,7.58-15.96,8.08-3.99.5-8.19-2.14-11.94-1.62-6.3.88-9.41,7.24-17.4,7.6-4.6.21-9.65-2.01-14.62-1.18-8.51,1.42-13.97,6.97-7.99,14.96,4.56,6.09,10.87-.16,16.73-.93,5.25-.69,10.58.4,16.11-.55,5.14-.89,10.48-5.42,14.11-5.78,3.38-.33,4.82,1.81,7.28,2.08,7.03.77,7.69-6.93,12.68-8.13,4.52-1.09,6.64,4.24,12.8-.67,2.27-1.81,3.29-5.46,6.14-6.39,3.4-1.11,5.79.85,9.45.2,6.06-1.08,7.46-6.06,11.73-8.14,3.84-1.87,13.28-1.38,14.86-3.91,1.91-3.07-8.6-12.54-11.33-12.29Z" fill="#171a14"/>
          <path d="M170.96,688.47c1.5,3.39-4.55,10.59,4.91,9.11,3.2-.5,12-5.92,11.08-9.47-.68-2.61-5.83-4.55-7.07-6.56-1.72-2.78-1.16-6.74-3.82-10.76-2.98-4.49-9.07-6.96-11.91-11-2.47-3.52-3.36-10.81-8.85-11.05-2.35-.11-7.33,2.25-8.33,4.27-3.01,6.09,3.02,8.21,5.56,12.16,2.46,3.84,2.65,8.65,5.37,12.34,2.79,3.78,11.23,6.83,13.07,10.97Z" fill="#171a14"/>
          <path d="M297.02,761.61c-.89-2.75-6.21-1.35-8.73-1.74-5.35-.83-7.88-7.42-12.31-10.61,0-.35-.03-.71-.11-1.07h-1.75c-.31-.13-.63-.26-.96-.35-2.56-.73-3.99.55-5.58.31-1.49-.23-3.3-2.43-5.55-2.55-3.87-.21-13.82,7.69-9.46,11.99l36.76,16.93c2.3-.07,8.46-10.55,7.69-12.91Z" fill="#171a14"/>
          <path d="M549.13,836.49c-4.57-2.21-2.19-15.65-11.46-13.04-1.52,4.27,3.55,12.56,2.7,15.66-1.22,4.44-11.42,5.01-9.98,9.82,1.05,3.52,15.67-1.84,14.59,8.88l4.13-1.57c-1.51,2.81-6.6,6.15-2.04,8.4,7.72,3.8,3.41-13.27,4.36-16.5,1.28-4.36,12.19-5.81,11.24-10.6-.75-3.77-10.56.39-13.54-1.05Z" fill="#171a14"/>
          <path d="M121.04,712.53c-1.23.79-1.5,2.51-1.85,2.74-.84.52-13.11,2.62-16.84,4.57-4.94,2.59-11.24,9.62-15.81,13.35-1.67,1.36-14.93,8.62-11.95,11.47,4.18,4,26.37-17.62,31.56-19.98,5.33-2.43,11.76-2.55,17.32-5.6,2.26-1.24,18.31-13.5,15.69-16.07-6.72.24-12.44,5.88-18.11,9.51Z" fill="#171a14"/>
          <path d="M610.98,850.72c-.82-.16-2.18,1.18-2.48.85,2.97-8.01-5.55-16.3-9.56-23.25-3.69-6.4-6.06-18.23-14.4-18.4-3.28,3.43,12.4,25.32,14.75,29.5,4.58,8.13,8.82,19.85,15.02,26.63,1.05,1.15,1.53,2.62,3.54,2.18,1.64-3.06-5.04-17.14-6.88-17.51Z" fill="#171a14"/>
          <path d="M349.26,830.24c-.09-1.12,5.53-7.01,2.05-9.46-4.99-3.51-7.65,6.51-9.13,6.87-2.32.57-12.94-3.31-7.67,4.72,1.71,2.61,5.08,2.32,5.28,2.54,1.04,1.15-10.34,12.39-2.39,14.42,5.53,1.41,5.46-7.06,9.09-9.29,2.3-1.41,7.15-.92,8.45-3.02,2.68-4.34-5.54-5-5.68-6.79Z" fill="#171a14"/>
          <path d="M796.74,682.58c-8.44-1.16-16.89-8.24-25.78-4.93-2.34,3.29,17.03,9.77,19.51,10.15,5.04.79,10.21-.22,15.26.36,3.23.37,19.47,7.19,20.42,2.48.59-2.95-13.92-6.91-16.6-7.33-4.44-.69-8.49-.14-12.8-.74Z" fill="#171a14"/>
          <path d="M358,756.68c.07,2.32,3.17,6.8,5.14,4.04,1.02-1.42,1.35-8.48,2.07-11.31.59-2.3,4.7-9.29,3.06-10.99-3.91-4.03-10.36,15.39-10.27,18.26Z" fill="#171a14"/>
          <path d="M523.53,759.79c.37-6.15-2.13-14.31-9.44-14.08-1.44,1.52,3.93,13.69,5.13,16.21,2.37,4.95,4.06,2.16,4.31-2.13Z" fill="#171a14"/>
          <path d="M134.99,691.05c-.29-1.34-2.06-1.53-3.38-1.39-2.2.23-21.12,9.79-18.48,12.3,3.69-.64,22.8-6.58,21.86-10.91Z" fill="#171a14"/>
          <path d="M88.12,712.39c-7.12-.59-19,3.99-17.69,12.49,1.22,1.28,13.92-8.29,15.74-9.78,1.08-.88,2.61-.02,1.95-2.7Z" fill="#171a14"/>
          <path d="M240.17,689.48c-2.03-1.98-9.49,5.87-7.28,8.32,1.72,1.9,9.07-6.58,7.28-8.32Z" fill="#171a14"/>
        </g>
        <g>
          <path d="M772.84,652.5c-.62-3.27-8.12-6.27-.01-5.76v-1.87c-4.75,1.19-6.94-13.95-8.81-15.48-2.22-1.81-7.19-2.26-8.39,1.11-.7,1.96,4.98-.95,3.84,3.8-.52,2.15-4.2-1.72-3.85,6.71h-1.91c-1.69-5.38-5.52-7.03-11.48-5.74-1.99.43-3.48,3.81-6.68,3.9-1.27.03-.83-2.62-1.64-3.17-1.43-.97-2.96-.57-3.17-.73,3.79,6.97-8.4,15.13-13.4,19.14l7.65-1.9-1.89,9.54c2.94.72,1.11-2.67,3.29-3.73,3.66-1.79,11.62-4.24,10.11,1.81h1.86c.97-3.99,3.44-9.1,5.58-12.55,1.02-1.65-.99-3.83,3.99-2.74-2.13,5.32,6.52,6.21,3.47,11.18-2.76,4.5-14.27,5.54-14.86,6.12-2.7,2.64.98,17.15,10.65,9.64,3.95-3.07-.11-7.97,8.41-3.99-5.23-6.78,11.6-5.92,11.51-13.37h1.87s.31,3.6.31,3.6c1.01.22,1.52-1.74,1.63-1.71,5.18.65,5.88-.34,1.91-3.83Z" fill="#fff1d4"/>
          <path d="M210.23,629.54c-9.24-6.28-17.88-16.84-28.7-19.12l15.84,16.67c4.49.73,7.27,1.59,10.95,4.36l1.91-1.91Z" fill="#fff1d4"/>
          <rect x="577.66" y="704.18" width="3.81" height="5.72" fill="#fff1d4"/>
          <rect x="68.64" y="673.56" width="5.72" height="3.81" fill="#fff1d4"/>
          <path d="M571.91,736.7c-2.33,1.07-4.02,2.96-5.73,4.79l.97.97,6.68-5.76c-.53.24-1.39-.24-1.91,0Z" fill="#fff1d4"/>
          <path d="M715.43,606.58v1.91c1.8-1.65,5.25-2.73,5.74-5.72-4.07-1.41-4.29,2.85-5.74,3.81Z" fill="#fff1d4"/>
          <path d="M516.4,750.12c-.43-.44-6.14-2.12-7.64-1.92.94,3.68,4.23,4.31,7.64,3.79-.1-.62.26-1.6,0-1.87Z" fill="#fff1d4"/>
          <path d="M506.84,688.86c-3.78-.7-5.67-2.87-11.48-1.91-2.97.49-9.1,5.06-13.4,3.83-1.44-.41-1.58-5.32-4.77-3.82-1.67.78-2.12,3.68-2.81,4.88-.35.14-.7.28-1.05.44-1.81-.2-6.7-1.1-8.6.43l1.92,5.73c-4.45.77-4.65-3.45-5.74-3.83-5.84-2-14.98-4.42-21.05-5.74-6.57-1.43-10.23-2.9-18.02-1.74-6.73,1-12.61,6.82-15.77,7.11-3.47.32-16.76-6.8-23.61-3.45-5,4.33,24.57,12.36,26.78,13.39,3.46,1.6,14.18,9.47,19.14,11.48.5.2,6.89,1.81,7.65,1.91,3.53,6.61,6.35,7.48,13.4,7.65,3.77.09,7.97-.61,11.48-1.91,2.29-.85,3.55-3.72,3.83-3.83,2.33-.86,5.49-.94,7.65-1.91,3.2-1.43,4.82-2.38,7.65-3.83,3.16-1.62,6.9-3.45,9.57-5.74,2.54-2.18,4.78-5.55,7.65-7.65,3.61-.28,9.33,1.47,11.48-1.91.5.65,2.82,1.14,3.83,1.91,11.26-12.32,4.2-9.64-5.74-11.48ZM478.33,705.01c-.05-.28-.11-.56-.19-.83h0c.16.15.21.45.19.83Z" fill="#fff1d4"/>
          <path d="M162.39,623.8c.44-4.73-4.05-3.86-7.65-1.91-4.73,14.5,20.33,8.68,7.65,1.91Z" fill="#fff1d4"/>
          <path d="M200.67,648.69c-1.47,8.54,2.65,9.18,9.54,11.47.15-2.86-.44-6.94-2.41-9.06-.97-1.04-6.29-3.34-7.13-2.42Z" fill="#fff1d4"/>
          <path d="M465.7,690.73c3.03.15,7.16-5.22,4.78-7.6-4.43-4.43-10.31,7.33-4.78,7.6Z" fill="#fff1d4"/>
          <path d="M180.54,625.73c-6.65-2.52-.73,11.51,2.89,7.63,1.18-1.27-.43-6.69-2.89-7.63Z" fill="#fff1d4"/>
          <path d="M474.31,746.27c-.31,1.39-1.69,7.02-1.91,7.65,5.31,1.18,8.87-9.64,1.91-7.65Z" fill="#fff1d4"/>
          <path d="M451.35,750.1c-3.79-.16-5.89,1.87-5.74,5.74.4.62,1.38,1.16,1.91,1.91.37.51-.31,2.71,0,3.82,5.77,1,3.26-1.63,3.82-5.74.32-2.34,1.91-2.07,0-5.74Z" fill="#fff1d4"/>
          <path d="M394.93,706.09c-4.09.92-2.2,6.64,1.86,5.72,4.09-.92,2.2-6.64-1.86-5.72Z" fill="#fff1d4"/>
          <path d="M476.24,683.11h5.72s0-5.73,0-5.73c-3.68,1.99-6.95,1.06-5.71,5.73Z" fill="#fff1d4"/>
          <path d="M474.31,723.32c-5.2-4.08-5.39,3.52-5.73,3.81l3.83,1.91c.27-1.26,2.81-5.02,1.91-5.73Z" fill="#fff1d4"/>
          <rect x="415" y="740.54" width="3.81" height="5.72" fill="#fff1d4"/>
          <rect x="403.52" y="729.06" width="5.72" height="3.81" fill="#fff1d4"/>
          <path d="M384.36,677.39h-3.81s0,5.73,0,5.73c2.77-.64,4.39-3.09,3.8-5.73Z" fill="#fff1d4"/>
          <path d="M860.86,442.01c-1.12,0-3.22-.27-3.83,0l4.77,9.57c2.67-4.63,3.26-5.62,8.62-6.69-2.49-3.46-5.97-2.85-9.56-2.88Z" fill="#fff1d4"/>
          <path d="M723.08,629.54c1.08-2.55,2.61-4.46,1.9-7.64l-11.47,3.85,7.65,5.71c.44-.74,1.67-1.34,1.91-1.91Z" fill="#fff1d4"/>
          <path d="M728.83,625.7c2.81.58,12.75.43,11.46-4.75-1.48-5.95-12.62-1.63-11.46,4.75Z" fill="#fff1d4"/>
          <path d="M684.81,650.59c-5.49,15.05,5.62,12.1,7.65,0-4.45,1.45-4.47.07-7.65,0Z" fill="#fff1d4"/>
          <path d="M840.79,608.47c-2.36-.05-1.21,9.44,2.85,9.59.39-.24,1.27.16,1.91,0,3.6-4.15.09-8.87-4.77-9.59Z" fill="#fff1d4"/>
          <path d="M714.48,574.05c-3.85,3.36-5.23,11.21.94,9.55l-.94-9.55Z" fill="#fff1d4"/>
          <path d="M79.16,614.22c.51.21,5.73-8.58,4.76-9.55-2.2-2.19-12.01,6.5-4.76,9.55Z" fill="#fff1d4"/>
          <path d="M47.59,610.41v5.73c2.78-.64,4.4-3.09,3.81-5.73h-3.81Z" fill="#fff1d4"/>
          <path d="M104.98,595.09c-.52.74-1.44,1.26-1.91,1.91-.91,6.37,5.32,5.67,3.81-.95l-1.9-.97Z" fill="#fff1d4"/>
          <path d="M566.17,688.86c-.08,1.31-2.42,3.68-1.91,5.73h5.73c1.35-3.52.22-7.08-3.83-5.73Z" fill="#fff1d4"/>
          <path d="M38.01,451.57c.67-8.88-3.5-6.99-9.57-7.65-2.29,2.99-2.89,4.18-7.65,3.85-.07,3.32,5.18,3.2,5.74,3.81,1.65,1.82,1.43,9.29,8.45,7.58l1.12-1.84c-.67-1.88-.74-4.02-1.91-5.74.98.09,3.32.23,3.83,0Z" fill="#fff1d4"/>
          <path d="M36.1,483.14c2.06,2.94,4.11,3.33,7.64,2.87v-3.81s-7.64.94-7.64.94Z" fill="#fff1d4"/>
          <path d="M141.34,380.77c2.76-2.49,9.78-11.18,13.4-15.31.59-.68,1.34-1.23,1.91-1.91,3.88-4.62,5.71-4.78,7.69-12.46.31-1.22,3.49-4.32-.98-4.72-1.49-.13-9.3,7.97-11.26,9.72-1.1.98-.86,3.34-1.19,3.62-.16.14-2.68,1.28-3.83,1.91-8.97,4.95-18.93,12.06-29.68,17.21-2.99,3.12,6.08,2.04,6.72,1.92-1.75,2.49-3.74,5.42-5.74,7.65-1.2,1.34-2.51,2.59-3.83,3.83-6.22,5.84-16.57,10.44-21.05,19.12,10.64,1.08,14.83-5.33,21.05-11.46,2.19-2.16,1.78.64,5.74-5.74,5.09,1.33,5.64-2.25,7.65-3.83,4.03-3.15,10.22-6.7,13.4-9.57Z" fill="#fff1d4"/>
          <path d="M135.6,419.04c.05.63-.04,1.28,0,1.91-2.16,1.02-7.83,3.13-7.65,5.74,4.44,1.87,6.93-3.54,7.65-3.83,1.7-.67,7.73,1.24,7.67-.98-.13-4.83-4.47-5.84-7.67-2.85Z" fill="#fff1d4"/>
          <path d="M55.23,440.09c-1-3.51-4.32-4.15-7.65-3.83-.65.59-1.46,1.15-1.91,1.91v5.73c.58.55,5.76-1.62,7.65-1.91.28-.04,1.66,3.12,4.84.22,2.47-2.26,3.25-4.57,2.8-7.87-2.52.75-3.97,3.78-5.72,5.74Z" fill="#fff1d4"/>
          <path d="M129.86,415.22c1.88,2.05,3.01,2.28,5.74,1.91-1.68-6.63-6-9.13-5.74-1.91Z" fill="#fff1d4"/>
          <path d="M114.55,422.87c-.53.37-6.57-.93-3.81,3.82.19.33,5.78-1.92,7.64,0,1.48-3.26-.62-4.6-3.83-3.83Z" fill="#fff1d4"/>
          <polygon points="39.93 417.14 39.93 422.86 43.75 422.87 43.74 417.14 39.93 417.14" fill="#fff1d4"/>
          <path d="M59.04,411.39l-5.72,5.72c3.62.63,6.37-2.23,5.72-5.72Z" fill="#fff1d4"/>
          <path d="M103.08,426.69c2.64.59,5.09-1.03,5.73-3.8h-5.73s0,3.8,0,3.8Z" fill="#fff1d4"/>
          <path d="M378.65,244.89c2.51-1.43,6.31-7.06,7.63-9.56.39-.74,1.66-1.33,1.91-1.91,1.3.48,2.55,1.52,3.83,1.91,3.29,1.02,4.18,1.25,7.65,0l3.83-17.22h1.91c.03.51,1.72,1.31,1.91,1.91.91,2.87-2.21,7.89,4.79,5.78.43-.13,4.46-6.93,4.78-7.69,1.39-3.32,2.42-10.94,3.83-15.31,1.48-4.59,3.6-9.07,5.74-13.38-5.4-.98-5.61,4.99-7.65,7.64-1.04,1.35-2.97,2.51-3.83,3.83-.73-.15-1.36-.13-1.91,0,.04-2.11,1.31-3.84,1.91-5.73,1.39-4.39,2.63-8.94,3.83-13.4.72-2.68,3.35-5.41,1.89-9.57-3.57.34-2.91,3.82-3.81,5.74-1.78,3.8-3.4,7.23-3.83,11.48-.06-.51-1.48-2.01-1.97-3.65.02-.7.04-1.39.05-2.09.95-6.4.75-14.11,1.91-21.05.68-4.07,3.29-8.39,1.91-13.4,1.32-.41,2.7-1.66,3.83-1.91,4.14,3.73,12.02,3.29,16.47-.35l-1.15,1.5-.7,27.21c-1.9,9.34-2.31,18.39-1.23,27.14-4.86.44-5.33,27.95-4.4,29.46l4.4,1.15c2.71.2,8.2,4.04,11.48,5.74,5.44,2.82,12.91,6.03,20.2,5.56,3.29-.21,5.23-4.39,9.1-3.48,2.96.7,3.69,4.3,5.14,5.57.19.19.37.35.56.49,1.49,1.29,4.69,3.97,5.16,3.34l1.93-7.66c1.36,2.71.79,10.23,5.74,7.65,2.7-1.41,1.19-5.88,3.83-7.65.76,2.04,1.03,9.4,4.76,7.64,4.04-1.91,3.13-10.59,2.98-14.41-1.14-29.42-12.68-62.19-11.75-92.55-25.84-5.88-49.99-7.32-76.35-4.01-6.41.8-12.97.75-19.22,2.8-3.07,2.14-1.16,6.52-1.83,8.68-.2.4-.31.81-.36,1.21-4.22,14-6.92,30.38-9.2,44.71-.61,3.82-1.34,7.76-1.91,11.48-.54,3.52.5,7.91,0,11.48-1.07,7.72-4.99,16.49-3.81,24.87ZM382.35,223.01c0,.64,0,1.22.02,1.73-.09-.48-.07-1.07-.02-1.73ZM395.85,158.79l-.06-.25c.03.09.05.17.06.25Z" fill="#fff1d4"/>
          <path d="M455.17,114.79c-1.36-1.6-9.2,3.85-10.64,5.6-11.21,13.58,16.27,7.45,10.64-5.6Z" fill="#fff1d4"/>
          <path d="M455.16,104.28c-.8-3.62-2.61-2.13-4.81-1.06-2.62,1.28-11.96,7.95-8.56,11.55.76.8,14.88-3.65,13.37-10.49Z" fill="#fff1d4"/>
          <path d="M441.79,101.37c2.11,2.17,10.53-4.7,13.39-5.73,5.19-1.4,5.3-5.11,0-5.74-.21-1.31-.61-2.17-1.09-2.6,1.51-1.13,2.24-3.08,1.09-5.05-.24-.41.16-1.27,0-1.91.31-2.14.33-3.46-.01-4.01,3.2-.64,4.84-2.52,1.92-7.47-4.94-2.85-15.72.73-15.3,7.64,1.74.32,4.35-.44,5.73.01,2,.09,4.11.19,5.95.04-.57.4-1.27,1.02-2.12,1.87-4.28,1.94-10.08,4.46-9.56,9.56,2.48.26,5.23-.33,7.64.01.84.29,1.69.34,2.48.21-.22.45-.42,1.01-.56,1.7-3.68.84-13.04,7.89-9.56,11.47Z" fill="#fff1d4"/>
          <path d="M395.85,265.95c3.3-1.36,5.4-2.83,7.65-3.83l1.93-3.8-5.75-1.94c-.8.75-2.91.21-1.9,3.82l3.81.02c.6,3.02-4.71,1.88-5.73,5.72Z" fill="#fff1d4"/>
          <path d="M581.47,254.47c-6.59-8.54-13.03-17.88-19.14-26.79-2.74.83-3.8,2.95-3.83,5.74-.29-.14-1.58-.1-1.91,0-1.4.42-1.31.87-1.91,1.91-1.85,3.18-1.99,6-1.91,9.57-3.77,1.17-3.84,2.92,0,3.83.74,2.71,6.51,5.96,9.57,5.74.79.3,1.42.48,1.92.57,1.88,5.81,10.23,11.46,15.3,9,6.19,1.54,6.83-1.65,1.91-9.57Z" fill="#fff1d4"/>
          <path d="M596.78,285.09c-.38,4.55,1.03,5.52,3.83,1.91l3.83-1.91c-1.92-3.18-3.83-6.39-5.74-9.57-3.35-.72-3.27,3.02-1.91,5.74-3.21.99-3.05,2.54,0,3.83Z" fill="#fff1d4"/>
          <path d="M744.13,350.15l1.74-1.13-1.74-4.61c-1.21.93-2.92,1.39-3.79,2.87.78,1.57,2.83,2.01,3.79,2.87Z" fill="#fff1d4"/>
          <path d="M675.24,296.59h-5.73s0,3.8,0,3.8c2.64.59,5.09-1.03,5.73-3.8Z" fill="#fff1d4"/>
          <path d="M843.64,436.27c-1.87-.28-2.65,1.11-3.83,1.91,1.21,4.81,9.27,5.74,7.64.98-.54-1.57-3.25-2.15-3.81-2.89Z" fill="#fff1d4"/>
          <path d="M256.16,411.39c-3.92.45-7.7,1.68-9.57,1.91,3.07-.11,7.93,1.19,9.57-1.91Z" fill="#fff1d4"/>
          <path d="M271.47,350.15c15.47-10.26,14.31-3.43,24.88-21.05,1.09-1.82,2.47-4.23,3.83-5.74,5.43,4.46,5.83-.73,7.65-1.91,9.54-6.19,9.25-9.53,15.31-15.31.55-2.41.28-3.91-.42-4.36-.27-.46-.75-.94-1.49-1.38-2.74-6.24-5.5-4.2-9.57,0-8.74,2.11-19.71,11.85-28.7,15.31h-7.65c-.09-7.25,5.07-6.89-1.92-7.65-.63-.07-1.28.03-1.91,0-5.61-1.82-10.07-1.82-13.4,0-.63-.06-1.28.03-1.91,0-1.25,2.39-2.74,5.61-4.46,7.99-.43.46-.86.98-1.28,1.58-4.36-3.26-6.75,1.47-7.65,5.74-1.93,1.23-3.91,2.72-5.74,3.83-.69.42-3.56-.11-5.53,1.09-5.22,3.19-17.66,10.26-19.34,16.13-.27.93.06,2.6,0,3.83-4.93.67-7.05,5.75-11.48,9.57-10.3,8.87-21.18,13.19-32.53,21.05-3.55,2.46-6.29,5.08-9.57,7.65-5.62,4.41-10.76,9.2-17.24,12.44,7.06,2.68,11.93-.57,17.24-2.87,6.83-2.96,16.79-7.65,22.96-11.48,3.93-.39,10.26-3.87,7.65-7.65,8.6.76,17.82-6.57,22.96-13.4.99.07,1.98-.12,2.93-.51-.6.71-.99,1.57-1.01,2.43-2.29,1.8-3.97,4.28-5.74,5.74-5.06,4.16-11.03,7.34-15.27,12.45l1.88.95c5.28-1.87,10.69-4.67,15.31-7.65.67-.43,1.19-1.43,1.91-1.91,1.91-1.28,3.88-2.48,5.74-3.83,2.31-1.67,4.16-4.59,5.74-5.74,8.8-6.39,17.71-14.77,26.79-19.14,3.56-1.71,7.63-1.8,10.9-3.45,7.86-3.98,15.14-10.49,23.55-13.77-.03.14,1.91.95.26,2.83-.95,1.09-14.39,13.52-15.57,14.4-11.52,8.6-26.78,12.94-36.36,24.88,6.45,4.17,9.49.03,15.31-3.83,7.22-4.79,15.51-12.28,22.96-17.22ZM217.57,361.41c.66-.62,1.23-1.35,1.65-2.15.13.16.32.31.59.46.16.59-.21,1.37,0,1.91-.69-.38-1.48-.42-2.23-.22Z" fill="#fff1d4"/>
          <path d="M248.51,394.17c-1.76,10.86,5.45,3.26,7.65,3.83,1.81-6.72-2.88-7.79-7.65-3.83Z" fill="#fff1d4"/>
          <path d="M258.07,386.51c1.32,1.96,4.68,3.16,5.74,5.74.76-.85,4.65,1.62,3.82-7.64l-9.56,1.9Z" fill="#fff1d4"/>
          <path d="M385.78,353.42c3.24-3.82-1.26-9.7,2.3-11.98,2.81-1.8,16.5-1.39,21.17-2.77-2.45-4.55-7.59-15.06,0-13.4-1.26-.46-2.46-3.21-5.74-1.91-.33,1.44.46,5.27-.01,5.74-.71.71-16.81-3.41-19.52-4.39-14.04-5.07-4.85-8.93-24.48-3.26-2,.58-3.8,1.26-5.74,1.91-3.86,1.3-5.8,3.12-7.65,3.83-1.28.49-4.86,1.8-5.74,1.91-1.3.16-4.01-.11-3.83-1.91-2.09,1.39-3.5,1.53-5.74,3.83-.91.93-4.54,5.2-3.83,5.72,1.9-.32,6.94.55,7.65.02-1.37.91-2.51,3-3.83,3.83-10.62,6.7-28.07,13.69-34.45,19.14-6.48,5.54-19.07,9.36-21.04,19.13,1.58,1.45,25.17-9.65,28.69-11.47,8.02-4.15,22.41-11.39,26.79-19.14l11.48-7.65c-.05.18,2.31,1.17,1.1,3.67-2.86,5.88-16.94,14.02-20.23,21.21l-17.21,13.38c6,.26,13.66-4.55,19.13-7.63,1.04-.22,1.99-.47,2.89-.74-.32.24-.65.47-.98.74.47,4.47.36,5.54,5.24,4.4,7.94-1.86,15.87-5.33,23.47-8.23,6.6-2.52,26.29-9.44,30.12-13.95ZM353.75,346.33l2.03,1.52-1.73,1.76c.35-.41.68-.81.98-1.2.18-.23-.44-1.08-1.28-2.09ZM350.18,353.57l-7.91,8.07c-.5.17-1.06.43-1.62.74.65-.83,1.21-1.8,1.62-2.65,2.3-1.42,5.26-3.72,7.91-6.15ZM334.29,367.25c1.2-1.08,1.95-2.31,2.24-3.71.54.52,1.1.7,1.65.63-1.25,1.24-1.69,2.56.27,3.2-1.29-.41-2.68-.44-4.16-.12Z" fill="#fff1d4"/>
          <path d="M269.57,390.34c.08,1.21-.26,3.59,0,3.82,2.52,2.22,9.99-2.86,7.63-5.73-.4-.49-5.05,4.58-7.62,1.91Z" fill="#fff1d4"/>
          <path d="M390.11,375.03c-.73.95-1.23,3.32-1.91,3.83,2.51,4.65,10.9-3.32,1.91-3.83Z" fill="#fff1d4"/>
          <path d="M390.11,388.42c.56-.26,1.61.3,1.91,0,.44-9.5-12.61-.29-1.91,0Z" fill="#fff1d4"/>
          <path d="M514.5,296.57c1.68,1.21,9.09,9.99,11.48,7.64l-5.74-13.38c-1.71.41-3.29,5.04-5.74,5.74Z" fill="#fff1d4"/>
          <path d="M459,308.05l-3.83,1.91c2.19.74,4.16,3.09,7.65,1.89.07-2.31-2.62-2.78-3.83-3.81Z" fill="#fff1d4"/>
          <path d="M422.66,223.84c2.02,3.17,5.77-12.57,1.92-9.54l-1.94,3.81c.07.63-.11,1.3,0,1.91.21,1.17-.15,2.58.02,3.81Z" fill="#fff1d4"/>
          <path d="M503.02,378.84c-1.94-5.36-7.61-6.88-11.48-9.55-4.76-3.29-11.58-8.77-17.22-9.57-.78-3.19-4.12-4.07-5.74-5.74v1.91c-7.44-4.8-17.12-5.44-24.88-7.65,2.01,8.71,13.39,8.38,19.14,13.4,2.88,2.51,5.98,7.48,5.76,11.47l2.84-5.72c4.36,3.9,8.99,5.65,14.36,7.64,5.63,2.09,10.67,4.92,17.22,3.81Z" fill="#fff1d4"/>
          <path d="M602.52,378.85c2.36-3.05-6.88-7.86-9.56-9.56-2.38-1.5-5.28-2.32-7.65-3.83-2.34-1.49-5.33-2.29-7.65-3.83v1.91c.58.26,4.85,3.15,5.74,3.83,1.69,1.28,3.45,4.5,5.74,5.74v1.91c3.26,1.08,7.12.78,9.57,3.83.96-.3,2.62.27,3.82,0Z" fill="#fff1d4"/>
          <path d="M612.09,390.34c-1.77-1.11-3.75-1.43-5.74-1.91-.61.65-1.2,1.37-1.91,1.91-1.35,1.03-3.85,1.59-3.83,3.81l16.16.04c1.71.22,1.4-2.98,1.06-3.85-1.79.26-4.17-.39-5.74,0Z" fill="#fff1d4"/>
          <path d="M631.24,389.41c-1.59,7.2,9.73,3.4,7.64-4.8-1.37-1.43-7.29,3.23-7.64,4.8Z" fill="#fff1d4"/>
          <path d="M736.47,405.62c.99-1.22-2.77-3.05-3.82-3.8-2.69-1.92-5.06-3.8-7.65-5.74-3.85-2.88-9.44-7.37-13.4-9.57-3.78-2.1-6.24-5.04-11.48-3.83-1.07-6.38-7.58-7.61-10.5-11.51-7.07-9.44.84-10.04-14.38-17.2-1.05-.49-3.34-.83-5.74-1.91.46-5.72-3.36-7.72-7.65-3.83-.79,1.27-5.1,9.99-5.09,10.58.02,1.9,4.38,3.23,3.16,6.65-4.97-2.11-4.82-3.49-6.67,1.91-3.48-2.51-2.87-7.22-5.04-10.35-1.45-2.08-6.9-7.79-9.32-10.69-1.35-1.61-1.64-4.46-4.77-3.85l.94,3.85c-2.1.76,1.27,1.8-5.74,1.91-3.78-3.9-6.34-4.53-7.65-1.91-.18-.06-1.27,2.05-3.61,1.02-7.12-3.13-10.7-13.33-15.53.89-2.41,2.43-1.77,3.07,1.91,1.91.62.11,1.29-.1,1.91,0,3.85-.51,6.4.13,7.65,1.91,9.32,4.17,13.78,12.76,21.05,19.14,6.64,5.82,11.46,7.47,19.14,11.48,2.5,1.31,5.08,2.7,7.65,3.83,6.19,2.72,8.25,4,15.31,5.74,2.92.72,3.09-.07,3.83,0,.83,3.76,6.76,5.35,9.56,2.88-.83-1.52-2.81-1.98-3.82-2.88-4.69-4.2-8.16-6.33-13.4-9.57-2.34-1.45-5.98-5.5-7.65-5.74l-1.91-5.72c7.98-1.48,11.59,3.98,17.22,7.64,5.82,3.78,11.22,7.81,17.22,11.48,9.28,5.67,17.92,12.38,28.7,15.31,3.49.95,4.11,2.52,9.56-.02Z" fill="#fff1d4"/>
          <path d="M818.76,409.47c-2.29-3.26-3.35-3.51-5.74-5.74-1.3-1.21-1.78-2.37-3.83-3.83-2.46-1.76-3.9-4.71-7.65-3.81.37,3.02,4.2,4.08,5.74,5.72,1.23,1.31,2.63,2.48,3.83,3.83,2.92,3.31,3.84,3.82,5.74,5.74.32.33,2.33,9.25,5.73,5.73,1.62-1.68-1.54-4.95-3.17-6.84-.18-.25-.39-.51-.64-.8Z" fill="#fff1d4"/>
          <path d="M778.58,403.73c-4.63-3.49-11.27-9.29-15.31-13.4-3.14-3.2-8.64-12.55-13.4-17.22-3.48-3.42-7.65-1.13-9.57-9.57-.81-3.57.73-4.42-1.91-9.57-6.84-13.3-28.77-6.75-30.69-25.95-.47-4.72,4.52-1.13,3.89-4.64-9.67-.12-13.85-14.46-22.94-12.47,7.55,5.74,8.54,12.94,7.63,22.02l-3.81-3.83c-.18-3.35-2.43-6.55-5.72-7.65-1.28,3.48,3.49,5.23,3.81,7.65.04.33.03,5.41,0,5.74,4.24,4.7,21.54,15.55,22.67,20.47.78,3.37-2.71,6.46-.27,11.55,1.62,3.39,10.47,9,13.96,11.99,5.3,4.53,11.02,10.23,17.22,13.4,2.62,1.34,3.96,2.94,7.65,1.91,1.18,3.27,3.45,3.94,5.74,5.74,8.4,6.62,9.21,3.84,17.22,5.74,1.59.38,9.05,4.38,9.55,3.83,1.45-5.37-2.75-3.5-5.72-5.74Z" fill="#fff1d4"/>
          <path d="M803.48,438.17c2.18,1.23,4.56-6.88,3.79-7.63-2.38-2.32-7.55,3.21-3.79,7.63Z" fill="#fff1d4"/>
          <rect x="746.06" y="415.23" width="5.72" height="3.81" fill="#fff1d4"/>
          <rect x="793.9" y="373.13" width="5.72" height="3.81" fill="#fff1d4"/>
          <path d="M437.95,388.42c-.17.3-5.89.62-5.74,3.81l5.74.02c-.35-.84.23-2.67,0-3.83Z" fill="#fff1d4"/>
          <path d="M610.17,399.9v-3.81s-5.72.94-5.72.94c1.74,2.03,2.9,3.49,5.72,2.87Z" fill="#fff1d4"/>
          <path d="M600.61,298.49c1.4,1.58,2.85,2.73,3.83,3.83,3.37-3.81-.29-7.15-3.83-3.83Z" fill="#fff1d4"/>
        </g>
        <g>
          <path d="M150.55,702.25l2.84-5.71,3.85,5.72c6.17-2.7,25.56-8.19,28.66-10.57,4.99-3.84-.94-6.37-3.78-8.56-1.19-.92-.8-3.33-4.9-3.93-4.23-.62-5.15,1.67-6.59,2.02-12.11,2.92-18.4,8.11-28.7,13.4l8.62,7.64Z" fill="#ff4e50"/>
          <path d="M625.14,130.03c9.96,1.04,15.21,2.41,25.19.35,3.04-.63,2.76-.56,2.52,2.55-14.9,19.14-30.92,37.45-45.91,56.48-1.35,1.72-12.27,14.67-11.48,15.29,5.59.84,9.08-3.35,11.48-7.64l104.35-78.4c1.44-1.43,1.97-2.73-.15-3.86-8.28-4.43-26.61.92-31.49-3.85l59.32-70.78c-3.25-.62-5.57.88-8.3,2.21-15.9,7.75-48.79,33.78-64.42,45.61-7.79,5.9-43.26,32.91-45.91,39.26-1.68,4.02,2.81,2.58,4.79,2.79Z" fill="#ff4e50"/>
          <path d="M411.75,53.54c6.29-1.14,12.9-1.67,19.14,0,1.28.01,2.55,0,3.83,0l2.93,3.7c8.83,1.59,34.76-1.12,41.09-5.62,1.33-5.23,8.19-34.62,5.55-36.16-11.82-2.77-18.69,3.11-28.5,7.45-.88-8.42-4.18-17.15-10.54-22.92-5.66,3.77-6.6,18.99-11.79,20.72-8.44,2.81-24.62-11.9-30.43-3.66-2.65,3.76,4.06,35.34,8.73,36.48Z" fill="#ff4e50"/>
          <path d="M220.4,107.09c3.05,3.59,24.95,9.87,26.55,14.72,2.27,6.88-5.99,21.52-5.5,29.32,3.12,3.37,21.85-18.57,25.82-18.56,1.49,0,24.73,16.13,25.81,14.74.47-8.53-9.51-21.17-7.35-29.24,1.52-5.67,23.23-18.04,18.84-22.42-6.85.39-27.45,4.95-31.68.04-1.03-1.19-.46-3.1-.84-3.88-2.79-5.73-4.39-13.26-7.26-18.58-1.75-3.25-2.35-5.67-6.14-2.47.32,2.27-2.95,24.34-3.83,26.79-.89,2.48-3.54,4.3-6.24,4.11-.63-.15-1.13-.24-1.42-.29-2.04-.31-5.49-.18-7.65,0-1.62.14-3.31.04-3.83,1.91-3.31-.15-19.82-1.54-15.29,3.79Z" fill="#ff4e50"/>
          <path d="M170.63,269.78c.36-.19,3.11-3.92,5.74-5.74,2.81-1.01,5.4-4.47,1.91-5.74-12.03-2.67-10.74,3.35-18.1,3.58-2.12.07-7.73-2.66-8.68-1.66-2.84,2.97,7.35,8.99,3.82,13.39,4.85-1.24,10.15-1.18,15.31-3.83Z" fill="#ff4e50"/>
          <path d="M731.33,95.65c-1.21,3.43,3.22,4.78,3.22,6.69s-4.43,3.26-3.22,6.69c3.68-2.92,14.77.61,15.29.02.79-.9-1.86-10.28,5.75-9.62.03-2.86-4.54-2.76-5.35-4.17-1.33-2.34.82-6.16-1.34-7.27-5.03,6.07-5.03,9.49-14.35,7.65Z" fill="#ff4e50"/>
          <path d="M239.52,166.45c-3.34-3.84-6.09-7.75-9.57-11.48-1.51-1.63-3.08-4.73-5.74-7.65-5.56-1.71-6.41,1.02-3.83,5.74,2.1,2.45,4.29,4.07,5.74,5.74,3.4,3.92,6.58,6.35,9.57,9.57,3.71,3.99,24.66,33.34,30.62,28.68-7.6-9.23-14.33-19.59-22.14-28.64-1.69-1.95-4.45-1.73-4.65-1.96Z" fill="#ff4e50"/>
          <path d="M78.78,315.71c-2.21,9.4,10.59,7.73,17.22,7.65,3.31-.04,15.27.97,15.27-2.87,0-2.97-28.62-6.19-32.49-4.78Z" fill="#ff4e50"/>
          <path d="M572.46,137.26c1.66-1.91,3.71-2.83,5.77-5.25,5.04-5.94,10.2-6.96,13.4-15.31,1.61-4.21,1.84-10.78,2.2-11.23.7-.88,10.21-4.88,16.94-13.65,17.73-23.09,6.32-21.22-8.71-5.76-2.33,2.4-2.19,5.04-2.77,5.76-6.93,8.47-7.09,12.74-11.48,19.14-3.95,5.76-8.92,10.84-13.4,17.22-7.47,10.67-17.58,20.21-22.96,32.51,4.61,4.49,19.62-21.83,21.02-23.43Z" fill="#ff4e50"/>
          <path d="M629.38,220.37c-3.08.45-13.67,6.38-12.86,10.16,2.46,11.49,31.3-12.84,12.86-10.16Z" fill="#ff4e50"/>
          <path d="M243.35,279.35c3.61-.05,22.57-17.16,25.76-21.15.97-1.22.67-3.28,1.03-3.72-9.97,7.28-20.05,14.36-26.79,24.88Z" fill="#ff4e50"/>
          <path d="M111.31,107.12c2.19,2.59,6.86,6.51,7.65,7.65.65.92,4.36,9.09,3.82,9.56-7.98,1.39-17.73.96-25.36,2.43-2.08.4-6.6,1.03-5.24,4.25,11.86,9.51,24.09,18.82,36.34,27.77,1.47,1.08,3.5,2.16,5.74,3.83,3.18,2.36,7.57,4.73,11.48,7.65-.03,2,1.92,4.34,3.83,3.83.74.55,1.26,1.43,1.91,1.91,7.9,5.91,16.97,11.11,24.88,17.22,10.7,8.27,20.79,18.09,32.53,24.88-.59-1.96-1.32-3.83-1.91-5.74-1.28-5.85-6.62-11.71-11.48-15.31-1.29-1.94-2.55-3.76-3.83-5.74l-5.74-7.65c-.35-.32-1.59.32-1.91,0,0-6.56-3.68-11.5-9.43-14.31-3.89-8.46-11.32-22.58-21.18-22.05,5.79-.19,11.93-.63,18.4-1.3l.73-2.53c.8.93,1.45,1,1.91,0l3.83-1.91c1.58.47,5.47-.03,7.65,0,2.53-.63,2.47-3.51,0-3.83-1.28-.43-2.69-1.68-3.83-1.91-2.19-.87-2.98-5.05-3.83-5.74-4.11-11.34-22.48-23.7-34.45-24.88-5.03-3.71-11.21-6.6-15.31-9.57-13.64-9.88-26.01-19.34-40.19-28.7-6.05-3.99-13.58-14.56-22.95-12.45,13.29,16.93,27.97,32.63,42.09,48.81,1.33,1.53,2.93,2.77,3.83,3.83Z" fill="#ff4e50"/>
          <path d="M568.41,39.88c.46-.29,3.85-8.38,4.43-9.97.79-2.16,2.07-4.4-1.33-5.07-7.26-1.42-13.32,21.47-3.09,15.03Z" fill="#ff4e50"/>
          <path d="M698.78,158.8c-2.03-1.94-12.44,1.92-11.46,6.66,1.51,7.31,15.83-2.5,11.46-6.66Z" fill="#ff4e50"/>
          <path d="M537.85,127.99c1.64-1.02,3.15-11.3-.76-11.26-4.82.05-8.04,16.75.76,11.26Z" fill="#ff4e50"/>
          <path d="M222.29,66.93c1.59-1.65-5.07-13.05-9.55-11.46-2.31,4.23,7.38,13.71,9.55,11.46Z" fill="#ff4e50"/>
          <path d="M585.88,57.38c-2.78-.54-5.52,1.61-6.69,3.81-5.03,9.4,8.75,7.66,6.69-3.81Z" fill="#ff4e50"/>
          <path d="M342.87,168.37l5.72-.02c.51-4.73.13-10.07-5.72-9.55v9.57Z" fill="#ff4e50"/>
          <path d="M337.11,118.6c2.58-2.96-2.64-14.8-7.61-6.69,2.56,1.56,4.6,10.14,7.61,6.69Z" fill="#ff4e50"/>
          <path d="M342.86,38.23c.7-6.38-8.65-6.81-9.48-2.87-.12.55,1.64,1.93,1.83,2.87,2.15,10.85,6.77,8.07,7.65,0Z" fill="#ff4e50"/>
          <path d="M717.94,145.39c1.73,1.54,10.96-4.46,11.47-7.63-2.15-1.22-14.9,4.58-11.47,7.63Z" fill="#ff4e50"/>
          <path d="M324.68,80.3c5.71.06.53-11.25-2.86-7.61-1.18,1.27.89,7.59,2.86,7.61Z" fill="#ff4e50"/>
          <path d="M561.97,88.03c-.93,0-6.34,6.04-4.77,7.61,5.11,1.28,9.79-7.6,4.77-7.61Z" fill="#ff4e50"/>
          <path d="M301.72,55.42c3.26.04,3.39-7.54,0-7.58-3.26-.04-3.39,7.54,0,7.58Z" fill="#ff4e50"/>
          <path d="M124.7,179.87c-.25-.31-6.23-2.08-7.65-1.93,1.54,6.76,11.6,6.85,7.65,1.93Z" fill="#ff4e50"/>
          <path d="M314.14,15.27l-.93-7.64c-4.18,2.96-3.72,5.9.93,7.64Z" fill="#ff4e50"/>
          <path d="M782.97,89.9c-.31-.38-8.66,2.81-5.71,5.73,1.83,1.81,7.62-3.37,5.71-5.73Z" fill="#ff4e50"/>
          <rect x="541.89" y="70.78" width="3.81" height="5.72" fill="#ff4e50"/>
          <path d="M350.51,76.53h-5.73s0,3.8,0,3.8c2.64.59,5.09-1.03,5.73-3.8Z" fill="#ff4e50"/>
          <path d="M605.02,141.59h-5.73s0,3.8,0,3.8c2.64.59,5.09-1.03,5.73-3.8Z" fill="#ff4e50"/>
          <path d="M78.79,160.71v3.81s5.73,0,5.73,0c-.64-2.77-3.09-4.39-5.73-3.8Z" fill="#ff4e50"/>
          <path d="M21.38,315.7c4.05-1.08,14.96,3.3,13.38-3.81-4.05,1.08-14.96-3.3-13.38,3.81Z" fill="#ff4e50"/>
          <path d="M53.92,343.43c2.01,3,4.1,3.34,7.63,2.89v-5.72s-7.64,0-7.64,0v2.83Z" fill="#ff4e50"/>
          <path d="M655.74,620.19c4.21-.33,3.17-4.46,6.74-6.85,4.04-2.69,15.44-4.92,21.01-6.77,1.05-.35,3.02.39,3.83,0,.94-5.81-1.63-3.29-5.74-3.83-1.47-.19-2.76-.9-3.83-1.91-1.07-4.82-5.13-6.81-7.65-1.91-2.62-.85-7.12-1.19-8.65-3.79-2.32-3.95,1.54-10.35-3.78-9.62-7.35,1-16.02,9.88-21.47,14.92-2.34,2.17-6.08,1.83-2.45,6.15,9.58,2.16,11.52,14.44,22.01,13.62Z" fill="#ff4e50"/>
          <path d="M605.02,616.14h-1.91c.37-.7-.25-2.7,0-3.83,6.29-.76,16.73-.91,21.55-1.99,1.59-.35,2.55-3.56,3.33-3.75,6.95-13.54-20.54-5.21-22.97-7.64-.82-9.98,2.05-21.21-1.9-30.63-13.13-1.18-16.33-6.33-21.05,7.65-2.65-7.16.18-10.12-8.75-11.28-28.88-3.76-61.57-3.31-90.76-4.02-2.17-4.89-3.58-4.89-5.74,0-3.04,1.5-6.55,1.53-9.57,0-.65-5.27-9.61-7.52-11.48-1.91-2.55-.02-5.1,0-7.65,0h-3.83c-18.04.03-38.42,1.85-57.41,1.91-3.19.01-6.38-.03-9.57,0-.64,0-1.28-.01-1.91,0-3.62.07-9.39-1.31-11.48,1.91-3.19.05-6.38-.03-9.57,0-6.63.06-15.99-1.63-21.05,1.91-1.28,0-2.55,0-3.83,0-4.48-.17-7.41,1.03-11.48,1.91-26.33-4.75-10.67,17.86-14.62,28.18-1.56,4.07-6.67,4.01-10.26,4.35-5.8.55-11.88-.41-17.94.25-8.81.96-19.28,7.07-26.07,1.67-2.99-2.38-16.73-21.69-21.04-17.21-.46,4.4,1.63,10.97-1.87,14.4-3.28,3.22-20.66,6.06-21.11,7.62-1.08,3.7,1.75,2.8,3.83,3.73,4.68,2.1,20.64,5.66,22.52,7.22,3.29,2.71-.34,11.48,9.16,5.39,5.08-3.25,6.74-9.64,8.52-11.57.3-.26.57-.53.82-.8,5.3-4.77,9.79.59,15.4.87,9.75.49,20.46.23,30.55.03,1.37.15,3,.12,4.91-.09,1.27-.02,2.55.03,3.83,0v11.48c-1.53,8.22-1.53,16.51,0,24.88,3.74,19.1,7.09,11.51,26.79,11.48,22.08-.03,43.42-2.45,64.64-3.55.27.02.55.02.83.03,1.11.33,2.75.29,5.34-.31,3.18-.12,6.38.09,9.57,0,33.84-.95,75.55.54,109.08,3.83,7.72.97,15.37.97,22.96,0-1.65.73-1.67,1.37,0,1.91,1.28,0,2.55,0,3.83,0,13.29-.77,26.88.56,40.2.01.15-5.4-.23-10.88,0-16.3.1-2.57-1.59-7.96,2.85-6.69,3.26.94-1.89,20.65,2.89,22.97.42.2,1.23-.11,1.91,0,1.44.24,4.26.2,5.74,0,1.08-.15,2.6-1.53,3.83-1.91-.02-.64.02-1.28,0-1.91-.37-13.35.27-26.83,0-40.19ZM388.81,654.4c.04-.31.07-.6.09-.88.04.01.08.03.12.04l-.21.85Z" fill="#ff4e50"/>
          <path d="M872.93,352.07c1.32-2.97-.08-7.31-1.91-9.57-.37.31-1.68-.32-1.91,0-1.61-5.94-4.57-10.24-7.65-15.31-3.69-6.06-8.16-10.52-13.4-13.4-.67-.39-3.05-1.57-3.83-1.91-1.87-3.08-6.23-5.85-9.57-5.74-7.59-2.06-15.42-3.69-22.96-5.74-3.13-.85-6.42-2.77-9.57-3.83,0,.63.06,1.29,0,1.91h-17.22c-.28-.32-1.78-1.88-1.91-1.91-2.19-.57-8.65-.16-11.48,0-5.92.34-18.1,2.29-24.05,3.78-3.2.81-5.59-1.92-4.65,3.86,12.59-1.07,25.07.77,37.43,1.61,2.15.14,4.17-1.64,4.66-1.6,2.61.2,4.65,1.8,5.74,1.91,6.11.65,15.63.73,21.05,1.91.36.12.68.19.99.23,21.4,5.02,44.48,21.06,52.59,41.87-1.37,6.97.97,17.38,0,24.88-5.56.26-6.9,3.23-1.91,5.74-3.06,8.28-6.27,23.8-15.31,26.79.73.64,1.15,2.83,1.91,3.83l-5.96,1.14-28.28,27.6-.21,5.71c-6.35-3.97-18.3,24.03-17.33,25.67,4.31,7.32,34.15-11.08,35.45-18.67l-2.81-3.17c6,.37,10.29-5.7,9.57-11.48,2.79,2.44,4.64,1.65,3.83-1.91,6.03-1.91,7.95-4.47,5.74-7.65,1.29-1.4,9.25-12.41,9.57-13.4.34-1.04-.37-2.93,0-3.83,1.89-2.73,6.68-8.96,7.65-11.48,1.93-5,2.89-11.84,3.83-17.22l.23-1.15c.56-2.49,1.35-4.33,1.68-8.42.33-4.1.2-9.22,0-13.4-.12-2.51.29-5.18,0-7.65ZM867.29,354.7s-.05.03-.08.05c0-.25,0-.5,0-.75l.08.71ZM869.33,370.57l.03-.09c-.02.17-.03.19-.03.09Z" fill="#ff4e50"/>
          <path d="M804.05,292.73c2.64.59,5.09-1.03,5.73-3.8h-5.73s0,3.8,0,3.8Z" fill="#ff4e50"/>
          <path d="M539.08,206.51c4.22.5,6.54,3.05,10.45,3.94-.8,5.53,1.7,9.9,5.74,13.4.26,3.06,2.08,6.28,1.91,9.57.75,1.42,1.39,1.45,1.91,0,4.06-.48,5.55-1.75,3.83-5.74-1.91-2.79-5.26-4.98-5.74-5.74-.27-.44.25-1.36,0-1.91-2.34-5.15-1.07-6.35-1.91-9.57-2.32-8.85-4.38-8.43-11.48-13.4-9.34.27-17.1,3.41-25.82,3.95-8.77.54-16.66-6.88-14.36,5.62,5.89,5.9,26.59-1.16,35.48-.12Z" fill="#ff4e50"/>
          <path d="M580.15,308.05c1.9.11,3.84-.05,5.73-.01-.7-5.22-3-10.11-3.82-15.3-.19-1.21.13-2.59,0-3.83.58-7.23-12.19-21.46-19.14-22.96,1.76-3.19,1.15-4.46-.91-2.82,2.18-2.39,1.75-5.43.91-8.66-.56-4.59-5.29-7.33-9.57-5.74-.26-.93.03-2.61,0-3.83-2.16-.54-2.67-2.35-3.83-3.83-11.22-14.35-15.08-11.87-32.54-9.56-1.32,6.94,7.91,2.3,13.37,4.8.59.27,8.58,7.47,9.6,8.58,2.04,2.24,1.94,8.27,7.65,7.65-.75,1.73-1.11,6.76-1.91,9.57-.44,3.27.35,5.47,3.83,3.83,2.3,2.83,2.65,3.44,5.74,5.74.69.51,1.21,1.38,1.91,1.91.04.63-.1,1.31,0,1.91-.33.77-.48,1.82-.46,2.88-.36-.43-.84-.78-1.45-.97-7.02-2.95-16.18-8.59-23.43-10.17-3.09-.67-3.93-1.67-5.27,2.48,6.1,2.33,12.62,6.15,17.97,9.88,2.13,1.49,2.9,4.9,3.42,5.2,1.6.93,5.25-1.54,7.31-1.65,1.09-.32,1.75-1.02,2.03-1.83.11.25.22.48.36.69-.19.17-.35.54-.48,1.14l19.14,17.22c-2.64,3.35.49,6.29,3.83,7.65Z" fill="#ff4e50"/>
          <path d="M520.83,279.35c.72.54,1.3,1.26,1.91,1.91,3.26.43,6.44.83,9.57,1.91-4.26-2.68-3.26-2.83-9.57-5.74-3.38-1.76-4.45-.78-1.91,1.91Z" fill="#ff4e50"/>
          <path d="M610.76,272.66c-.68-1.45-3.48-2.21-3.82-2.88-.93-1.85.68-7.12-3.81-7.65-.54,4.53-2.67,4.19-.02,7.65,1.57,2.05,3.93,4,6.68,3.84l.96-.97Z" fill="#ff4e50"/>
          <path d="M277.81,256.38c2.07,2.44,8.34-7.66,10.56-7.55,6.34-5.33,9.95-10.64,14.31-17.31.48-.73,3.31-1.43,3.81-2.88v-2.85c-3.61-.88-5.17,2.09-7.64,3.82-3.83,2.69-23.67,23.68-21.04,26.78Z" fill="#ff4e50"/>
          <path d="M331.38,204.72c8.19,4,.68,6.45-1.44,10.99-1.66,3.57-2.74,9.15-4.3,11.97-.16.23-.29.45-.4.67-.93,1.49-2.38,3.37-3.43,5.07-9.05,14.7-19.05,17.3-29.68,28.69-4.54,4.86-8.25,12.93-12.42,17.24-4.68,4.83-17.06,9.5-19.14,17.22,15.67,1.24,15.25-4.39,22.96-13.4,10.85-12.68,10.76-14.59,24.71-24.08,8.48-5.77,11.44-16.12,17.39-23.76.61-.78,2.05-1.87,3.32-3.24.17-.17.35-.36.51-.59,2.12-2.58,5.45-7.69,7.65-9.57,2.9,1.96,6.37-.43,5.74-3.83,1-.2,5.12-.25,5.74,0,.83,5.07,2.1,6.99,3.83,5.74,2.46-.86,5.17-1.12,7.65-1.91,2.25-.72,4.4-2.58,7.11-3.39,7.65-2.29,11.74,3.47,12.03-10-25.67,1.92-20.41.23-42.1-7.65-.23-.05-.46-.09-.69-.13.22.02.45.06.69.13-16.95-6.16-16.92,7.66-5.74,3.83Z" fill="#ff4e50"/>
          <path d="M251.01,308.05c1.58-.26,4-.08,5.74,0,.64,1.64,1.28,1.64,1.91,0,4.45.15,8.95-.21,13.4,0-7.21-2.09-14.24-4.51-21.05-7.65-2.04-.94-3.93-2.51-5.74-3.83.08-.59.03-1.31,0-1.91-15.45-4.49-4.67,1.53-1.91,5.74.61.93,1.7,2.89,1.91,3.83.33,1.42.03,4.01,0,5.74,2.35.96,4.84-1.76,5.74-1.91Z" fill="#ff4e50"/>
          <path d="M742.81,212.37c4.17,3.59,8.08,1.2,5.74-3.83.69,1.57,1.33,1.58,1.91,0,4.73-3.71,10.4-6.25,15.31-9.57,3.24-.28,7.13-2.71,7.65-5.74,3.72-2.58,7.8-5.04,11.48-7.65,2.22.03,4.13-1.24,5.74-3.83.59-.7,1.3-1.26,1.91-1.91,4.9-.42,14.37-9.54,7.65-11.48-8.91.07-17.87-.04-26.78-.01-1.51-1.32,4.39-8.06,5.73-9.56,7.55-8.43,19.95-18.89,28.7-26.79,1.81-.79,3.72-2.07,5.74-3.83.7-.8,1.39-1.34,1.91-1.91,2.36-2.61,12.88-13.23,13.38-14.38,2.66-6.1-10.47.49-12.14,1.26-20.18,9.29-37,25.28-54.82,37.99-2.18,1.55-8.02,3.11-12.11,6.07-4.09,2.97-31.84,23.46-31.86,25.5-.06,4.81,22.49,2.29,26.74,2.88,1.72,1.47-6.16,9.62-7.64,11.47-2.27,2.83-5.57,7.34-7.65,9.57-2.75,2.93-8.18,5.62-10.81,8.33-8.46,8.7-15.6,18.85-25.55,26.12.36,2.88-.36,3.21,1.91,5.74,2.29.06,5.49-1.61,5.74-3.83,1.03-.45,2.2-1.22,3.83-1.91,3.91-1.23,6.46-3.14,7.65-5.74,1.2-.55,2.54-1.3,3.83-1.91,6.52-2.41,12.26-6.24,17.22-11.48.07-.5.08-1.86,0-1.91h1.91c5.1.7,5.52-.23,1.91-3.83.82-.62,4.64-3.14,5.74-3.83Z" fill="#ff4e50"/>
          <rect x="792.57" y="331.03" width="5.72" height="3.81" fill="#ff4e50"/>
          <path d="M346.69,273.61c3.74-2.03,7.71-3.77,11.48-5.74.22-1.15,1.44-2.57,1.91-3.83,1-2.65,3.35-4.54,3.83-5.74,1.5-3.76,2.26-5.03,0-7.65-6.24-1.38-6.94,3.48-9.57,5.74-4.4,3.78-8.79,8.01-13.4,11.48-10.81,8.15-19.55,13.55-30.62,22.96,13.09,5.35,24.52-10.79,36.36-17.22Z" fill="#ff4e50"/>
          <path d="M323.71,260.22c-2.24-2.05-10.29,7.01-9.56,7.63,2.19.55,12.49-4.94,9.56-7.63Z" fill="#ff4e50"/>
          <path d="M587.8,277.44c1.74,5.19,3.96,8.77,5.74,13.4,1.07.75,3.01,1.13,3.83,1.91,1.37,1.32,2.41,4.14,3.83,5.74,2.56-.02,3.83,1.26,3.83,3.83.66.74,1.29,1.26,1.91,1.91,3.85-4.47-.39-13.98-5.74-13.4-.25-1.12.38-3.18,0-3.83-.22-.37-2.82-1.25-3.83-1.91.03-1.27-.04-2.55,0-3.83.07-2.1-.57-4.8,1.91-5.74-.64-1.06-1-2.41-1.91-3.83-5.72-8.85-10.41-10.88-15.31-17.22-.11,3.07,1.19,7.93-1.91,9.57-1.18,3.79,3.13,6.19,5.74,3.83.2,1.2-.3,2.83,0,3.83-.7,1.09-.06,2.37,1.91,3.83.17.61-.19,1.36,0,1.91Z" fill="#ff4e50"/>
          <path d="M214.65,684.27l-73.95,64.55c-2.05,10.7,11.86,3.38,17.2,6.78-6.45,7.19-11.86,15.23-17.73,22.89-2.93,3.83-5.58,7.5-8.45,11.34-2.71,3.63-8.65,5.94-7.14,12.12l13.09-9.39c1.27-5.73,3.87-4,7.22-6.22,5.02-3.32,21.83-17.76,24.46-22.4l-1.06-2.1c3.98.75,21.4-12.98,22.46-15.09,2.84-5.6-13.54-5.12-16.19-6.26-1.75-2.63,8.88-11.06,10.94-13.51,5.3-6.32,11.65-14.32,16.57-20.93,2.97-3.99,11.78-15.34,13.28-19.02.67-1.64,1.15-1.25-.72-2.76Z" fill="#ff4e50"/>
          <path d="M693.71,824.15c-2.81-4.59-19.29-22.71-19.52-24.25-.75-4.91,20.36-2.09,21.65-7.39,1.41-5.75-17.47-17.8-21.75-21.64-7.81-7.01-15.06-14.91-22.88-21.9-9.55-8.53-20.32-15.6-28.67-25.49-2.44-1.01-1.59,3.31-1.31,4.44,3.85,15.32,30.75,36.96,38.32,51.25.67,1.26,1.42,1.97,1.02,3.67h-20.31c-2.8,0-4.11,3.4-3.1,6.2.55,1.54,14.52,17.88,16.6,19.88,2.99,2.88,12.7,10.34,16.23,11.9,4.81,2.12,3.95.35,8.27,5.22,4.37,4.93,15.87,18.33,22.38,18.3,2.63-.01,1.9-2.61,1.32-4.47-.54-1.77-6.91-13.51-8.26-15.7Z" fill="#ff4e50"/>
        </g>
      </g>
      <g>
        <path d="M103.02,548.27c-5.36-22.52-10.7-45.04-16.03-67.57,6.81-1.74,10.22-2.59,17.04-4.25,5.81,12.43,11.55,24.89,17.22,37.38-.34-13.76-.59-27.52-.77-41.28,6.59-1.52,9.89-2.26,16.49-3.7,5.35,22.52,10.69,45.04,16,67.57-4.32.94-6.47,1.42-10.78,2.39-3.82-14.93-7.65-29.85-11.49-44.77.65,15.63,1.42,31.26,2.25,46.89-3.83.89-5.75,1.35-9.57,2.27-6.45-14.42-13-28.78-19.63-43.12,3.38,15.15,6.76,30.29,10.16,45.43-4.36,1.08-6.54,1.63-10.9,2.75Z" fill="#171a14"/>
        <path d="M159.62,535c-.43-23.58-.68-47.16-.75-70.75,7.3-1.48,10.95-2.19,18.26-3.57,8.77,21.88,17.36,43.83,25.79,65.85-5.64,1.01-8.46,1.53-14.09,2.6-2.01-5.59-3.03-8.38-5.06-13.96-4.1.79-6.15,1.19-10.25,2,.18,5.94.28,8.91.48,14.85-5.76,1.16-8.64,1.75-14.38,2.97ZM173.11,507.91c2.98-.59,4.47-.88,7.46-1.46-3.54-10.35-5.33-15.52-8.93-25.86.56,10.93.85,16.39,1.47,27.32Z" fill="#171a14"/>
        <path d="M228.83,523.18c-5.25.84-9.55.59-12.92-.78-3.37-1.37-5.99-3.64-7.85-6.83-1.85-3.19-3.19-7.08-4-11.7-1.73-9.86-2.59-14.79-4.32-24.65-.83-4.73-.89-8.91-.18-12.54.71-3.63,2.51-6.66,5.4-9.06,2.88-2.4,7.1-4.06,12.62-4.94,5.4-.86,9.75-.67,13.03.54,3.28,1.21,5.76,3.23,7.46,6.04,1.69,2.81,2.81,6.17,3.38,10.08.34,2.38.52,3.56.86,5.94-6.2.9-9.29,1.36-15.49,2.33-.43-2.74-.64-4.12-1.07-6.86-.21-1.36-.49-2.64-.83-3.86-.34-1.22-.93-2.18-1.78-2.89-.84-.7-2.13-.92-3.86-.65-1.67.27-2.84.89-3.5,1.87-.67.98-1,2.12-1,3.42,0,1.3.12,2.66.35,4.07,1.76,10.74,3.52,21.49,5.28,32.23.25,1.52.61,2.9,1.07,4.12.47,1.23,1.15,2.16,2.05,2.79.9.64,2.1.83,3.59.59,1.61-.26,2.7-.85,3.26-1.77.56-.93.83-2.05.8-3.38-.03-1.33-.15-2.67-.36-4.02-.45-2.88-.67-4.32-1.12-7.2,6.11-.95,9.17-1.41,15.28-2.3.34,2.38.52,3.56.86,5.94.56,3.9.48,7.48-.25,10.73-.73,3.25-2.41,5.98-5.03,8.2-2.62,2.22-6.52,3.72-11.71,4.55Z" fill="#171a14"/>
        <path d="M257.05,517.93c-3.17-22.92-6.35-45.85-9.52-68.77,6.46-.89,9.69-1.32,16.15-2.14,2.48,19.53,4.96,39.06,7.44,58.59,6.44-.82,9.67-1.21,16.11-1.95.47,4.12.71,6.18,1.19,10.3-10.47,1.19-20.93,2.52-31.37,3.98Z" fill="#171a14"/>
        <path d="M295.13,513.2c-2.54-23-5.07-46.01-7.61-69.01,10.97-1.17,21.94-2.25,32.93-3.25.36,4.17.55,6.25.91,10.42-6.65.58-9.98.89-16.62,1.55.68,6.86,1.02,10.29,1.7,17.14,5.01-.5,7.51-.73,12.52-1.18.38,4.23.57,6.35.95,10.59-4.97.45-7.46.68-12.42,1.17.82,8.26,1.23,12.39,2.04,20.64,6.49-.64,9.74-.94,16.24-1.51.36,4.13.54,6.2.9,10.33-10.52.9-21.04,1.94-31.53,3.11Z" fill="#171a14"/>
        <path d="M330.29,509.78c2.49-23.45,5.16-46.88,8.02-70.29,7.39-.55,11.09-.81,18.49-1.26,5.96,22.81,11.73,45.65,17.33,68.55-5.7.3-8.55.46-14.25.82-1.3-5.79-1.95-8.69-3.27-14.48-4.15.27-6.23.41-10.38.71-.56,5.92-.83,8.88-1.36,14.8-5.83.43-8.75.66-14.58,1.15ZM346.97,484.58c3.02-.21,4.53-.32,7.55-.52-2.22-10.71-3.34-16.07-5.62-26.77-.8,10.91-1.19,16.37-1.93,27.29Z" fill="#171a14"/>
        <path d="M381.21,506.42c-1.09-23.12-2.19-46.23-3.28-69.35,8.09-.38,12.14-.55,20.24-.82,4.96-.17,9.28.23,12.93,1.17,3.65.94,6.51,2.73,8.58,5.34,2.07,2.62,3.13,6.36,3.21,11.22.05,2.86-.15,5.4-.59,7.64-.44,2.24-1.28,4.18-2.52,5.83-1.24,1.65-3.03,3.05-5.37,4.18,3.5,11.12,6.95,22.25,10.36,33.41-6.4.1-9.6.17-15.99.34-2.84-10.31-5.75-20.6-8.72-30.87-1.8.06-2.7.09-4.51.16.37,10.36.75,20.73,1.12,31.09-6.19.22-9.28.35-15.47.65ZM395.24,465.86c1.78-.06,2.67-.09,4.45-.15,2.25-.07,3.99-.51,5.21-1.32,1.22-.81,2.07-1.95,2.53-3.42.47-1.47.67-3.23.62-5.29-.08-2.97-.71-5.27-1.9-6.89-1.19-1.62-3.32-2.39-6.38-2.29-2.09.07-3.14.1-5.23.18.28,7.68.42,11.51.69,19.19Z" fill="#171a14"/>
        <path d="M434.6,459.84c-.44-1.74-.67-2.62-1.11-4.36,2.33-.08,3.82-.83,4.46-2.26.65-1.43.97-3.26.96-5.49-2.49.01-3.73.02-6.21.05-.05-4.9-.07-7.35-.12-12.26,5.19-.05,7.79-.06,12.99-.07,0,1.71-.01,3.37-.04,4.97s-.08,3.12-.13,4.54c-.19,4.9-1,8.6-2.45,11.06-1.46,2.46-4.23,3.73-8.34,3.82Z" fill="#171a14"/>
        <path d="M471.36,506.13c-4.38-.08-8.02-.9-10.95-2.47-2.93-1.57-5.14-3.97-6.63-7.21-1.49-3.23-2.32-7.42-2.48-12.57,5.38-.77,8.07-1.14,13.46-1.86.02,2.97.27,5.38.74,7.21.47,1.83,1.15,3.16,2.04,3.97.89.81,1.97,1.23,3.25,1.25,1.62.03,2.7-.49,3.21-1.57.51-1.07.79-2.21.81-3.41.06-2.86-.59-5.29-1.96-7.28-1.37-2-3.24-4.02-5.62-6.05-2.44-2.13-3.67-3.19-6.12-5.31-2.7-2.26-4.97-4.8-6.83-7.64-1.85-2.84-2.78-6.34-2.77-10.51.02-5.88,1.87-10.38,5.57-13.47,3.7-3.09,8.76-4.6,15.12-4.48,3.94.07,7.09.77,9.45,2.08,2.36,1.31,4.13,3.01,5.31,5.07,1.18,2.06,1.96,4.23,2.34,6.5.38,2.27.57,4.43.57,6.49-5.54.48-8.31.74-13.83,1.28-.02-2.06-.12-3.85-.29-5.36-.18-1.52-.59-2.7-1.23-3.54-.64-.84-1.66-1.28-3.04-1.3-1.5-.03-2.61.56-3.32,1.75-.71,1.19-1.07,2.38-1.09,3.58-.04,2.57.58,4.68,1.83,6.33,1.26,1.65,2.91,3.38,4.95,5.19,2.35,2.07,3.52,3.11,5.85,5.18,3.08,2.64,5.64,5.63,7.69,8.95,2.05,3.32,2.99,7.38,2.84,12.18-.1,3.26-.95,6.19-2.54,8.8-1.59,2.61-3.77,4.65-6.54,6.12-2.78,1.47-6.03,2.17-9.78,2.1Z" fill="#171a14"/>
        <path d="M519.34,506.8c1.22-23.11,2.44-46.22,3.66-69.33,7.66.4,11.48.63,19.14,1.14,3.14.21,6.1.64,8.88,1.3,2.78.66,5.2,1.72,7.27,3.17s3.63,3.41,4.66,5.87c1.04,2.46,1.39,5.63,1.07,9.51-.23,2.79-.85,5.11-1.87,6.94-1.02,1.84-2.35,3.26-4.01,4.28-1.66,1.02-3.59,1.64-5.81,1.88,2.75.55,5.02,1.6,6.79,3.15,1.77,1.54,3.05,3.53,3.82,5.94.77,2.42,1.02,5.27.74,8.58-.3,3.59-1.04,6.64-2.21,9.15-1.17,2.51-2.72,4.52-4.64,6.03-1.92,1.51-4.22,2.56-6.9,3.16-2.68.6-5.71.78-9.11.55-8.6-.59-12.9-.85-21.5-1.3ZM537.46,466.13c1.25.08,1.87.12,3.11.2,2.43.16,4.29-.07,5.59-.69,1.3-.63,2.22-1.6,2.76-2.94.54-1.33.89-2.97,1.03-4.91.13-1.82-.1-3.37-.7-4.65-.6-1.27-1.55-2.27-2.86-2.99-1.3-.72-2.98-1.15-5.02-1.29-1.12-.07-1.67-.11-2.79-.18-.45,6.98-.67,10.47-1.12,17.45ZM535.48,497.01c1.32.08,1.98.13,3.31.22,3.42.23,5.84-.46,7.27-2.08,1.43-1.62,2.27-4.08,2.51-7.38.19-2.62.05-4.72-.42-6.3-.47-1.58-1.36-2.78-2.67-3.58-1.3-.81-3.1-1.29-5.4-1.44-1.31-.09-1.96-.13-3.27-.21-.53,8.31-.8,12.47-1.33,20.79Z" fill="#171a14"/>
        <path d="M570.08,510.42c2.07-23.05,4.14-46.1,6.21-69.15,10.99,1.03,21.96,2.14,32.93,3.34-.47,4.16-.7,6.23-1.17,10.39-6.64-.75-9.96-1.1-16.61-1.78-.69,6.86-1.04,10.28-1.73,17.14,5,.51,7.51.77,12.51,1.32-.47,4.23-.7,6.34-1.16,10.57-4.96-.55-7.45-.81-12.41-1.31-.83,8.26-1.25,12.38-2.09,20.64,6.49.66,9.74,1,16.22,1.74-.47,4.12-.7,6.18-1.16,10.31-10.49-1.2-21.01-2.26-31.52-3.2Z" fill="#171a14"/>
        <path d="M605.22,514.03c7.09-22.49,14.35-44.92,21.8-67.3,7.37.92,11.05,1.41,18.4,2.43,1.33,23.54,2.48,47.08,3.44,70.63-5.66-.84-8.49-1.24-14.16-2.02-.13-5.94-.2-8.9-.35-14.84-4.13-.56-6.2-.83-10.33-1.36-1.72,5.69-2.57,8.54-4.27,14.23-5.81-.73-8.72-1.09-14.53-1.76ZM626.58,492.63c3.01.39,4.51.59,7.51.99-.06-10.94-.1-16.41-.21-27.35-2.95,10.54-4.41,15.81-7.3,26.36Z" fill="#171a14"/>
        <path d="M674.47,524.86c-5.25-.88-9.24-2.49-12-4.86-2.76-2.37-4.51-5.36-5.26-8.97-.74-3.61-.77-7.73-.07-12.37,1.5-9.9,2.25-14.85,3.76-24.75.72-4.75,1.99-8.73,3.83-11.95,1.83-3.22,4.5-5.51,8-6.87,3.5-1.36,8.02-1.59,13.53-.66,5.4.9,9.46,2.47,12.19,4.66,2.72,2.19,4.44,4.9,5.15,8.1.71,3.21.7,6.75,0,10.63-.43,2.36-.65,3.54-1.08,5.9-6.17-1.13-9.26-1.67-15.44-2.73.47-2.74.7-4.11,1.17-6.84.23-1.35.38-2.66.44-3.92.06-1.26-.19-2.37-.76-3.3-.57-.94-1.73-1.55-3.45-1.84-1.67-.28-2.97-.06-3.92.65-.94.71-1.62,1.69-2.04,2.92-.42,1.23-.74,2.56-.97,3.97l-5.27,32.23c-.25,1.52-.35,2.94-.3,4.25.05,1.31.4,2.41,1.05,3.3s1.72,1.46,3.22,1.71c1.61.27,2.83.06,3.65-.64.83-.7,1.44-1.68,1.83-2.95.39-1.27.71-2.57.94-3.93.49-2.87.74-4.31,1.23-7.18,6.1,1.04,9.14,1.58,15.23,2.69-.43,2.36-.65,3.54-1.08,5.9-.71,3.88-1.93,7.24-3.66,10.09-1.73,2.85-4.2,4.9-7.39,6.17-3.2,1.26-7.38,1.45-12.56.58Z" fill="#171a14"/>
        <path d="M722.49,533.78c-5.16-1.05-9.07-2.75-11.74-5.14-2.67-2.38-4.34-5.38-5.02-9-.68-3.62-.59-7.76.29-12.42,1.91-10.14,2.86-15.21,4.77-25.36.89-4.72,2.32-8.6,4.31-11.66,1.99-3.05,4.74-5.16,8.24-6.32,3.5-1.15,7.98-1.19,13.41-.08,5.49,1.12,9.64,2.92,12.45,5.36,2.8,2.44,4.52,5.46,5.16,9.05.64,3.59.43,7.73-.6,12.42-2.22,10.08-3.33,15.12-5.55,25.2-1.02,4.63-2.56,8.48-4.6,11.54-2.04,3.06-4.78,5.16-8.19,6.3-3.42,1.14-7.73,1.16-12.94.1ZM724.67,523.11c1.6.33,2.85.18,3.76-.45.9-.63,1.6-1.54,2.09-2.72.48-1.18.86-2.42,1.13-3.7,2.27-10.91,4.54-21.82,6.81-32.73.28-1.34.43-2.64.44-3.89.01-1.25-.28-2.35-.89-3.29-.61-.94-1.74-1.58-3.4-1.92-1.54-.31-2.78-.16-3.7.47-.93.63-1.63,1.52-2.11,2.68-.48,1.16-.85,2.41-1.12,3.75-2.19,10.93-4.37,21.85-6.56,32.78-.26,1.29-.41,2.57-.45,3.84-.05,1.27.21,2.37.77,3.3.56.93,1.64,1.55,3.24,1.88Z" fill="#171a14"/>
        <path d="M752.79,539.26c5.13-22.57,10.26-45.13,15.39-67.7,4.49,1.02,6.73,1.54,11.22,2.6,2.36,11.98,4.61,23.99,6.75,36.02,2.67-10.82,5.34-21.64,8.01-32.45,5.26,1.3,7.88,1.96,13.13,3.31-5.76,22.42-11.51,44.83-17.27,67.25-4.09-1.05-6.13-1.57-10.22-2.58-1.78-12.83-3.69-25.65-5.73-38.44-2.77,11.68-5.55,23.35-8.32,35.03-5.18-1.23-7.78-1.83-12.97-3.02Z" fill="#171a14"/>
      </g>
      <text transform="translate(352.13 639.66)" fill="#fff1d4" font-family="Oswald-Bold, Oswald" font-size="79.05" font-variation-settings="&apos;wght&apos; 700" font-weight="700"><tspan x="0" y="0">6</tspan><tspan x="42.53" y="0" letter-spacing="-.01em">6</tspan><tspan x="84.11" y="0" letter-spacing="0em">9m</tspan></text>
    </g>
  </g>
</svg>