<?xml version="1.0" encoding="UTF-8"?>
<svg id="Layer_2" data-name="Layer 2" xmlns="http://www.w3.org/2000/svg" viewBox="0 0 191.25 106.54">
  <g id="Layer_1-2" data-name="Layer 1">
    <g>
      <g>
        <polygon points="56.11 101.89 70.03 103.55 97.13 70.29 126.93 105.19 138.01 103.87 144.39 79.09 118.32 31.18 73.01 29.55 46.94 78.11 56.11 101.89" fill="#ff4e50"/>
        <path d="M98.21,12.19c2.22-1.3,5.1-11.2,13.05-10.72,5.04.31,15.51,15.04,18.58,19.75,4.11,6.3,8.6,18.85,12.45,23.06s8.89,4.57,13.43,9.79c5.43,6.25,10.62,16.65,15.85,23.75,6.32,8.57,16.48,15.96,19.68,27.42-17.66,3.27-35.54-.56-53.24-1.38-.33-8.3-2.67-16.39-5.12-24.24-2.68-8.59-12.46-33.69-19.59-37.76-10.83-6.18-11.02,3.17-15.56,3.28-5.4.13-10.34-10.87-19.21-2.78-12.43,11.33-18.97,57.27-22.41,59.53-18.62,2.76-37.23,1.16-56.06,1.98-.77-7.51,7.87-11.64,12.25-17.11,12.36-15.4,14.11-24,30.78-36.14,8-5.83,11.72-18.31,17.03-26.67C63.14,19.2,75.34.47,80.02.02c6.05-.59,13.28,15.05,18.19,12.17Z" fill="#171716"/>
        <path d="M126.93,105.19l-56.9-1.63c3.1-8.61,6.06-41.66,15.64-43.51,3.01-.58,8.61,3.15,12.73,2.83s7.78-5.33,12.29-2.45c5.2,3.32,19.28,41.73,16.23,44.77Z" fill="#171716"/>
      </g>
      <path d="M58.57,50.41c.65.62-3.12,10.68-4.01,11.53-3.03,2.91-15.42,2.42-12.7,9.19,2.52-3.67,5.58-3.87,9.79-3.44-1.8,4.81-2.95,10.38-5.2,14.95-.62,1.25-4.51,8.69-6.31,6.93.42-3,3.06-7.39-1.14-9.21-1.06,7.63-4.32,15.03-12.68,16.12-2.61-9.99,5.48-13.15,9.45-19.92,6.14-10.47,6.05-26.86,22.8-26.16Z" fill="#fff1d4"/>
      <path d="M146.4,67.88c1.86.72,5.14,4.25,6.03,6.07.71,1.45,2.13,5.17-.82,4.29-6.44-1.93-14.52-7.03-16.73-13.81,3.41,2.02,8.8,2.4,11.52,3.46Z" fill="#fff1d4"/>
      <path d="M92.09,31.81c1.86.72,5.14,4.25,6.03,6.07.71,1.45,2.13,5.17-.82,4.29-6.44-1.93-14.52-7.03-16.73-13.81,3.41,2.02,8.8,2.4,11.52,3.46Z" fill="#fff1d4"/>
      <path d="M87.08,36.72c-1.86-.72-5.14-4.25-6.03-6.07-.71-1.45-2.13-5.17.82-4.29,6.44,1.93,14.52,7.03,16.73,13.81-3.41-2.02-8.8-2.4-11.52-3.46Z" fill="#fff1d4"/>
      <path d="M95.18,34.92c.03-.98,1.43-3.44,2.32-4.38.72-.75,2.63-2.51,2.74-1.04.24,3.22-1.06,8.13-4.64,11.19.47-2.03-.47-4.33-.43-5.77Z" fill="#fff1d4"/>
      <path d="M93.23,32.92c1.33.03,4.21,1.52,5.19,2.47.79.76,2.54,2.8.49,2.92-4.48.26-10.72-1.13-13.69-4.94,2.6.5,6.06-.5,8.01-.45Z" fill="#fff1d4"/>
      <path d="M127.73,47.01c-1.52-2.5-10.89-14.08-1.46-9.49,5.19,2.53,8.12,10.52,11.83,15.25-1.39.81-2.99,1.31-4.61,1.15-1.33-2.42-2.49-7.19-5.76-6.91Z" fill="#fff1d4"/>
      <path d="M127.73,46.35c3.27-.27,4.43,4.49,5.76,6.91,1.62.16,3.22-.34,4.61-1.15,1.89,2.41,5.94,4.75,6.69,7.74,1.84,7.41-7.99,1.11-10.21-2.53-1.14-1.87-.81-3.56-1.09-4.06-5.09-.49-4.21-4.35-5.76-6.91Z" fill="#fff1d4"/>
      <path d="M176.85,101.39c-1.22-.52-8.6-5.27-6.9-6.91,1.25-1.2,8.62,3.69,6.9,6.91Z" fill="#fff1d4"/>
      <path d="M65.08,48.01c1.27-2.07,3.32-6.3,3.58-7.62,1.4-2.41,1.93-5.87.99-6.37-.98-.52-1.98,1.08-2.79,3.06-3.91,6.62-5.65,12.46-5.64,15.41,0,1.55,2.8-2.76,3.85-4.47Z" fill="#fff1d4"/>
      <path d="M119.7,40.68c-1.71-2.83-4.99-7.72-5.88-8.64-1.96-3.16-4.24-5.33-4.22-3.99.03,1.39,1.35,3.61,2.83,5.65,5.39,8.8,9.55,13.8,11.34,14.89.94.57-2.66-5.56-4.07-7.91Z" fill="#fff1d4"/>
    </g>
  </g>
</svg>