<?xml version="1.0" encoding="UTF-8"?>
<svg id="Layer_2" data-name="Layer 2" xmlns="http://www.w3.org/2000/svg" viewBox="0 0 80.15 45.16">
  <g id="Layer_1-2" data-name="Layer 1">
    <g>
      <path d="M54.31,6.51c.15,2.6.38,11.62-1.56,13.71-3.95,4.25-4.7,3-4.9-2.08l-2.24,1.58c-15.11-6.18-5.6,13.4-2.02,3.74l2.96-.15c3.48-.38,6.82-.92,10-1.63,2.23,2.41,3.26,1.18,3.81-1.49l2.98-.76c5.74,8.06,12.27,15.63,16.8,24.54l-78,1.18c-1.16-.68-2.43-1.54-2.09-3.07.26-1.15,12.18-16,14.2-18.77,1.76-2.41,3.53-5.58,5.17-7.75C23.34,10.37,27.81,5.27,31.84.11c2.43-.52,7.77,7.67,8.9,7.67C42.41,7.79,44.9,0,48.49,0c3.54,0,4.31,4.55,5.82,6.51Z" fill="#171a14"/>
      <path d="M54.31,6.51c3.25,4.22,5.98,8.62,9.04,12.92l-2.6,7.75c-.59.7-3.14-3.2-3.85-2.59-.48.41,1.06,3.09-1.29,2.58l-.03-3.86c-2.23-.58-.57,2.3-1.85,2.37-1.75.09-6.54.25-7.18-2.38-3-1.96-1.81-4.19,1.29-5.17,1.03.9.89,2.94,2.57,2.58-1.1-2.87,2.2-6.8,2.13-8.38-.07-1.63-5.37-4.82,1.76-5.83Z" fill="#171a14"/>
      <path d="M33.12,35.12c-.65-.2-1.08-.83-1.1-1.52-.07-2.51.07-7.31.77-8.79,1.25-2.63,4.28-8.5,7.65-7.92.31.05,4.79.56,6.2,3.17s1.33,6.75,1.22,7.29c-.13.65,1.03,5.29.12,6.74-1.21,1.94-4.68,1.63-7.91,1.43-2.85-.17-5.35.09-6.96-.41Z" fill="#ff4e50"/>
    </g>
  </g>
</svg>