<?xml version="1.0" encoding="UTF-8"?>
<svg id="Layer_2" data-name="Layer 2" xmlns="http://www.w3.org/2000/svg" viewBox="0 0 538.83 274.1">
  <g id="Layer_1-2" data-name="Layer 1">
    <g>
      <g>
        <g>
          <polygon points="253.98 8.4 300.4 3.92 338.58 40.92 355.78 66.13 357.43 74.85 345.41 76.73 270.24 45.63 257.99 25.6 253.98 9.58 253.98 8.4" fill="#fff1d4"/>
          <g>
            <path d="M78.94,162.41c-.73-.79-2.75-.22-1.77-3.52,5.36-.63,7.78-5.92,11.55-9.02,1.76-1.44,5.34-1.32,5.93-2,1.03-1.19,5.07-24.44,7.86-30.43,5.24-11.27,21.03-31.59,32.19-37.24,5.37-2.72,13.04-3.43,17.88-7.05,4.54-3.39,8.27-11.43,12.97-15.51,7.26-6.3,19.25-8.01,23.71-11.89,4.21-3.66,5.98-12.56,12.61-17.65,8.12-6.23,22.29-9.91,31.43-14.86,5.49-2.97,13.45-11.7,19.31-12.76,6.62-1.2,12.89,1.77,19.46,1.85,11.11.13,23.27-4.47,34.76-1.05l34.58,38.41c18.88,3.63,27.76,7.64,40.14,22.17,4.94,5.8,11.65,19.2,16.61,23.43,2.9,2.47,8.87,3.75,12.51,6.19,6.48,4.34,13.3,12.99,17.2,19.3,1.13,1.83-3.04,6.97,5.34,5.34.24.53-.28,1.57,0,1.78l1.78,3.56c-.16,1.05-.06,2.45,0,3.56.1,1.96,1.05,3.6,1.78,5.34,3.8,9.04,6.69,6.14,12.55,11.49,5.51,5.03,6.64,14.51,15.94,15.22l1.78,1.78c-.11.07.02,1.19,0,1.78-3.84-.32-6.26-.87-5.34,3.56-.96-.25-14.29-1.8-15.1-1.74-2.87.22-5.33,3.45-6.27,3.52-6.09.51-20.81-5.43-21.99-5.35-4.5.29-10.02,3.25-15.38,1.81l11.95,4.87,2.27,4c-10.04-.3-20.23.45-30.26,0s-17.3-1-26.71-3.56c1.98-2.67,21.25-7.48,25.86-8.87,2.54-.77,3.16,1.12,2.63-3.58-4.6.49-22.39-3.85-24.92-1.78-3.82,3.13,7.04,3.77,3.56,7.09-.36.34-5.45,1.53-8.91,3.58-8.29,0-16.64,0-24.92,0h-3.56c-3.56,0-7.13.05-10.68,0-15.69-.23-30.65-.73-46.29-1.78-3.53-.24-7.15.22-10.68,0-2.3-.14-5.96-1.67-10.68-1.78-2.96-.07-5.94.05-8.9,0-.49-.42-3.95.29-5.35-.01l1.8-3.53c-4.88-.07-9.63-.46-14.43.77-1.68.43-2.97,2.67-3.39,2.77-9.34,2.17-19.01,2.22-28.49,3.56-1.48.21-3.11-.02-3.56,1.78-4.4-1.51-10.55,1.76-14.24,1.78-2.37,0-4.75.02-7.12,0-.37,0-3.45-1.74-7.12-1.78-1.78-.02-3.56.03-5.34,0-5.05-.08-6.72,1.8-7.12,1.78-.59-.02-1.19.02-1.78,0-7.63-.22-28.56-.5-30.54-6.97-1.09-.39-1.29,1.61-1.51,1.62-1.76.09-3.58.05-5.34,0-6.92-.21-2.7,1.59-4.66,1.89-1.82.28-13.48-1.91-18.49-1.89-2.37.01-4.75,0-7.12,0ZM287.24,44.9c8.73.5,13.31,4.09,21.36,5.35l2.65-7.12c3.08,2.62,9.15,9.38,12.5,10.67,1.39.54.47-3.47,1.81-3.67,7.11-1.08,21.11,16.92,26.67,21.47.14-12.26-13.12-23.72-21.41-32-2.62-2.62-7.26-3.97-9.63-6.39-4.22-4.29-14.74-22.2-20.94-23.64-2.6-.6-6.82,1.55-10.26,1.59-10.7.14-21.41-.27-32.11-.1-2.53.97.84,1.7.88,1.79,5.53,12.47,3.18,32.02,20.97,33.38,3.15.24,5.88-1.43,7.51-1.33ZM246.29,18.2c-20.2,7.68-6.53,24.38-21.35,32.07l-.89-5.35c-5.77,4.57-16.74,12.78-20.5,18.67-3.51,5.5-2.42,10.12-4.56,15.02-1.89,4.33-9,9.65-11.22,13.7-1.28,2.34-4.53,11.11.63,9.54,1.13-.34,19.73-10.66,20.63-11.43,4.99-4.25,6.35-12.92,10.53-17.95,4.1-4.94,11.77-7.03,15.13-11.58,3.19-4.33,6.06-14.11,6.28-19.54,3.48-.57-.18,4.74,4.41,3.56,2-.51.34-3.03.91-3.57,2.25-2.14,8.75-5.44,9.81-7.14,3.01-4.83-1.2-18.8-8.38-17.53-.77.14-1.02,1.37-1.43,1.52ZM216.02,34.23c-6.12,1.21-12.37,5.43-10.65,12.44l10.65-12.44ZM260.52,39.57c-2.01-1.47-18.5,15.16-19.05,16.48-5.69,13.52,19.58,3.12,21.81-.45,2.88-4.61-2.39-11.11-2.76-16.03ZM294.36,52.03c-2.36-.26-22.38-1.04-15.99,4.42,7.16,6.13,21.99,6.92,31.48,13.04,4.93,3.18,10.57,11.08,14.17,12.54,10.26,4.16-1.86-10.69-2.94-12.19-7.83-10.9-12.13-16.22-26.71-17.8ZM352.59,75.67l-25.31-21.86c-1.65,6.6-4.39,1.43-9.77,1.79-.8,3.09,1.28,3.56,2.65,5.34,8.6,11.19,21.87,24.74,36.5,26.68.65-.62-2.83-10.4-4.08-11.95ZM394.05,100.09c2.4-2.22-26.67-54.37-40.93-46.27-.76.66,7.77,13.71,8.88,15.12,6.62,8.44,6.76,9.01,12.45,17.83,1.98,3.06,16.07,16.58,19.59,13.32ZM189.31,60.94c-25.87-1.08-25.74,24.24-35.23,40.42-6.14,10.46-18.63,15.34-14.6,30.78,12.91-1.69,17.95-13.12,19.59-24.92,6.5,2.81,2.41,9.6,1.77,14.23,2.78,2.72,8.8-8.77,9.75-10.71,3.48-7.06,5.26-15.67,8.04-23.1-6.52-.66-11.24-.35-15.13,5.32-4.2-10.47,14.93-9.71,19.62-14.21,1.38-1.32,7.2-16.87,6.2-17.82ZM244.5,69.84c-12.56.32-23.05,7.42-26.69,19.57l10.56-4.55,16.12-15.01ZM137.12,104.91c1.4-2.4,7-15.88,5.89-17.27-17.66,5.65-24.22,25.9-26.68,42.72,11.6-1.05,10.69-12.89,15.62-20.9,1.69-2.75,4.72-3.79,5.16-4.55ZM338.87,87.63c-7.24.18-14,7.05-8.42,13.77,1.32,1.59,7.2,2.69,10.07,5.06,3.76,3.11,6.13,9.15,8.48,13.32,9.29,3.05,19.92,16.2,28.18,19.46,8.54,3.36-5.85-13.41-6.26-14.22s-.05-3.18-1.02-5.14c-6.72-13.43-12.31-32.72-31.02-32.25ZM322.83,125.02c-6.6-2.92-5.7-11.67-7.62-18.18-.74-2.51-2.43-9.35-4.81-10.3l3.55,55.17c2.12,2.79,3.25.05,3.56-2.62.63-5.37-2.78-15.18,5.32-15.16,2.32,2.65-5.35,23.97,7.12,21.35-.03-12.14-1.99-24.06-5.35-35.59l-1.78,5.33ZM415.41,109c2.66-4.96-8.73-12.52-10.65-10.67-2.64,2.53,8.77,9.87,10.65,10.67ZM392.28,125.02c-5.73-7.3-10.25-19.65-18.28-23.56-14.58-7.1-.09,10.79,2.25,14.66s1.03,9.92,8.9,10.68c.42.77-.08,3.38,1.68,6.27,3.42,5.62,18.62,15.36,15.78,3.91-1.15-4.62-7.41-8.24-10.33-11.96ZM128.78,141.05c-4.07-1.82-14.25,5.29-10.66,8.88,2.29,2.3,11.86-4.75,10.66-8.88ZM406.52,144.62c-2.5-1.28-4.75,1.13-3.54,1.74,2.5,1.28,4.75-1.13,3.54-1.74Z" fill="#171a14"/>
            <path d="M312.17,171.31c-.23.19.93,3.14-1.11,3.64-3.22.79-10.76-.11-14.91-.08-2.35.02-4.78.14-7.12,0-1.76-.1-3.6.18-5.34,0-2.11-.22-4.95-1.17-7.12-1.78-.92-.26-2.92.49-3.48-.07-.49-.49.05-2.44-.08-3.49,14.09-3.46,25.48-1.21,39.17,1.78Z" fill="#171a14"/>
          </g>
          <path d="M246.29,41.34c-.57.54,1.09,3.06-.91,3.57-4.6,1.18-.94-4.13-4.41-3.56-.22,5.43-3.09,15.22-6.28,19.54-3.36,4.55-11.03,6.64-15.13,11.58-4.18,5.04-5.55,13.7-10.53,17.95-.9.77-19.5,11.08-20.63,11.43-5.16,1.57-1.91-7.2-.63-9.54,2.22-4.05,9.33-9.37,11.22-13.7,2.14-4.9,1.05-9.52,4.56-15.02,3.76-5.89,14.72-14.1,20.5-18.67l.89,5.35c14.82-7.69,1.15-24.38,21.35-32.07,1.17,7.56,3.84,15.79,0,23.14Z" fill="#fff1d4"/>
          <path d="M189.31,60.94c1,.95-4.82,16.5-6.2,17.82-4.68,4.5-23.82,3.73-19.62,14.21,3.89-5.67,8.62-5.98,15.13-5.32-2.78,7.43-4.56,16.04-8.04,23.1-.95,1.93-6.97,13.43-9.75,10.71.64-4.63,4.74-11.42-1.77-14.23-1.64,11.79-6.68,23.22-19.59,24.92-4.03-15.44,8.47-20.32,14.6-30.78,9.49-16.17,9.35-41.5,35.23-40.42Z" fill="#fff1d4"/>
          <path d="M394.05,100.09c-3.52,3.26-17.61-10.25-19.59-13.32-5.7-8.82-5.83-9.39-12.45-17.83-1.11-1.42-9.64-14.46-8.88-15.12,14.26-8.1,43.33,44.05,40.93,46.27Z" fill="#fff1d4"/>
          <path d="M338.87,87.63c-.75,6.78,6.53,8.68,8.31,11.27,2.86,4.17,5.36,13.54,8.68,17.14,2.46,2.67,11.25,7.15,15.06,8.98.41.82,14.8,17.59,6.26,14.22-8.26-3.25-18.89-16.4-28.18-19.46-2.35-4.17-4.73-10.21-8.48-13.32-2.86-2.37-8.75-3.47-10.07-5.06-5.58-6.72,1.18-13.59,8.42-13.77Z" fill="#fff1d4"/>
          <path d="M352.59,75.67c1.25,1.55,4.73,11.33,4.08,11.95-14.64-1.94-27.9-15.5-36.5-26.68-1.37-1.79-3.45-2.26-2.65-5.34,5.38-.36,8.12,4.82,9.77-1.79l25.31,21.86Z" fill="#171a14"/>
          <path d="M402.96,128.58c-2.95-1.75-16.83-15.52-14.23-17.79,13.43-1.97,33.64,3.93,33.8,19.57l-7.07-4.47,5.31,8.03c-4.2-1.63-12.54-2.22-17.8-5.34Z" fill="#171a14"/>
          <path d="M370.92,125.02c-3.8-1.82-12.6-6.31-15.06-8.98-3.32-3.59-5.82-12.97-8.68-17.14-1.78-2.6-9.06-4.5-8.31-11.27,18.72-.47,24.3,18.82,31.02,32.25.98,1.96.63,4.36,1.02,5.14Z" fill="#fff1d4"/>
          <path d="M137.12,104.91c-.44.76-3.47,1.8-5.16,4.55-4.94,8.01-4.03,19.85-15.62,20.9,2.46-16.81,9.02-37.07,26.68-42.72,1.11,1.39-4.5,14.87-5.89,17.27Z" fill="#fff1d4"/>
          <path d="M294.36,52.03l8.21,8.64,18.5,9.16c1.08,1.5,13.2,16.35,2.94,12.19-3.6-1.46-9.23-9.36-14.17-12.54-9.48-6.11-24.31-6.91-31.48-13.04-6.38-5.46,13.64-4.67,15.99-4.42Z" fill="#171a14"/>
          <path d="M258.76,12.86c11.77,1.7,12.74,17.34,17,23.06,3.19,4.28,11.75,2.75,11.49,8.99-1.63-.09-4.36,1.58-7.51,1.33-17.79-1.36-15.44-20.91-20.97-33.38Z" fill="#fff1d4"/>
          <path d="M260.52,39.57c.37,4.92,5.64,11.42,2.76,16.03-2.23,3.57-27.5,13.96-21.81.45.55-1.32,17.04-17.95,19.05-16.48Z" fill="#171a14"/>
          <path d="M200.01,116.12c-1.03,1.12-1.98,1.73-1.78,3.56-.67.08-7.82,6.21-12.46,3.56l-1.78-5.34c6.59-6.61,10.17-8.46,16.91-14.25,1.94-1.66,5.6-8.83,7.12-8.86,8.92-.17-7.79,18.66-8.01,21.33Z" fill="#fff1d4"/>
          <path d="M421.24,125.2c2.88,1.11,7.94,6.57,9.32,9.37,1.1,2.25,3.29,7.99-1.27,6.62-9.96-2.98-22.44-10.86-25.85-21.34,5.26,3.13,13.6,3.71,17.8,5.34Z" fill="#fff1d4"/>
          <path d="M183.98,117.9l1.78,5.34c-7.41,6.62-12.71,15.97-18.83,23-6.59,7.57-7.55,3.09-4.67-4.69,2.19-5.9,17.13-19.04,21.73-23.65Z" fill="#fff1d4"/>
          <path d="M376.26,116.12c-2.34-3.87-16.83-21.76-2.25-14.66,8.02,3.91,12.55,16.26,18.28,23.56-2.14,1.25-4.62,2.02-7.12,1.78-2.05-3.74-3.85-11.11-8.9-10.68Z" fill="#fff1d4"/>
          <path d="M244.5,69.84l-16.12,15.01-10.56,4.55c3.64-12.14,14.13-19.25,26.69-19.57Z" fill="#171a14"/>
          <path d="M376.26,116.12c5.05-.42,6.85,6.94,8.9,10.68,2.51.24,4.98-.53,7.12-1.78,2.92,3.72,9.19,7.35,10.33,11.96,2.84,11.45-12.35,1.71-15.78-3.91-1.76-2.88-1.25-5.5-1.68-6.27-7.87-.76-6.51-6.73-8.9-10.68Z" fill="#fff1d4"/>
          <path d="M246.29,41.34c3.84-7.35,1.17-15.58,0-23.14.41-.15.66-1.39,1.43-1.52,7.17-1.27,11.39,12.7,8.38,17.53-1.06,1.7-7.56,4.99-9.81,7.14Z" fill="#fff1d4"/>
          <path d="M321.07,69.83l-18.5-9.16-8.21-8.64c14.58,1.59,18.88,6.9,26.71,17.8Z" fill="#171a14"/>
          <path d="M128.78,141.05c1.19,4.13-8.38,11.18-10.66,8.88-3.59-3.6,6.6-10.7,10.66-8.88Z" fill="#171a14"/>
          <path d="M415.41,109c-1.89-.8-13.29-8.14-10.65-10.67,1.92-1.85,13.32,5.71,10.65,10.67Z" fill="#fff1d4"/>
          <path d="M216.02,34.23l-10.65,12.44c-1.71-7.01,4.54-11.23,10.65-12.44Z" fill="#171a14"/>
          <path d="M406.52,144.62c1.21.62-1.04,3.02-3.54,1.74-1.21-.62,1.04-3.02,3.54-1.74Z" fill="#fff1d4"/>
          <g>
            <path d="M322.83,125.02l1.78-5.33c3.36,11.53,5.32,23.45,5.35,35.59-12.47,2.62-4.81-18.7-7.12-21.35-8.1-.01-4.7,9.79-5.32,15.16-.31,2.67-1.44,5.41-3.56,2.62l-3.55-55.17c2.38.95,4.07,7.79,4.81,10.3,1.92,6.51,1.01,15.25,7.62,18.18Z" fill="#ff4e50"/>
            <path d="M192.51,127.28l-3.57,26.7h-7.1c1.35-8.57-1.42-26.64,10.66-26.7Z" fill="#ff4e50"/>
            <path d="M202.99,116.59c2.57-2.78,10.67-11.26,13.38-12.45,6.56-2.88-3.36,15.54-6.27,16.98-4.52,2.24-7.66-1.11-8.89-.97-.2-1.83.75-2.44,1.78-3.56Z" fill="#ff4e50"/>
            <path d="M349.33,127.23c-.13,3.79-.74,15.49-2.02,18.16-3.1,6.46-7.59-13.96-6.32-16.96,1.97-4.65,6.54-4.15,7.37-5.07,1.35,1.25,1.03,2.34.97,3.86Z" fill="#ff4e50"/>
            <path d="M297.68,76.27l5.31-3.56c2.87,3.71.45,27.79-3.98,17.36-2.77-6.51-1.89-15.31-4.77-21.95,1.56-7.29,4.96,7.36,3.45,8.16Z" fill="#ff4e50"/>
            <path d="M264.77,50.15c-.23,6.71.49,13.54-.21,20.25-.19,1.82-.71,8.37-3.33,8.22-1.74-8.56-1.09-17.11,0-25.82.3-2.44,1.26-5.65,3.54-2.65Z" fill="#ff4e50"/>
            <path d="M277.23,62.59c-3.85,3.81-12.67-5.14-8.88-8.88,3.85-3.81,12.67,5.14,8.88,8.88Z" fill="#ff4e50"/>
            <path d="M237.59,71.62c-.46,5.42.68,11.67.01,16.94-.33,2.6-1.36,5.52-3.55,2.63.46-5.42-.68-11.67-.01-16.94.33-2.6,1.36-5.52,3.55-2.63Z" fill="#ff4e50"/>
            <path d="M231.47,69.4c-.27,3.17.4,6.82,0,9.9-.19,1.52-.79,3.23-2.08,1.54.27-3.17-.4-6.82,0-9.9.19-1.52.79-3.23,2.08-1.54Z" fill="#ff4e50"/>
            <path d="M353.22,125.8c-.27,3.17.4,6.82,0,9.9-.19,1.52-.79,3.23-2.08,1.54.27-3.17-.4-6.82,0-9.9.19-1.52.79-3.23,2.08-1.54Z" fill="#ff4e50"/>
          </g>
          <path d="M232.94,162.41c1.16.59,1.16,1.19,0,1.78v-1.78Z" fill="#fff1d4"/>
          <path d="M306.82,35.99c-2.4,2.39-20.26-18.57-17.78-21.35,5.63-1.23,19.01,20.13,17.78,21.35Z" fill="#fff1d4"/>
        </g>
        <path d="M104.03,39.86c1.11,1.35-1.13,7.68,1.86,9.71,4.08,2.77,16.93-1.72,23.86,6.02,7.45,8.32-4.28,3.47-6.9,3.51-3.72.05-5.43,2.87-7.35,3.17-2.86.44-7.72-1.73-12.17-1.36s-8.09,3.72-10.56,3.78c-1,.02-4.14-8.58-7.42-10.6-4.03-2.48-10.98-1.56-11.39-1.97-.75-.76,1.62-10.66-2.58-12.55l-17-8.79c9.47-.28,16.62-3,25.58,1.99,2.87,1.6,5.01,5.86,7.74,6.63,3.44.96,13.99-2.35,16.32.47Z" fill="#171716"/>
        <path d="M166.36,22.03c.47-.26.47-2.97,1.33-3.09,4.84-.69,6.48,3.86,9.93,6.22,2.9,1.98,9.25-.19,3.49,7.33-.86,1.12-10.47,7.96-11.69,7.97-4.18,0-10.13-11.4-18.68-5.42,3.4-12.54-10.5-12.21-19.6-12.47,5.4-7.22,15.73-8.51,23.63-4.91,3.73,1.7,6.28,7.34,11.58,4.38Z" fill="#171716"/>
      </g>
      <path d="M532.32,258.63c-4.58-9.97-15.21-26.32-17.9-35.8h0c-1.9-6.68,5.9-12.81,7.16-19.1h0s17.25-29.42,17.25-29.42c-35.69-10.48-72.63-15.46-109.43-21.25-37.84-5.95-77.46-5.45-115.66-4.91-40.81.58-81.48-.42-122.26,1.83-31.64,1.74-63.28,5.62-94.94,7.51,0,0,0,0,0,0-8.07.48-16.14.8-24.21.94-1.63.26-3.26.51-4.9.76.07-.03.14-.05.21-.08-2.4.36-4.8.77-7.21,1.1-1.43.19-2.85.32-4.28.5l-.03.02s.08,0,.12,0c-8.87,1.11-17.71,1.95-26.65,2.5-6.83.43-13.07,2.33-19.54,4.06-2.26.85-4.7,1.44-7.41,1.68-.9.14-1.78.23-2.65.31-.02,1.47,6.28,9.07,7.39,10.94,7.33,12.37,13.71,27.2,21.38,39.25.87,1.37,2.21.85,2.28.96.19.31-3.42,4.43-4.2,5.91-4.1,7.79-6.55,16.41-10.28,24.33-3.59,7.62-8.17,14.65-11.76,22.24,9.61.31,19.23.7,28.84,1.15,9.32-1.29,18.68-2.46,28.05-3.56,10.16-2.64,20.82-3.72,31.36-4.63,18.23-1.58,36.43-3.5,54.66-5.14,26.62-2.4,53.32-3.78,80.04-4.55,5.65-.16,11.3-.3,16.96-.41,7.34-.15,14.68-.26,22.02-.33,2.83-.03,5.67-.05,8.51-.08.12-.19.27-.36.39-.56.06.19.15.37.22.55,11.12-.1,22.28-.18,33.47-.2,3.41,0,6.83,0,10.25.01,34.86.1,69.87,1.05,104.52,4.49,10.37,1.03,20.7,2.29,30.99,3.82,16.84,2.49,33.56,5.66,50.09,9.8.24.06.45.14.68.21,10.16-.37,20.36-.51,30.49-.74,1.12-.5,1.82-.72,1.45-2.26-.43-1.78-4.26-9.28-5.46-11.89ZM96.1,159.44s0,.03,0,.05c-.2,0-.39.02-.59.07l.59-.12Z" fill="#171a14"/>
      <rect x="76.63" y="183.07" width="201.06" height="53.07" fill="#171a14"/>
      <rect x="376.26" y="204.75" width="98.56" height="32.03" fill="#171a14"/>
      <rect x="417.65" y="183.07" width="80.82" height="61.6" fill="#171a14"/>
      <g>
        <path d="M50.65,236.46c-1.63-14.8-3.27-29.61-4.9-44.41,5.18-.57,7.77-.85,12.96-1.39,2.13-.22,4.16-.28,6.1-.18,1.94.1,3.68.49,5.23,1.17,1.56.68,2.83,1.74,3.81,3.17.98,1.44,1.6,3.4,1.84,5.89.17,1.79.02,3.33-.45,4.62-.47,1.28-1.21,2.34-2.21,3.18-1,.84-2.24,1.46-3.72,1.86,1.93.03,3.59.43,4.97,1.2,1.38.77,2.48,1.88,3.29,3.31.81,1.44,1.32,3.22,1.52,5.34.22,2.31.08,4.32-.43,6.05-.5,1.73-1.33,3.19-2.47,4.37-1.14,1.18-2.6,2.12-4.37,2.81-1.77.69-3.84,1.16-6.21,1.4-5.99.62-8.98.93-14.96,1.6ZM58.61,208.64c.85-.09,1.28-.13,2.13-.22,1.66-.17,2.9-.53,3.71-1.07.81-.54,1.32-1.27,1.53-2.18.22-.91.26-1.99.14-3.23-.12-1.17-.45-2.13-1-2.87-.55-.74-1.3-1.26-2.26-1.57-.96-.31-2.14-.39-3.52-.25-.76.08-1.14.12-1.9.2.47,4.48.7,6.71,1.17,11.19ZM60.69,228.45c.92-.1,1.37-.14,2.29-.24,2.37-.25,3.96-.96,4.75-2.15.79-1.19,1.08-2.84.87-4.97-.17-1.68-.5-3-1.01-3.95-.5-.95-1.25-1.6-2.22-1.96-.98-.36-2.26-.46-3.83-.3-.9.09-1.35.14-2.25.23.56,5.33.84,8,1.4,13.33Z" fill="#fff1d4"/>
        <path d="M100.01,232.29c-3.65.31-6.59-.02-8.82-1-2.23-.98-3.91-2.52-5.04-4.64-1.13-2.11-1.83-4.69-2.12-7.73-.61-6.61-.92-9.92-1.54-16.53-.29-3.08-.06-5.74.68-7.98.74-2.25,2.14-4.05,4.21-5.4,2.07-1.35,4.97-2.19,8.7-2.51,3.77-.32,6.81,0,9.09.99,2.29.98,3.99,2.51,5.1,4.6,1.11,2.09,1.79,4.67,2.03,7.75.52,6.62.78,9.93,1.29,16.55.24,3.04-.02,5.7-.77,7.97-.75,2.27-2.16,4.08-4.21,5.43-2.05,1.35-4.92,2.17-8.61,2.49ZM99.42,225.31c1.13-.1,1.93-.42,2.41-.98.48-.56.77-1.25.86-2.07.09-.82.11-1.65.03-2.49-.72-8.57-1.08-12.86-1.79-21.44-.07-.88-.23-1.71-.45-2.48-.23-.77-.63-1.39-1.21-1.86-.57-.47-1.44-.65-2.58-.56-1.06.09-1.84.42-2.33.98-.49.56-.78,1.24-.87,2.04-.09.8-.1,1.64-.03,2.52.75,8.57,1.12,12.86,1.87,21.43.07.84.22,1.66.43,2.45.21.79.59,1.43,1.14,1.89.55.47,1.38.65,2.51.56Z" fill="#fff1d4"/>
        <path d="M135.29,229.59c-3.66.25-6.58-.13-8.8-1.15-2.21-1.02-3.87-2.59-4.96-4.72-1.09-2.13-1.75-4.72-1.98-7.76-.5-6.62-.75-9.93-1.24-16.56-.23-3.08.04-5.74.82-7.97.78-2.23,2.21-4.01,4.31-5.32,2.09-1.31,5.01-2.1,8.74-2.35,3.78-.26,6.8.13,9.07,1.15,2.27,1.02,3.94,2.58,5.01,4.69,1.07,2.11,1.7,4.7,1.89,7.79.4,6.63.6,9.94,1,16.57.18,3.05-.12,5.7-.91,7.96s-2.23,4.04-4.3,5.35c-2.08,1.31-4.96,2.09-8.65,2.34ZM134.81,222.6c1.13-.08,1.94-.39,2.43-.94.49-.55.79-1.23.9-2.05.11-.82.13-1.65.08-2.49-.57-8.59-.85-12.88-1.42-21.46-.06-.88-.19-1.71-.41-2.49-.22-.78-.61-1.41-1.17-1.88-.57-.48-1.42-.68-2.57-.6-1.07.07-1.85.38-2.34.93-.5.55-.8,1.23-.91,2.03-.11.8-.13,1.64-.07,2.52.6,8.58.9,12.88,1.5,21.46.06.84.19,1.66.38,2.46.2.8.57,1.44,1.11,1.91.54.48,1.37.68,2.5.6Z" fill="#fff1d4"/>
        <path d="M156.39,227.6c-.57-14.88-1.13-29.77-1.69-44.65,4.73-.27,7.1-.4,11.83-.64,2.72,10.27,4.07,15.4,6.74,25.68,1.83-10.49,2.77-15.74,4.66-26.23,4.56-.21,6.84-.31,11.4-.49.88,14.87,1.76,29.74,2.63,44.61-3.06.12-4.6.18-7.66.32-.73-9.89-1.47-19.78-2.21-29.66-1.49,9.98-2.94,19.97-4.36,29.96-2.73.13-4.09.19-6.81.33-2.51-9.87-5.05-19.74-7.62-29.6.28,9.98.57,19.97.86,29.95-3.11.17-4.67.25-7.78.43Z" fill="#fff1d4"/>
        <path d="M211.29,225.87c-3.06.09-5.62-.32-7.71-1.24-2.08-.92-3.69-2.4-4.81-4.44-1.12-2.04-1.81-4.71-2.05-8.01,3.7-.64,5.55-.96,9.25-1.59.1,1.91.35,3.45.73,4.61.38,1.17.89,2,1.53,2.49.64.5,1.41.73,2.3.7,1.13-.03,1.86-.4,2.18-1.11.32-.71.47-1.45.45-2.22-.05-1.84-.58-3.38-1.59-4.62-1.01-1.24-2.37-2.48-4.07-3.71-1.75-1.29-2.62-1.94-4.38-3.22-1.92-1.37-3.55-2.94-4.9-4.71-1.35-1.77-2.08-4-2.17-6.68-.14-3.78,1-6.73,3.44-8.82,2.43-2.09,5.82-3.21,10.13-3.34,2.67-.08,4.84.26,6.48,1.03,1.64.76,2.9,1.79,3.78,3.07.87,1.28,1.48,2.65,1.82,4.09.34,1.45.55,2.83.62,4.15-3.77.51-5.65.77-9.41,1.3-.08-1.32-.2-2.47-.38-3.44-.17-.97-.49-1.71-.96-2.23-.47-.52-1.17-.77-2.11-.74-1.03.03-1.76.44-2.21,1.23-.45.79-.66,1.57-.63,2.34.05,1.65.54,2.99,1.45,4.01.91,1.02,2.09,2.08,3.56,3.18,1.68,1.25,2.51,1.88,4.19,3.14,2.2,1.6,4.07,3.42,5.6,5.48,1.53,2.06,2.33,4.63,2.41,7.72.05,2.1-.43,4.01-1.44,5.75-1.01,1.73-2.45,3.12-4.34,4.17-1.89,1.04-4.13,1.6-6.74,1.68Z" fill="#fff1d4"/>
        <path d="M229.31,224.75c-.31-14.89-.63-29.78-.94-44.67,4.42-.09,6.62-.13,11.04-.2.2,12.67.4,25.33.59,38,4.5-.07,6.76-.1,11.26-.14.03,2.67.04,4,.07,6.67-8.81.09-13.22.16-22.02.34Z" fill="#fff1d4"/>
        <path d="M253.68,224.38c2.96-14.92,5.98-29.84,9.04-44.74,5.03-.02,7.55-.02,12.58-.02,3.06,14.9,6.07,29.8,9.03,44.72-3.98-.03-5.97-.03-9.96-.04-.65-3.77-.97-5.66-1.62-9.43-2.89,0-4.33,0-7.22,0-.67,3.77-1,5.66-1.66,9.44-4.08.02-6.12.03-10.2.06ZM266.5,208.98c2.09,0,3.14,0,5.23,0-1.05-6.97-1.57-10.46-2.64-17.43-1.05,6.97-1.56,10.46-2.59,17.43Z" fill="#fff1d4"/>
        <path d="M289.29,224.38c.13-14.89.26-29.78.39-44.68,3.11.03,4.66.04,7.77.08,3.99,8.66,5.96,12.99,9.86,21.66.15-8.6.23-12.9.38-21.51,3.65.06,5.48.1,9.13.18-.33,14.89-.65,29.78-.98,44.67-2.92-.06-4.38-.09-7.3-.15-3.84-9.34-5.78-14-9.71-23.32-.12,9.27-.19,13.9-.31,23.16-3.69-.05-5.54-.07-9.23-.1Z" fill="#fff1d4"/>
        <path d="M335.85,225.99c-3.38-.11-6.02-.83-7.94-2.17-1.92-1.34-3.26-3.19-4.02-5.54-.77-2.35-1.11-5.06-1.04-8.11.15-6,.23-9,.38-15,.08-3.16.6-5.89,1.56-8.18.96-2.29,2.56-4.04,4.79-5.25,2.23-1.21,5.25-1.75,9.03-1.63,3.7.12,6.59.78,8.67,1.96,2.08,1.18,3.53,2.76,4.35,4.75.83,1.98,1.18,4.28,1.08,6.89-.05,1.15-.07,1.72-.11,2.87-4.28-.17-6.42-.25-10.71-.4.05-1.46.08-2.18.13-3.64.03-.95,0-1.84-.12-2.65-.12-.81-.42-1.48-.92-1.99-.49-.51-1.32-.79-2.46-.83-1.19-.04-2.06.22-2.61.77-.55.55-.91,1.25-1.08,2.09-.17.84-.27,1.72-.3,2.64-.25,8.27-.38,12.4-.64,20.67-.03.99.05,1.93.25,2.79.2.87.58,1.58,1.15,2.13.57.55,1.4.84,2.49.88,1.13.04,2.01-.21,2.63-.74.63-.53,1.07-1.23,1.35-2.11.27-.87.43-1.81.46-2.8.07-2.09.11-3.14.18-5.24-1.78-.06-2.67-.09-4.44-.15.08-2.32.11-3.47.19-5.79,5.71.19,8.57.29,14.28.52-.37,9.26-.55,13.89-.92,23.15-2.85-.11-4.27-.17-7.12-.27-.19-1.49-.28-2.23-.47-3.72-.69,1.23-1.67,2.23-2.95,3.01-1.27.78-2.98,1.14-5.11,1.07Z" fill="#fff1d4"/>
        <path d="M387.63,228.31c-3.7-.21-6.58-.99-8.67-2.33-2.09-1.34-3.52-3.15-4.29-5.42-.77-2.27-1.09-4.91-.93-7.92.32-6.43.49-9.65.81-16.09.16-3.08.74-5.72,1.75-7.89,1.01-2.18,2.65-3.81,4.91-4.91,2.26-1.09,5.28-1.54,9.06-1.32,3.7.21,6.55.93,8.56,2.14,2,1.21,3.37,2.82,4.11,4.82.74,2,1.02,4.27.85,6.8-.1,1.54-.15,2.31-.25,3.85-4.28-.28-6.42-.41-10.69-.66.11-1.78.16-2.68.27-4.46.05-.88.05-1.73,0-2.54-.05-.81-.31-1.5-.77-2.06-.46-.56-1.28-.88-2.47-.94-1.15-.07-2.01.16-2.6.68-.58.52-.97,1.19-1.16,2.01-.19.82-.31,1.69-.36,2.6-.47,8.39-.7,12.59-1.17,20.98-.06.99-.02,1.9.12,2.74.14.84.46,1.52.98,2.04.52.53,1.3.82,2.35.88,1.13.07,1.95-.15,2.46-.66.52-.5.86-1.17,1.03-2.01.17-.84.28-1.7.34-2.58.11-1.87.17-2.81.28-4.68,4.25.25,6.38.39,10.63.66-.1,1.54-.15,2.31-.25,3.85-.16,2.53-.72,4.77-1.68,6.72-.95,1.95-2.48,3.43-4.58,4.46-2.1,1.03-4.98,1.44-8.63,1.22Z" fill="#fff1d4"/>
        <path d="M405.26,228.74c4.08-14.66,8.21-29.3,12.39-43.93,5.02.36,7.54.54,12.56.93,1.93,15.08,3.81,30.17,5.65,45.27-3.97-.33-5.96-.48-9.93-.79-.36-3.81-.54-5.72-.91-9.53-2.88-.22-4.32-.33-7.2-.53-.95,3.71-1.42,5.57-2.37,9.29-4.07-.29-6.11-.43-10.18-.7ZM419.2,214.35c2.09.15,3.13.23,5.22.39-.52-7.03-.78-10.55-1.32-17.58-1.57,6.87-2.35,10.31-3.9,17.19Z" fill="#fff1d4"/>
        <path d="M445.42,231.82c-1.66-15.1-3.37-30.18-5.12-45.27,3.76.31,5.65.47,9.41.8.91,10.23,1.79,20.46,2.65,30.69,2.54-9.93,5.1-19.85,7.69-29.76,3.98.37,5.98.55,9.96.94-4.45,14.53-8.85,29.07-13.21,43.63-4.55-.42-6.82-.62-11.37-1.02Z" fill="#fff1d4"/>
        <path d="M470.56,234.16c1.47-14.82,2.94-29.64,4.41-44.46,8.95.89,13.42,1.36,22.36,2.34-.3,2.68-.44,4.01-.74,6.69-4.53-.5-6.79-.74-11.33-1.22-.46,4.41-.69,6.62-1.15,11.03,3.43.36,5.15.54,8.59.92-.3,2.72-.44,4.08-.74,6.8-3.42-.37-5.13-.56-8.56-.91-.56,5.31-.83,7.97-1.39,13.28,4.51.47,6.76.71,11.27,1.21-.29,2.65-.44,3.98-.73,6.63-8.79-.97-13.19-1.43-22-2.31Z" fill="#fff1d4"/>
      </g>
    </g>
  </g>
</svg>