<?xml version="1.0" encoding="UTF-8"?>
<svg id="Layer_2" data-name="Layer 2" xmlns="http://www.w3.org/2000/svg" viewBox="0 0 498.64 327.41">
  <g id="Layer_1-2" data-name="Layer 1">
    <g>
      <g>
        <g>
          <path d="M362.57,210.76c-2.83-1.27-6.66-5.01-7.08-5.14-.05-.01.13,1.15-.39.96-4.31-1.61-7.49-5.09-12.14-2.79l1.33,4.64c.41.26.69.63,1.02.87l2.05,1.74c1.51,1.18,3.08,2.09,4.58,3.43,3.58,3.21,17.22,19.49,22.68,14.89,4.37-3.68-4.38-11.91-6.94-14.26-1.67-1.53-3.5-2.77-5.11-4.34Z" fill="#171a14"/>
          <path d="M370.42,178.2c-2.91-2.56-11.05-8.54-14.8-5.48-3.39,2.76,5.59,10.18,7.71,12.27l2.05,1.74c2.26,2.08,3.56,3.34,6.14,5.21l3.07,2.61c.23.1.63-.15.95-.08l2.84-.23c.1-.09,1.68-1.92,1.74-2.05l-1.33-4.65c-2.42-1.22-5.41-6.77-8.35-9.35Z" fill="#171a14"/>
          <path d="M329.45,224.88c-1.83,2.12,11.41,17.06,14.2,18.46,1.63.82,4.69,2.05,5.91-.05,3.37-5.81-13.28-21.39-20.12-18.4Z" fill="#171a14"/>
          <path d="M385.1,181.6c.84,3.42,14.07,14.93,16.1,12.68-1.1-3.94-3.69-8.51-6.65-11.33-2.27-2.16-10.98-7.6-9.45-1.35Z" fill="#171a14"/>
          <path d="M341.95,180.62l-15.56-4.99c3.52,2.83,10.29,8.97,14.78,9.09,3.58.1,3.89-2.77.78-4.1Z" fill="#171a14"/>
          <path d="M163.9,111.94c-14.14,3.26-6.2,21.59,5.95,12.13,6.38-4.97,3.54-14.31-5.95-12.13Z" fill="#171a14"/>
          <path d="M498.64,256.81c-.06-.32.01-.9-.08-.95l-1.1-1.81c.03-.43-.08-1.83-.15-1.89l-1.1-1.81c-.07-1.1-.76-1.86-1.18-2.76-.29-.64-.22-1.46-1.1-1.81-.24-2.83-8.48-19.3-10.44-22.95-5.12-9.56-11.71-20.44-17.31-29.89-3.02-5.09-8.36-9.47-9.23-15.55.99-1.5,22.46,17.24,24.96,17.75,2.27.46,6.46.11,8.33-1.38,1.76-2.9-8.49-23.14-10.66-26.96-6.82-11.98-18.58-27.36-28.41-37.02-1.28-1.26-7.92-5.55-8.12-6.01-.75-1.75.86-1.74,2.09-1.41,4.02,1.1,10.25,5.81,14.71,7.57,24.88,9.81,16.72-4.99,7.01-17.58-11.75-15.22-26.91-25.97-41.18-38.57,8.25-1.12,16.79,4.15,24.68.29.3-1.32-.08-2.48-.73-3.62-5.45-9.7-29.15-22.69-36.39-32.82-26.98-18.92-59.24-33.15-92.43-35.76-1.45-.11-2.82-.68-4.4-.64-1.38.03-1.91,1.1-2.22,1.18-.21.06-.76.13-.95.08-1.14-.36-1.38-2.13-2.68-2.42-.42-.09-4.39.39-6.06.27-.61-.04-1.29.2-1.89.15-1.97-.15-3.36-.44-5.75-.48-.62-.01-1.27.16-1.89.15-3.31-.04-6.92-.15-10.48-.1-.63,0-1.26.14-1.89.15-6.75.15-13.11.16-19.94.67-.63.05-1.26.1-1.89.15-3.12.28-6.54-.12-9.38,1.72-.27-.01-.84,0-.95.08-.32-.32-.68-.58-1.02-.87-2.65.34-5.39.22-8.03.67-9.33,1.57-20.54,4.89-29.34,8.09-6.5,2.36-15.16,5.54-20.11,10.2-.3.1-.67-.03-.95.08-4.07,1.57-9.34,4.24-10.81,7.54-4,1.5-2.83,1.4-5.44,3.3-1.19.86-1.7,1.34-2.68,2.12-4.53,3.61-6.05,3.98-8.76,9.28-3.58.54-7.25,4.28-6.95,8.18-5.12,2.34-7.17,9.9-9.25,15.03-1.75,4.32-6.26,22.16-6.95,23.16-2.84,4.07-19.17,15.14-24.02,20.28-15.39,16.35-18.62,33.79-23.91,54.33,2.62,10.52,3.78,20.58,7.78,30.74,3.15,8,8.66,15.82,15.04,21.67,13.71,12.58,7.5-3.84,7.34-10.46-.07-2.66.54-8.68,2.88-10.37.02-.31-.1-.63-.08-.95.27-4.51,3.56-5.34,5.14-7.08.31-.34-.33-2.6,2.29-3.78,10.14-4.56,28.21-2.82,38.57.76,6.61,2.28,21.27,11.24,19.35,19.41-.45,1.92-2.46,1.62-2.56,1.77-.35.5-.14,1.96-1.56,3.5-1.78,1.95-3.1,1.76-4.6,2.71-3.72,6.11-11.38,13.48-17.68,16.67-.26.13-.68-.05-.95.08.26,2.14-4.03,5.37-6.16,6.21-.28.11-.67-.04-.95.08-.07,3.1-4.38,5.37-7.1,6.29-.72,1.72.43,2.52-3.55,3.14-.73,2.39-5.93,4.92-8.05,6.37-2.01,1.37-7.12,5.22-9.07,5.5-.31.04-.64.07-.95.08.58,2.08-6,5.9-8.05,6.37-.3.07-.64.04-.95.08-8.55,5.94-19.19,10.34-29.15,13.53-5.56,1.78-11.81,1.65-16.91,5.44-.14.54.15.99-.87,1.02.1,1.38-.34,2.47-1.66,2.99.01.31.05.63.08.95M400.59,81.53c-3.12.24-6.32-.76-7.89-3.64,3.05-.44,5.69,1.89,7.89,3.64ZM366.21,262.26c-11.62-.38-28.48-2.1-38.7-14.38-1.57-1.89-3.99-3.78-5.27-6.24-.44-.21-1.56-.67-1.97-.79-5.87,1.35.2,7.94-1.97,11.56-4.76.08-7.5-.59-10.73-3.86-1.53-1.55-2.26-3.36-3.22-4.5-3.04-3.6-11.55-13.17-12.81-17.05-.09-.29.02-.65-.08-.95-3.13-.32-5.92-5.44-8.26-7.9-2.47-2.29-7.41-5.08-5.98-9.03l30.54,17.95c5.82,1.14,7.51-1.64,4.86-6.77-3.94-7.63-10.89-14.07-15.41-21.24-.78-1.24-1.88-2.01-1.6-3.81,2.27-2.72,26.2,13.03,30.38,13.51,9.34,1.06-1.31-15.62-3.39-18.87-6.92-10.83-16.13-20.71-24.59-30.12-1.97-2.19-4-5.63-5.95-8.01,1.07-.99,18.39,4.66,21.1,5.72,2.98,1.17,14.93,8.83,17.01,6.41,2.72-3.17-7.67-16.83-10.16-19.65l1.38-.59,41.61,14.31c1.59.44,4.02-.89,4.42-2.5,1.59-6.34-14.48-26.66-17.78-33.13,1.98-1.9,25.8,8.67,30.25,9.46,19,3.35-6.67-21.38-4.76-23.91,6.06,1.97,23.38,12.9,24.38,18.96,5.54,5.26,14.82,20.49,15.43,27.81.65,7.72-9.38-.32-13.35-2.27-2.13-1.05-18.39-10.1-18.42-4.7,2.61,7.11,8.73,11.73,13.2,17.59,8.01,10.5,14.4,19.66,20.27,31.59,1.96,3.98,11.14,22.78,9.57,25.74-.62,1.17-5.26,1.6-6.34.46-.47-.49-.12-1.39-.29-1.69-.64-.07-1.3.01-1.88-.35l-16.22-11.51c-1.61-.53-3.19-1.25-4.88-1.51-.95-.15-4.9-.86-4.71.94.41,3.99,9.37,15.82,11.49,20.61,2.74,6.18,3.62,13.69,7.04,19.72.13,1.62-.79,1.75-1.7,2.48-1.29,1.04-6.36,3.25-7.88,3.45-7.47.97-10.59-9.51-17.07-11.76-5.18,3.42,1.12,7.29.3,10.63-.32,1.3-4.87,6.43-7.26,7.19M263.32,86.19c.2,2.46-1.63,4.61-4.08,4.81-2.46.2-4.61-1.63-4.81-4.08-.2-2.46,1.63-4.61,4.08-4.81,2.46-.2,4.61,1.63,4.81,4.08ZM230.97,91.04c.18-.32.59-.73.87-1.02.77-.79,2.17-4.17,3.61-.62,1.41,3.48-.09,9.5,3.14,13.4.71.03,6.93,7.81,10.3,9.63.13.07,1.54.63,1.97.79.46.18,2.3.6,2.91.71,4.72-1.31,8.07-.06,13.16-2.02.29-.11.69.04.95-.08.21-.1,1.26-2.95,3.63-2.2-.07-.3,0-.65-.08-.95.62-.4.62-1.81.79-1.97.5-.46,2.52-.41,2.68-2.12.26-.14.78-.75.87-1.02.62-.3,1.19-.84,1.81-1.1-.06-1.05.48-1.95.71-2.91.18-.72.91-3.6.64-3.86l.95-.08c0-.32-.08-.63-.08-.95,0-.32-.08-.63-.08-.95.01-.62-.16-1.27-.15-1.89l.87-1.02c-.02-.63-.16-1.27-.15-1.89,0-.01,0-.07-.01-.14l-.07-.8c-.08-1.58-.29-3.15-.38-4.73l-.08-.95c-.58-.79-1.01-1.47-2.05-1.74-.62-1.2-1.5-1.95-2.2-3.63-.07-.16-1.29-.41-1.06-1.3.37-1.86,5.62-2.04,7.38-3.02,1.24-1.2,5.7,1.54,6.9,2.76,9.14,9.33,3.28,22.4-3.18,31.21-.26.36-.59.68-.87,1.02-1.01,1.25-1.61,2.86-2.99,4.1-.87.79-1.93.8-2.3,1.09-2.26,1.76-3.87,4.01-7.26,4.4.16,4.3-18.41,4.68-22.54,3.74-.85-.2-1.36-.59-1.97-.79-.72-.24-1.28-.49-1.97-.79-3.29-1.44-4.18-1.86-7-4.19-.34-.28-.7-.56-1.02-.87-5.88-5.71-11.03-15.24-6.65-23.26ZM173.61,169.96c-2.26-.07-10.75,1.86-11.46-.51-.61-2.03,1.87-2.22,3.05-2.68,8.69-3.36,44.16-2.26,54.91-1.29,8.91.81,21.4,4.67,29.62,3.99.06-.1-.15-.83.23-1.59.31-.63,2.93-.3.34-3.21-.51-.26-1.23-.42-1.97-.79-2.37-1.2-5.33-1.89-7-4.19-.59-.2-1.23-.55-1.97-.79-.81-.27-1.52-.65-1.97-.79-.8-.26-1.89-.4-2.91-.71-3.14-.97-7.73-1.8-9.84-3.96-.31-.04-.64.12-.95.08-25.02-3.49-46.37-2.68-71.16,2.93-2.05,2.31-5.44,3.09-8.2,4.48-.95.47-2.04.79-2.76,1.18-1.05.57-2.48,1.51-3.63,2.2-1.21.72-2.46,1.42-3.63,2.2-.69.46-1.7,1.43-2.68,2.12-2.04,1.44-3.49,2.75-5.37,4.24-.72.58-1.58.9-1.81,1.1-.2.17-2.93,5.22-3.67,1.71-.55-2.59,4.97-12.02,6.94-14.34,2.7-3.18,8.05-5.11,8.2-10.19-2.23.16-4.5.11-6.63.96-2.06.82-6.91,8.79-8.15,4.5-1.12-3.87,7.71-12.32,6.21-17.13-1.84-1.62-12.87,8.29-12.39,11.48l-4.03,8.89c-1.52-4.64.76-8.39,1.83-12.52,4.24-16.35,14.49-33.38,29.21-42.53,7.61-4.73,31.96-15.37,38.57-6.69,7.16,9.4,10.18,22.71,24.53,25.53.78-3.57-1.93-5.03-2.98-7.36-3.86-8.51-6.69-13.95-12.64-20.88l-5.5-9.3c-1.7-1-3.96-3.23-5.98-3.1-.31.02-.89,0-.95.08.43-3.34-6.09-1.31-8.82-3.09-.06-.31-.04-.63-.08-.95-.04-.31-.05-.63-.08-.95-.26-3.71-1.49-10.55,2.86-11.66.23-.81.58-1.36.79-1.97l-.08-.95.95-.08c.1-.27-.17-.67-.08-.95.57-.4,1.27-.67,1.81-1.1l2.61-3.07c.13-.2-.42-1.27,0-1.76.41-.49,1.47-.11,1.74-.29.18-1.09,1.07-1.41,1.74-2.05,1.93-1.81,3.37-3.73,6.39-3.37-1.35,2.04-1.12,3.71-1.43,5.82-.04.3.1.63.08.95-.02.33.14.68.08.95-.07.33.2.82.08.95-.17.17-1.54-.4-1.83.81-.4,1.71-.94,7,1.12,7.81.26.1,4.27-3.04,4.45-3.25.77-.9.85-2.51,1.22-2.92.3-.33.57-.69.87-1.02,1.54-1.75,4.89-2.81,4.34-5.11,5.63-1.84,10.59-5.34,16.64-6.1-1.89,3.62-7.66,8.34-7.58,12.49.03,1.49,0,1.66,1.55,1.31,5-4.79,10.46-9.67,16.22-13.52,1.98-1.32,4.25-1.61,5.82-2.55,2.4-1.43,5.21-6.68,7.86-3.56,1.74,2.05-1.09,6.27-2.57,6.95-.69.32-1.65-.02-2.14.16.11,1.25-2.1,5.08-2.92,5.93-.95.99-2.03.98-2.22,1.15-.45.43-1.62.78-1.81,1.1-.13.21.19.67.08.95-.09.23.14.62.08.95,2.45,4.6,6.78-2.47,8.63-4.16,1.56-1.42,2.71-2.75,4.06-3.97,1.97-1.78,4.71-3.91,7.19-4.91.28-.35.58-.68.87-1.02,5.41-6.4,21.67-10.95,30.06-11.01.92,0,3.26-.69,2.45,1.21-.23.54-8.42,5.15-9.97,6.06-.25.14-.71-.07-.95.08l-.56,4.81c.5.08,1.28-.12,1.89-.15,6.89-3.32,14.7-6.14,22.24-7.52.61-.11,1.27-.07,1.89-.15,20.49-2.92,40.11.6,59.56,6.58,2.2.68,3.92,1.67,5.91,2.38.79.28,1.41.59,1.97.79.27.1.68-.18.95-.08,3.11,1.13,6.79.62,9.84,3.96-.63.07-1.27.08-1.89.15-.31.04-.65,0-.95.08-.42.11-.76.59-.87,1.02-1.26.12-2.99,1.07-4.65,1.33-11.71,1.8-23.05,3.04-34.92,3.79-.32.02-.63.06-.95.08-.32.02-.63.06-.95.08-2.2.12-4.42.48-6.62.54-2.28.06-12.15.2-13.31-.92-.04-.55.78-1.79.71-1.86,3.39.76,2.51-1.99,2.68-2.12.74-.55,7.61.05,9.3-2.66,0-.3-.79-1.43-1.1-1.81-1.96.34-4.3,0-6.17.51-1.89.53-2.05,2.01-2.19,2.07-.52.23-2.94.32-3.78.31-.76-.01-1.84-.9-4.25-.64-3.1.32-9.19,1.9-11.67,3.84-.83-.11-1.93.28-2.84.23-5.22-.31-7.92,1.47-13.09,2.97-1.27.37-2.16.99-2.76,1.18-7.4,2.25-14.89,4.39-22.31,6.58-4.35,1.28-8.59,2.76-13.01,3.91-2.49.65-4.94,1.95-7.41,2.51-.31.07-.64.01-.95.08-1.19.81-4.21,2.01-5.52,2.35-.58.15-1.3,0-1.89.15-.96.24-2.4-.19-2.76,1.18-.94,0-1.89.19-2.84.23-5.21.24-11.07.17-16.08,1.31-.22.39-.81.79-.87,1.02-.56,2.8,1.75,4.73,2.43,6.47.11.28-.04.67.08.95.12.28-.04.67.08.95l.95-.08c.16.2-.08.71.08.95.37.58.69,1.34,1.1,1.81,1.25,1.45,1.61,2.08,3.94,1.58.17.19-.09.82.08.95l1.1,1.81c-.04.46.02,1.52.15,1.89l.95-.08.08.95.95-.08c.14.21-.04.64.08.95,3.7,2.56,2.49,10.39,3.12,14.98.09.62.04,1.28.15,1.89l3.22,4.5c.33.1.8.9,1.02.87.11-.01.76-.82,1.81-1.1.67-.18,1.14-1.94,3.75-.82.93.4,10.68,10.32,13.36,12.29,5.96,4.4,27.66,14.97,30,19.62.3.6.77,2.08-.12,2.21l-23.43-11.8c-12.74-3.37-30.67-10.19-43.89-7.51-2.17.44-4.67,2.5-2.95,4.09.75.7,17.26,1.76,20.39,2.43,11.76,2.51,40.56,15.01,48.24,24.01,3.31,3.88,10.46,13.77.99,14.48-6.63.49-16.91-1.85-23.68-2.76-3.95-.53-8.75-.19-12.53-1.84-.31-.01-.63.09-.95.08-4.18-.22-8.28-.55-12.45-.89-4.46-.37-9.02-1.31-13.47-1.76-8.93-.89-19.51-3.17-27.89-3.44ZM262.29,230.33c-2.63,2.92-10.64-7.14-9.27-8.76,1.86-2.2,11.03,6.8,9.27,8.76ZM204.65,258.82c-2.09-1.62,9.03-15.9,11.03-17.47,1.09-.86,2.02-1.93,3.58-1.79.4,4.66-1.66,8.17-4.26,11.77-2.21,3.06-6.48,8.34-10.34,7.49ZM184.64,243.16c2-1.32,16.16-10.41,16.97-9.78.84.65-5.04,8.62-5.85,9.55-5.08,5.78-19.09,16.03-26.82,16.04-1,0-3.33-.25-3.4-1.23-.09-1.2,16.7-12.98,19.1-14.57Z" fill="#171a14"/>
        </g>
        <g>
          <g>
            <path d="M56.47,43.23c.54.33.85,1.6,1.73,2.16,16.99,10.89,32.82,22.8,48.84,35.06,5.56,6.08.17,12.9-7.23,9.85-11.1-8.37-23.69-14.7-35.1-22.54-3.98-2.73-17.6-12.22-19.65-15.29-6.81-10.15,1.6-15.24,11.43-9.23Z" fill="#171a14"/>
            <path d="M6.98,93.58c1.6,1.44,5.8,3.19,5.24,0,.57.06,1.23-.1,1.75,0-.76,2.02,3.43,3.08,4.97,3.26.63.07,1.08-.65,1.15-.64,1.79.29,3.45.5,5.24.87-.5,2.33,1.16,1.73,2.61,2.15,3.41.99,6.92.48,8.32,3.96.82-3.12,1.53-.67,3.9-.36.73.1.85-.52.9-.51,1.11.04,1.42-.39,3.49,0-.28,2.07.13,1.92,2.18,1.74l.44-.86c.93.24,1.76.63,2.62.87-.3,2.01.33,2.44,1.75.87,1.1.33,2.64.34,4.37.87-.66,3.02,1.79,1.03,3.3,1.93.62.37,3.28,5.98,3.69.69,1.75.61,4.15.48,5.24.87,1.74.63,13.44,5.62,13.82,6.27.66,1.12-.98,5.87-1.62,7.06-.54.99-1.66.57-1.72.65-1.57.5-2.96.91-4.66.81-10.55-.63-23.92-6.49-34.65-8.67.34-3.44-1.27-.91-1.75-.87-1.68.12-2.52-.73-3.49-.87.77-2.99-3.54-1.47-6.11-1.75-2.07-.23-4.07-.51-6.11-.87,1.93-4.36-.46-5.32-1.75-.87-4.44-1.01-7.86-1.71-12.23-3.49.55-2.62-1.3-1.64-3.49-1.75-.74-.48-2.09.08-2.62-1.75,2.6.54,2.74-2.23,0-1.75-.1-1.71.53-7.1,1.75-7.86.35-.22,2.59.1,3.49,0Z" fill="#171a14"/>
            <path d="M80.15,194.24c.58.58,1.22,4.26.96,5.28-.79,3.04-27.72,21.7-32.27,24.58-5.16,3.26-11.25,9.31-16.81,5.6-5.2-3.47-3.99-7.17.27-10.78,4.86-4.12,15.29-10.33,21.08-13.86,3.9-2.38,18.92-11.8,22.15-11.92.8-.03,4.21.69,4.62,1.1Z" fill="#171a14"/>
            <path d="M133.58,48.95c-1.86.65-6,1.72-7.62.77-.66-.39-7.66-10.95-8.75-12.64-1.7-2.65-2.73-5.49-4.17-8.06-.76-1.36-2.52-2.24-3.2-3.79-2.57-5.84,2.26-9.02,7.63-8.51,3.9.37,7.34,10.53,9.03,13.7,1.27,2.38,3.76,4.6,4.71,6.64.7,1.51,2.91,11.11,2.37,11.9Z" fill="#171a14"/>
            <path d="M68.13,161.72c-.06.08-.81,1.57-.87,1.75-2.21,1.01-4.58,1.72-6.96,2.21-4.27.89-12.78,3.04-16.63,3.03-.46-2.67,4.25-1.9,6.34-2.68,3.02-1.12,1.81-.29,4.44-.85,4.61-1,9.19-2.03,13.68-3.45Z" fill="#171a14"/>
          </g>
          <path d="M69,152.98c0,.58-.01,1.17,0,1.75,0,.28-.05.6,0,.87-.87-.01-1.75,0-2.62,0l2.62,5.23c-.06.03-.75.72-.87.87-4.49,1.43-9.07,2.46-13.68,3.45-2.63.57-1.42-.27-4.44.85-2.09.78-6.8,0-6.34,2.68-.86,0-1.76.07-2.62,0-.77-.06-3.05-2.68-2.62.87-.58,0-1.17.03-1.75,0-3.25-.14-6.6-.46-9.89-.57l-5.84,3.19c-.86.09-1.76-.08-2.62,0-2.44-3.24-8.02.62-10.8.04-.61-.13-.56-1.5-.7-1.57-.58-.27-3.83,1.96-4.91-1.71-.88-3-.86-5.58,2.44-6.37.29.04.59-.04.87,0,1.95.25,1.32-.17,3.27-.68,2.2-.57,4.32.8,3.72-1.94,9.12-1.73,18.43-3.57,27.52-4.76,6.92-.91,23.26-3.47,29.26-2.23ZM48.48,163.46v.87c.57-.29.57-.58,0-.87Z" fill="#171a14"/>
          <path d="M4.36,162.59c-3.3.79-3.32,3.38-2.44,6.37,1.08,3.67,4.33,1.44,4.91,1.71.14.07.1,1.44.7,1.57,2.78.58,8.36-3.28,10.8-.04-2.77.25-7.79,1.74-10.83,1.67-9.51-.22-9.08-11.73-3.71-12.06.31-.02.47.77.57.79Z" fill="#171a14"/>
          <path d="M68.13,161.72c-.06.08-.81,1.57-.87,1.75-2.21,1.01-4.58,1.72-6.96,2.21-4.27.89-12.78,3.04-16.63,3.03-.46-2.67,4.25-1.9,6.34-2.68,3.02-1.12,1.81-.29,4.44-.85,4.61-1,9.19-2.03,13.68-3.45Z" fill="#171a14"/>
          <path d="M36.68,169.58c-.38.79-1.15.65-1.75.87-3.37,1.26-9.9,1.3-13.98,1.75l5.84-3.19c3.28.11,6.63.43,9.89.57Z" fill="#171a14"/>
          <path d="M69,155.6c.23,1.39.42,2.67,1.75,3.49-.04.02-.03.67,0,.87v.87c-.53.12-1.4-.17-1.75,0l-2.62-5.23c.87-.01,1.75-.02,2.62,0Z" fill="#171a14"/>
          <path d="M12.22,159.97c.6,2.75-1.52,1.38-3.72,1.94-1.95.5-1.32.92-3.27.68,1.32-2.75,4.52-2.15,6.99-2.62Z" fill="#171a14"/>
          <path d="M41.05,168.7c-.43,1.12-1.66.86-2.62.87-.43-3.55,1.85-.94,2.62-.87Z" fill="#171a14"/>
          <path d="M48.48,163.46c.57.29.57.58,0,.87v-.87Z" fill="#171a14"/>
        </g>
      </g>
      <path d="M111.23,296.65c11.08.24,21.56,4.74,31.92,8.68,56.04,21.28,117.76,27.36,176.88,17.43,10-1.68,19.93-3.81,29.84-5.93,48.39-10.37,98.11-21.3,139.14-48.98,4.94-3.33,10.27-9.52,6.87-14.41-1.42-2.04-3.95-2.95-6.35-3.6-25.62-6.91-52.4,2.31-78.59,6.56-12.79,2.08-25.88,5.68-38.82,6.34-27.82,1.42-55.57-.9-83.42-1.53-22.48-.51-45.15-1.67-67.3,2.23-8.96,1.57-17.78,3.97-26.82,5-13.1,1.49-26.36.08-39.52.88-8.44.51-16.8,1.94-25.14,3.36-11.49,1.96-53.5,3.39-60.08,14.26-10.15,16.75,34.17,9.57,41.39,9.72Z" fill="#171a14"/>
    </g>
  </g>
</svg>