<?xml version="1.0" encoding="UTF-8"?>
<svg id="Layer_2" data-name="Layer 2" xmlns="http://www.w3.org/2000/svg" viewBox="0 0 141.51 130.23">
  <g id="Layer_1-2" data-name="Layer 1">
    <g>
      <path d="M44.54.04c23.95-.21,48.47.45,72.38,1.22,5.56.18,12.4-.67,17.69-.04,3.72.44,5.46,2.81,5.79,6.43,1.16,12.76-.81,27.3-.03,40.08.73,11.89-.01,23.9-.04,35.95-.02,12.08,2.06,28.84.73,40.1-.33,2.77-2.28,5.27-5.15,5.72-9.73,1.53-20.83.21-30.51.18-28.84-.12-58.74.32-87.54-.84-4.29-.17-15.85,1.65-17.66-2.71L0,4.43C2.43.14,8.15,1.29,12.41,1.24,22.85,1.11,33.89.13,44.54.04ZM24.78,9.89c.51-1,.4-3.52-.88-3.83-2.95,1.29-14.72.26-16.62,1.58-1.59,1.1.13,9.73.05,11.93,4.62-.9,9.58-1.38,13.23-4.76,1.54-1.43,2.18-3.95,4.23-4.91ZM35.83,7.35c-8.82-3.41-6.34-.17-9.26,5.33-3.24,6.12-8.96,8.98-15.59,10.21-.91.17-3.53-.06-3.66.07-.24.23.18,5.05,0,6.11.63.66,15.16-5.4,16.92-6.49,6.31-3.93,8.78-8.52,11.58-15.22ZM103.71,6.66c-9.41-.29-18.73-.06-28.14-.03-6.5.02-12.91.24-19.38.72-.21,5.26,8.57,6.83,12.57,6.79,1.75-.01,3.15-1.13,4.79-1.31,7.38-.81,14.76.91,19.29,7.07,2.92,3.96,3.39,11.45,9.26,11.86,5.17.36,5.52-8.39,7.2-12.38,3.02-7.2,7.11-9.1,13.41-13.06-3.88-.82-8.46-.2-12.22,1.02-.45.02-.91-.03-1.36,0s-.91-.03-1.36,0c-1.18-1.09-2.68-.64-4.07-.68ZM42.63,6.66h-5.43c2.42,9.09-8.65,18.5-15.93,21.74-2.65,1.18-12.97,3.48-13.98,4.4-.32.29-1.21,8.12-.99,8.49.61.97.94.54,1.74.38,9.89-1.94,17.15-6.78,24.41-13.61,5.79-5.44,9.7-13.49,10.18-21.39ZM56.88,15.49c-.03-.17-1.49-1.12-1.91-1.81-1.48-2.46-2.12-6.28-4.69-6.86-5-1.13-2.88.34-3.29,1.93-1.35,5.21-3.03,12.56-6.11,16.88-3.56,5-18.71,17.67-24.55,18.89-1.68.35-9.53.46-10.27,1.61-.46.72-.8,8.66,1.55,8.71,2.15.04,16.98-4.69,19.2-5.95,2.09-1.19,2.8-2.71,4.28-4.21,1.87-1.9,3.68-4.08,5.43-6.11,12.17-8.85,21.35-20.23,38.48-15.06,11.7,3.53,26.2,23.64,23.23,35.71-.53,2.16-1.81,2.9-2.34,4.45-2.72,7.87-2.54,19.27-8.82,25.12-5.66,5.28-17.93,8.9-19.17,16.82-.32,2.02,1.42,13.25,2.24,15.08.91,2.05,5.28,2.57,6.43,1.38,1.75-1.81.17-5.88,0-8.15-.27-3.64-.95-5.26.78-9.06,3.44-7.53,11.73-7.23,16.18-12.33,4.82-5.52,2.89-13.55,7.47-19.68,6.27-8.37,15.44-6.4,22.09.31,2.47,2.49,4.64,7.99,8.41,8.58.83.13,1.11-.14,1.31-.84.83-2.88-.29-8.92.69-12.38-9.07-1.84-17.78-10.82-19.96-19.74-2.24-9.16-.31-13.51,3.08-21.74.58-1.4,1.15-4.23,2.04-5.43.15-.2,3.47-2.26,4.07-2.72,2.61-1.98,5.98-3.69,8.16-6.44,1.6-2.02,3.52-5.82-.62-4.75-1.91.49-12.21,6.13-13.57,7.53-6.43,6.6-4.01,20.69-14.68,20.66-3.73-.01-9.87-8.22-11.76-11.33-1.62-2.67-.87-5.53-4.47-7.07-3.2-1.37-8.42-.19-11.93.05-.24-1.07-1.52-.73-2.04,0-.45-.02-.91,0-1.36,0-2.07.02-4.74.12-7.04-.09-2.14-.19-4.65-.86-6.53-1.95ZM132.7,26.83c1.29-1.74,1.42-9.54,1.55-12.02-3.18,3-10.22,6.75-12.49,10.24-.97,1.49-5.13,13.02-5.2,14.54-.25,5.69,3.74,14.89,8.04,18.66,1.39,1.22,7.92,5.87,8.87,2.94,1.64-5.08-1.52-4.37-3.94-6.02-7.55-5.14-8.22-20.59-1.03-26.11,1.07-.82,3.57-1.4,4.2-2.25ZM60.95,29.06c-.07.2.07.48,0,.68-.45-.04-.92.05-1.36,0-1.1-.13-2.38-.65-3.42-.39-4.6,1.19-9.32,7.7-12.52,10.59-2.74,2.46-8.01,5.46-9.94,8.46-.84,1.3.18,2.31.09,2.38-.19.14-1.54-.16-2.21.16-1.13.54-1.71,1.51-2.75,2.02-6.55,3.17-13.72,5.67-21.07,6.08-1.37.46-2.05,2.98-1.85,4.28.48,3.12,8.75,1.7,11.07,1.88,6.97.52,15.81,10.44,19.1,16.21,2.9,5.09,3.46,12.4,6.9,16.86,1.99,2.59,11.84,7.83,12.46,8.93.14.25-.61,1.08-.6,1.54s1.05.34,1.28.95c.72,1.88,2.66,10.44,3.08,11.04.91,1.31,5,.44,5.17-.46.31-1.56-1.15-3.72-1.35-5.39-.94-7.82-.47-14.47,5.81-19.87,4.43-3.81,13.31-6.51,16.42-11.41,2.67-4.21,3-11.23,4.22-16.15.76-3.07,2.97-6.86,3.38-10.19.73-6.07-2.68-11.21-5.55-16.24-.46-.8-1.63-.97-1.78-1.21s.48-1.23.23-1.92c-1.76-4.93-11.21-9.37-16-10.18-1.41-.24-3.62-.23-4.07,1.36-.45-.03-.91.02-1.36,0,.43-2.19-2.74-1.84-3.39,0ZM132.89,51.46c1-3.01-.83-5.09-.71-8.49.11-3.16,2.28-6.96,1.29-10.07-1.33-4.17-5.79,4.79-5.77,7.24.02,3.8,1.84,9.16,5.2,11.32ZM54.16,122.74c.4-.39-1.64-7.96-2.14-9.06-2.65-5.86-10.2-7.77-14.05-12.43-.66-.8-4.23-8.17-4.45-9.03-.27-1.04.57-1.98-.05-3.39-1.39-3.16-7.05-10.96-9.51-13.62-1.92-2.08-5.09-3.03-7.91-3.64-1.91-.41-8.15-1.73-9.46-.81-.8.56-.96,3.69-.54,4.36.26.41,7.5,1.73,9.39,2.48,5.3,2.11,8.71,5.44,11.13,10.59,2.48,5.26,4.07,13.7,6.22,18.21.9,1.89,5.56,4.23,7.45,6.13,2.72,2.73,4.57,8.44,7.5,9.47.94.33,6.04,1.08,6.4.73ZM124.38,83.09c-3.52-3.5-8.11-12.31-14.58-10.28-8.5,2.67-7.56,17.08-12.86,23.13-6.21,7.09-16.93,3.34-16.33,18.35.36,8.85.72,7.66,8.84,7.77.17-5.72-2.17-9.25,1.47-14.48,2.64-3.79,7.82-5.42,10.73-8.95,4.13-5.01,5.49-23.53,16.47-14.59,3.73,3.04,7.24,10.85,11.9,11.43,1.94.24,3.13-.33,3.44-2.41.47-3.21-6.8-7.7-9.08-9.97ZM29.89,111.71c-1.34-1.41-4.81-13.52-6.16-16.58-3.51-7.96-7.47-14.17-17.08-14.47-1.89,7.57,3.92,7.66,7.1,12.24,5.05,7.3,7.71,16.17,3.59,24.58-.97,1.99-3.51,3.41-3.22,5.93l25.81-.99c2.32-1.44-4.84-7.72-6.17-8.8-1.09-.88-3.26-1.27-3.86-1.91ZM126.97,107.59c2.98,1.37,7.88-1.4,5.6-5.23-.57-.95-7.55-2.51-9.81-4.44-2.93-2.5-6-12.53-10.44-11.09-2.34.76-3.52,8.61-4.7,10.96-3.49,6.99-13.91,8.95-14.77,16.46-.12,1.08-.18,7.44.07,7.73.35.41,5.54,1.12,6.57.6,6.9-9.29,13.23-19.86,26.81-16.11.55.15.5,1.04.67,1.11ZM13.43,107.81c-.17-4.38-3.79-11.61-7.46-14.25-.86,3.32.38,6.08.66,9.18.12,1.32-.21,6.84.01,7.12.11.14,1.14-.15,1.35,0,.82.57-1.39,3.48-1.42,3.69-.27,2.06.31,4.67.05,6.83,4.73.8,6.94-8.81,6.79-12.55ZM121.36,111.2c-6.9-2.05-13.61,6.21-15.61,12.21,5.91.37,11.77-.34,17.65-.68,1.87.48,7.23,2.61,8.54.7.3-.44-.14-8.92.97-10.53-.03-.55-7.76-.99-8.84-1.03-.23,0-.45.01-.68,0-.47-.91-1.43-.5-2.04-.68Z" fill="#171a14"/>
      <path d="M56.88,15.49s-1.07.21-.68.67c.27.31,4.7,1.47,5.66,2.03.49.29.45,2.41,1.81,1.37.11-.08-.75-1.3-.69-1.35h3.41s-.35,1.34-.35,1.34l4.42-2.02c.45,0,.91-.02,1.36,0,.8.03.76.09,2.04,0,3.51-.24,8.73-1.42,11.93-.05,3.6,1.54,2.85,4.4,4.47,7.07,1.89,3.12,8.03,11.32,11.76,11.33,10.67.03,8.25-14.06,14.68-20.66,1.36-1.39,11.66-7.04,13.57-7.53,4.14-1.07,2.22,2.72.62,4.75-2.17,2.75-5.54,4.47-8.16,6.44l-.35-.67c-1.35-.43-.78.87-1.48,1.37-1.89,1.34-1.12.8-2.24,2.02-.07.08-.96-.26-1.34.49s-1.69,4.62-.69,4.94c-3.38,8.23-5.32,12.58-3.08,21.74,2.18,8.92,10.9,17.9,19.96,19.74-.98,3.46.13,9.5-.69,12.38-.2.71-.48.98-1.31.84-3.77-.59-5.94-6.1-8.41-8.58-6.65-6.7-15.82-8.68-22.09-.31-4.58,6.13-2.65,14.16-7.47,19.68-4.45,5.1-12.74,4.8-16.18,12.33-1.74,3.8-1.06,5.42-.78,9.06-1.3,1.91-.17,5.73,0,8.15-1.14,1.18-5.52.66-6.43-1.38-.82-1.84-2.56-13.06-2.24-15.08,1.24-7.92,13.51-11.54,19.17-16.82,6.28-5.85,6.1-17.25,8.82-25.12.53-1.55,1.81-2.29,2.34-4.45,2.98-12.06-11.53-32.18-23.23-35.71-17.13-5.17-26.32,6.21-38.48,15.06-2.3,1.68-3.87,4.14-6.44,4.08l1.01,2.03c-1.48,1.5-2.18,3.02-4.28,4.21-2.22,1.26-17.05,5.99-19.2,5.95-2.35-.04-2.01-7.99-1.55-8.71.74-1.15,8.59-1.25,10.27-1.61,5.84-1.22,20.99-13.9,24.55-18.89,3.07-4.32,4.76-11.67,6.11-16.88.41-1.59-1.71-3.07,3.29-1.93,2.57.58,3.21,4.41,4.69,6.86.42.69,1.87,1.64,1.91,1.81ZM68.08,18.88v.68c.44-.23.44-.45,0-.68ZM108.82,51.47c-1.96.41-1.27,7.38,1.34,6.78,2.44-.55,1.64-7.41-1.34-6.78Z" fill="#fff1d4"/>
      <path d="M69.77,27.71c4.79.81,14.23,5.25,16,10.18.25.69-.38,1.68-.23,1.92s1.32.41,1.78,1.21c2.87,5.03,6.28,10.17,5.55,16.24-.4,3.34-2.61,7.12-3.38,10.19-1.22,4.92-1.55,11.93-4.22,16.15-3.11,4.9-11.99,7.6-16.42,11.41-6.28,5.4-6.76,12.05-5.81,19.87.2,1.67,1.66,3.83,1.35,5.39-.18.9-4.26,1.77-5.17.46-.42-.6-2.36-9.16-3.08-11.04-.23-.61-1.27-.47-1.28-.95s.74-1.3.6-1.54c-.61-1.1-10.46-6.34-12.46-8.93-3.44-4.46-4-11.77-6.9-16.86-3.29-5.76-12.13-15.69-19.1-16.21-2.32-.17-10.59,1.25-11.07-1.88-.2-1.29.48-3.81,1.85-4.28,7.35-.41,14.52-2.91,21.07-6.08,1.05-.51,1.63-1.48,2.75-2.02.67-.32,2.01-.03,2.21-.16.1-.07-.93-1.08-.09-2.38,1.93-3,7.2-5.99,9.94-8.46,3.2-2.88,7.92-9.4,12.52-10.59,1.03-.27,2.31.25,3.42.39-.12,1.03-.14,1.71,1.01,1.36.72-.22.19-.89.35-1.36.07-.2-.07-.48,0-.68l2.03-.68c.05,2.62,1.76,4.17,1.37.68.45.02.91-.03,1.36,0,1.22.08,4.4,1.26,4.07-1.36ZM62.31,32.46c-1.3.14-2.64.63-3.74,1.35-2.5,1.65-12.49,11.37-14.57,13.94-3.79,4.69-6.21,9.4-6.14,15.57.08,7.85,4.58,10.56,8.72,16.44,2.32,3.3,2.84,6.89,6.57,9.72,5.13,3.89,7.46,2.78,12.49-.39,10.36-6.55,17.84-17.07,19.67-29.2.67-4.41,1.2-11.68-1.28-15.55-2.87-4.47-13.73-11.46-19.01-11.87-.28-1.06-2.5-1.02-2.72,0ZM33.79,66.4c1.72-1.73-2.03-5.96-4.75-4.74-.15,1.91,2.91,6.59,4.75,4.74Z" fill="#fff1d4"/>
      <path d="M103.71,6.66l-.68,1.35c1.62.71,4.08-.62,4.75-.67.45-.03.91.03,1.36,0,1.25,1.37,3.77.46,5.43.67v-.67s-4.07,0-4.07,0c3.75-1.22,8.33-1.84,12.22-1.02-6.3,3.96-10.39,5.86-13.41,13.06-1.68,3.99-2.03,12.74-7.2,12.38-5.86-.41-6.34-7.9-9.26-11.86-4.53-6.16-11.91-7.89-19.29-7.07-1.64.18-3.04,1.3-4.79,1.31-4,.03-12.77-1.53-12.57-6.79,6.46-.48,12.88-.7,19.38-.72,9.41-.02,18.73-.25,28.14.03ZM96.25,14.13c-1.25,1.2,2.17,7,4.77,5.12,3.03-2.19-3.02-6.81-4.77-5.12Z" fill="#fff1d4"/>
      <path d="M124.38,83.09c2.29,2.27,9.56,6.76,9.08,9.97-.31,2.08-1.5,2.65-3.44,2.41-4.66-.58-8.17-8.39-11.9-11.43-10.98-8.94-12.34,9.58-16.47,14.59-2.91,3.53-8.1,5.17-10.73,8.95-3.64,5.23-1.31,8.76-1.47,14.48-8.13-.11-8.49,1.08-8.84-7.77-.6-15.01,10.11-11.26,16.33-18.35,5.3-6.05,4.37-20.46,12.86-23.13,6.48-2.03,11.06,6.78,14.58,10.28Z" fill="#fff1d4"/>
      <path d="M126.97,107.59c-.17-.08-.12-.96-.67-1.11-13.58-3.75-19.91,6.82-26.81,16.11-1.03.52-6.22-.19-6.57-.6-.25-.29-.2-6.65-.07-7.73.85-7.51,11.28-9.47,14.77-16.46,1.18-2.36,2.36-10.2,4.7-10.96,4.44-1.45,7.52,8.59,10.44,11.09,2.26,1.93,9.24,3.49,9.81,4.44,2.29,3.83-2.61,6.6-5.6,5.23ZM115.22,99c-.36-.28-4.01.33-3.35,1.67l4.06,1.02c.19-.18-.6-2.61-.71-2.69Z" fill="#fff1d4"/>
      <path d="M29.89,111.71c.6.63,2.77,1.02,3.86,1.91,1.33,1.08,8.49,7.36,6.17,8.8l-25.81.99c-.29-2.52,2.25-3.94,3.22-5.93,4.12-8.41,1.46-17.29-3.59-24.58-3.17-4.58-8.98-4.68-7.1-12.24,9.61.3,13.58,6.51,17.08,14.47,1.35,3.06,4.82,15.18,6.16,16.58ZM24.3,118.66c2.35,2.04,7.58-3.76.73-3.34.11.64-.97,3.13-.73,3.34Z" fill="#fff1d4"/>
      <path d="M54.16,122.74c-.36.35-5.46-.4-6.4-.73-2.94-1.03-4.78-6.73-7.5-9.47-1.89-1.9-6.55-4.24-7.45-6.13-2.15-4.51-3.75-12.96-6.22-18.21-2.43-5.15-5.83-8.48-11.13-10.59-1.89-.75-9.14-2.07-9.39-2.48-.42-.67-.26-3.8.54-4.36,1.31-.92,7.55.4,9.46.81,2.81.6,5.98,1.55,7.91,3.64,2.45,2.66,8.11,10.46,9.51,13.62.62,1.41-.22,2.35.05,3.39.22.86,3.79,8.23,4.45,9.03,3.85,4.66,11.4,6.56,14.05,12.43.5,1.1,2.54,8.66,2.14,9.06Z" fill="#fff1d4"/>
      <path d="M132.7,26.83c-.63.85-3.13,1.42-4.2,2.25-7.19,5.51-6.52,20.97,1.03,26.11,2.43,1.65,5.59.94,3.94,6.02-.95,2.92-7.48-1.73-8.87-2.94-4.31-3.78-8.29-12.97-8.04-18.66.07-1.52,4.23-13.05,5.2-14.54,2.27-3.5,9.31-7.25,12.49-10.24-.13,2.47-.26,10.28-1.55,12.02Z" fill="#fff1d4"/>
      <path d="M42.63,6.66c-.48,7.91-4.39,15.95-10.18,21.39-7.26,6.83-14.52,11.67-24.41,13.61-.81.16-1.13.6-1.74-.38-.23-.36.67-8.2.99-8.49,1.01-.92,11.33-3.22,13.98-4.4,7.28-3.24,18.35-12.65,15.93-21.74h5.43Z" fill="#fff1d4"/>
      <path d="M121.36,111.2c.35.89,1.29.64,2.04.68.23.01.45,0,.68,0,4.01,2.25,8.45-.12,7.52,5.82-.21,1.32-1.41.91-1.43,1.36-.03.91,1.11,2.42.7,3.68-1.96.6-4.32-.66-5.9-.65-1.01,0-1.49.65-1.57.65-5.87.34-11.73,1.04-17.65.68,2-6.01,8.71-14.26,15.61-12.21ZM116.61,120.02c3.3.59,4.83-.64,6.78-3.05-3.03-3.32-6.15-.89-6.78,3.05Z" fill="#fff1d4"/>
      <path d="M35.83,7.35c-2.8,6.7-5.27,11.29-11.58,15.22-1.76,1.09-16.29,7.15-16.92,6.49.17-1.06-.25-5.88,0-6.11.13-.13,2.76.1,3.66-.07,6.63-1.22,12.35-4.09,15.59-10.21,2.91-5.5.44-8.74,9.26-5.33Z" fill="#fff1d4"/>
      <path d="M24.78,9.89c-2.04.96-2.68,3.48-4.23,4.91-3.65,3.38-8.61,3.86-13.23,4.76.08-2.2-1.64-10.83-.05-11.93,1.9-1.32,13.67-.28,16.62-1.58,1.28.31,1.39,2.83.88,3.83Z" fill="#fff1d4"/>
      <path d="M13.43,107.81c-2.13,1.23-1.17,4.18-1.89,6.62-.66,2.23-2.95,2.21-2.18,4.93h-2.03c.26-1.45-.38-3.86-.05-5.05.21-.76,3.16.67,2.45-3.76-.25-1.57-.49-1.62-1.73-.69-.21-.15-1.24.14-1.35,0-.23-.27.1-5.8-.01-7.12-.28-3.09-1.52-5.86-.66-9.18,3.67,2.65,7.29,9.88,7.46,14.25Z" fill="#fff1d4"/>
      <path d="M132.89,51.46c-3.35-2.17-5.18-7.52-5.2-11.32-.01-2.44,4.45-11.41,5.77-7.24.99,3.11-1.18,6.91-1.29,10.07-.12,3.4,1.72,5.48.71,8.49Z" fill="#fff1d4"/>
      <path d="M108.82,51.47c2.98-.63,3.78,6.23,1.34,6.78-2.61.59-3.3-6.37-1.34-6.78Z" fill="#171a14"/>
      <path d="M62.31,32.46c.79-.09,1.91-.06,2.72,0,5.29.41,16.14,7.4,19.01,11.87,2.48,3.87,1.95,11.14,1.28,15.55-1.83,12.13-9.31,22.65-19.67,29.2-5.03,3.18-7.36,4.28-12.49.39-3.73-2.83-4.25-6.42-6.57-9.72-4.14-5.88-8.65-8.59-8.72-16.44-.06-6.18,2.35-10.89,6.14-15.57,2.08-2.57,12.07-12.29,14.57-13.94,1.1-.72,2.44-1.21,3.74-1.35ZM80.64,49.43c-.42-1.54-.81-2.7-1.74-4.03-2.29-3.26-12.81-9.14-16.62-7.89-1.9.62-11.96,10.34-13.52,12.27-1.2,1.48-5.37,7.64-5.82,9.12-2.38,7.89,4,12.96,8.13,18.4,1.07,1.42,5,8.08,5.95,8.64,2.54,1.49,10.1-4.46,12.09-6.3,7.59-7,10.14-14.08,11.53-24.11.41-2.94.97-2.56,0-6.11Z" fill="#171a14"/>
      <path d="M33.79,66.4c-1.84,1.85-4.9-2.84-4.75-4.74,2.72-1.21,6.47,3.01,4.75,4.74Z" fill="#171a14"/>
      <path d="M96.25,14.13c1.75-1.68,7.8,2.94,4.77,5.12-2.6,1.88-6.02-3.92-4.77-5.12Z" fill="#171a14"/>
      <path d="M115.22,99c.11.08.9,2.52.71,2.69l-4.06-1.02c-.65-1.34,2.99-1.95,3.35-1.67Z" fill="#171a14"/>
      <path d="M24.3,118.66c-.24-.21.83-2.7.73-3.34,6.85-.42,1.62,5.37-.73,3.34Z" fill="#171a14"/>
      <path d="M116.61,120.02c.63-3.93,3.74-6.37,6.78-3.05-1.95,2.4-3.48,3.64-6.78,3.05Z" fill="#171a14"/>
      <path d="M80.64,49.43l-2.72,1.7c4.07,1.33,1.87,1.26,2.72,4.41-1.39,10.03-3.94,17.1-11.53,24.11-1.99,1.83-9.55,7.79-12.09,6.3-.95-.56-4.88-7.22-5.95-8.64-4.13-5.44-10.51-10.51-8.13-18.4.44-1.48,4.62-7.63,5.82-9.12,1.56-1.94,11.63-11.65,13.52-12.27,3.81-1.25,14.33,4.64,16.62,7.89.94,1.33,1.32,2.49,1.74,4.03ZM52.13,56.9c-.06.01-.33-.59-.6-.65-2.57,4.53-1.24,7.41,1.96,10.83.12.13.94.02,1.31.41,2.1,2.25,6.19,8.77,9.54,6.71.66-.41,9.03-11.2,9.44-12.29.81-2.2,1.09-4.31.7-6.68-.13-.79-3.19-8.04-3.52-8.35-1.77-1.67-6.8-1.89-9.05-.91-4.27,1.87-9.06,10.78-9.79,10.91Z" fill="#fff1d4"/>
      <path d="M52.13,56.9c.73-.13,5.52-9.04,9.79-10.91,2.25-.99,7.28-.77,9.05.91.33.31,3.39,7.56,3.52,8.35.38,2.37.11,4.49-.7,6.68-.4,1.09-8.78,11.88-9.44,12.29-3.35,2.06-7.44-4.46-9.54-6.71-.37-.4-1.19-.29-1.31-.41-.13-4.32-4.47-5.33-1.36-10.18ZM63.54,65.58c.41-.24,5.5-7.24,5.57-7.71.28-1.94-2.24-6.08-3.85-6.36-.67-.12-8.27,7.18-8.27,7.75,0,.72,4.09,7.73,6.55,6.32Z" fill="#171a14"/>
      <path d="M63.54,65.58c-2.46,1.41-6.55-5.6-6.55-6.32,0-.57,7.6-7.87,8.27-7.75,1.61.28,4.13,4.43,3.85,6.36-.07.47-5.16,7.47-5.57,7.71Z" fill="#ff4e50"/>
    </g>
  </g>
</svg>